G04 #@! TF.GenerationSoftware,KiCad,Pcbnew,5.1.9-73d0e3b20d~88~ubuntu18.04.1*
G04 #@! TF.CreationDate,2021-01-31T19:14:37+01:00*
G04 #@! TF.ProjectId,stm32_master_bt_bat,73746d33-325f-46d6-9173-7465725f6274,rev?*
G04 #@! TF.SameCoordinates,Original*
G04 #@! TF.FileFunction,Soldermask,Top*
G04 #@! TF.FilePolarity,Negative*
%FSLAX46Y46*%
G04 Gerber Fmt 4.6, Leading zero omitted, Abs format (unit mm)*
G04 Created by KiCad (PCBNEW 5.1.9-73d0e3b20d~88~ubuntu18.04.1) date 2021-01-31 19:14:37*
%MOMM*%
%LPD*%
G01*
G04 APERTURE LIST*
%ADD10R,1.700000X1.700000*%
%ADD11O,1.700000X1.700000*%
%ADD12C,5.600000*%
%ADD13R,0.900000X0.800000*%
%ADD14C,2.000000*%
%ADD15O,3.000000X2.000000*%
%ADD16R,2.000000X4.500000*%
G04 APERTURE END LIST*
D10*
X125700000Y-217100000D03*
D11*
X123160000Y-217100000D03*
X120620000Y-217100000D03*
D12*
X108000000Y-199000000D03*
G36*
G01*
X131375000Y-222125000D02*
X131375000Y-223075000D01*
G75*
G02*
X131125000Y-223325000I-250000J0D01*
G01*
X130450000Y-223325000D01*
G75*
G02*
X130200000Y-223075000I0J250000D01*
G01*
X130200000Y-222125000D01*
G75*
G02*
X130450000Y-221875000I250000J0D01*
G01*
X131125000Y-221875000D01*
G75*
G02*
X131375000Y-222125000I0J-250000D01*
G01*
G37*
G36*
G01*
X129300000Y-222125000D02*
X129300000Y-223075000D01*
G75*
G02*
X129050000Y-223325000I-250000J0D01*
G01*
X128375000Y-223325000D01*
G75*
G02*
X128125000Y-223075000I0J250000D01*
G01*
X128125000Y-222125000D01*
G75*
G02*
X128375000Y-221875000I250000J0D01*
G01*
X129050000Y-221875000D01*
G75*
G02*
X129300000Y-222125000I0J-250000D01*
G01*
G37*
G36*
G01*
X128275000Y-243687500D02*
X127325000Y-243687500D01*
G75*
G02*
X127075000Y-243437500I0J250000D01*
G01*
X127075000Y-242762500D01*
G75*
G02*
X127325000Y-242512500I250000J0D01*
G01*
X128275000Y-242512500D01*
G75*
G02*
X128525000Y-242762500I0J-250000D01*
G01*
X128525000Y-243437500D01*
G75*
G02*
X128275000Y-243687500I-250000J0D01*
G01*
G37*
G36*
G01*
X128275000Y-241612500D02*
X127325000Y-241612500D01*
G75*
G02*
X127075000Y-241362500I0J250000D01*
G01*
X127075000Y-240687500D01*
G75*
G02*
X127325000Y-240437500I250000J0D01*
G01*
X128275000Y-240437500D01*
G75*
G02*
X128525000Y-240687500I0J-250000D01*
G01*
X128525000Y-241362500D01*
G75*
G02*
X128275000Y-241612500I-250000J0D01*
G01*
G37*
D10*
X124700000Y-241600000D03*
D11*
X124700000Y-239060000D03*
X122160000Y-241600000D03*
X122160000Y-239060000D03*
X119620000Y-241600000D03*
X119620000Y-239060000D03*
X117080000Y-241600000D03*
X117080000Y-239060000D03*
G36*
G01*
X110212500Y-215475000D02*
X110212500Y-214525000D01*
G75*
G02*
X110462500Y-214275000I250000J0D01*
G01*
X111137500Y-214275000D01*
G75*
G02*
X111387500Y-214525000I0J-250000D01*
G01*
X111387500Y-215475000D01*
G75*
G02*
X111137500Y-215725000I-250000J0D01*
G01*
X110462500Y-215725000D01*
G75*
G02*
X110212500Y-215475000I0J250000D01*
G01*
G37*
G36*
G01*
X108137500Y-215475000D02*
X108137500Y-214525000D01*
G75*
G02*
X108387500Y-214275000I250000J0D01*
G01*
X109062500Y-214275000D01*
G75*
G02*
X109312500Y-214525000I0J-250000D01*
G01*
X109312500Y-215475000D01*
G75*
G02*
X109062500Y-215725000I-250000J0D01*
G01*
X108387500Y-215725000D01*
G75*
G02*
X108137500Y-215475000I0J250000D01*
G01*
G37*
G36*
G01*
X108125000Y-231975000D02*
X108125000Y-231025000D01*
G75*
G02*
X108375000Y-230775000I250000J0D01*
G01*
X109050000Y-230775000D01*
G75*
G02*
X109300000Y-231025000I0J-250000D01*
G01*
X109300000Y-231975000D01*
G75*
G02*
X109050000Y-232225000I-250000J0D01*
G01*
X108375000Y-232225000D01*
G75*
G02*
X108125000Y-231975000I0J250000D01*
G01*
G37*
G36*
G01*
X110200000Y-231975000D02*
X110200000Y-231025000D01*
G75*
G02*
X110450000Y-230775000I250000J0D01*
G01*
X111125000Y-230775000D01*
G75*
G02*
X111375000Y-231025000I0J-250000D01*
G01*
X111375000Y-231975000D01*
G75*
G02*
X111125000Y-232225000I-250000J0D01*
G01*
X110450000Y-232225000D01*
G75*
G02*
X110200000Y-231975000I0J250000D01*
G01*
G37*
G36*
G01*
X112337500Y-219725000D02*
X112337500Y-218775000D01*
G75*
G02*
X112587500Y-218525000I250000J0D01*
G01*
X113262500Y-218525000D01*
G75*
G02*
X113512500Y-218775000I0J-250000D01*
G01*
X113512500Y-219725000D01*
G75*
G02*
X113262500Y-219975000I-250000J0D01*
G01*
X112587500Y-219975000D01*
G75*
G02*
X112337500Y-219725000I0J250000D01*
G01*
G37*
G36*
G01*
X114412500Y-219725000D02*
X114412500Y-218775000D01*
G75*
G02*
X114662500Y-218525000I250000J0D01*
G01*
X115337500Y-218525000D01*
G75*
G02*
X115587500Y-218775000I0J-250000D01*
G01*
X115587500Y-219725000D01*
G75*
G02*
X115337500Y-219975000I-250000J0D01*
G01*
X114662500Y-219975000D01*
G75*
G02*
X114412500Y-219725000I0J250000D01*
G01*
G37*
G36*
G01*
X131387500Y-224625000D02*
X131387500Y-225575000D01*
G75*
G02*
X131137500Y-225825000I-250000J0D01*
G01*
X130462500Y-225825000D01*
G75*
G02*
X130212500Y-225575000I0J250000D01*
G01*
X130212500Y-224625000D01*
G75*
G02*
X130462500Y-224375000I250000J0D01*
G01*
X131137500Y-224375000D01*
G75*
G02*
X131387500Y-224625000I0J-250000D01*
G01*
G37*
G36*
G01*
X129312500Y-224625000D02*
X129312500Y-225575000D01*
G75*
G02*
X129062500Y-225825000I-250000J0D01*
G01*
X128387500Y-225825000D01*
G75*
G02*
X128137500Y-225575000I0J250000D01*
G01*
X128137500Y-224625000D01*
G75*
G02*
X128387500Y-224375000I250000J0D01*
G01*
X129062500Y-224375000D01*
G75*
G02*
X129312500Y-224625000I0J-250000D01*
G01*
G37*
G36*
G01*
X113587500Y-225525000D02*
X113587500Y-226475000D01*
G75*
G02*
X113337500Y-226725000I-250000J0D01*
G01*
X112662500Y-226725000D01*
G75*
G02*
X112412500Y-226475000I0J250000D01*
G01*
X112412500Y-225525000D01*
G75*
G02*
X112662500Y-225275000I250000J0D01*
G01*
X113337500Y-225275000D01*
G75*
G02*
X113587500Y-225525000I0J-250000D01*
G01*
G37*
G36*
G01*
X115662500Y-225525000D02*
X115662500Y-226475000D01*
G75*
G02*
X115412500Y-226725000I-250000J0D01*
G01*
X114737500Y-226725000D01*
G75*
G02*
X114487500Y-226475000I0J250000D01*
G01*
X114487500Y-225525000D01*
G75*
G02*
X114737500Y-225275000I250000J0D01*
G01*
X115412500Y-225275000D01*
G75*
G02*
X115662500Y-225525000I0J-250000D01*
G01*
G37*
G36*
G01*
X116712500Y-201375000D02*
X116712500Y-200425000D01*
G75*
G02*
X116962500Y-200175000I250000J0D01*
G01*
X117637500Y-200175000D01*
G75*
G02*
X117887500Y-200425000I0J-250000D01*
G01*
X117887500Y-201375000D01*
G75*
G02*
X117637500Y-201625000I-250000J0D01*
G01*
X116962500Y-201625000D01*
G75*
G02*
X116712500Y-201375000I0J250000D01*
G01*
G37*
G36*
G01*
X114637500Y-201375000D02*
X114637500Y-200425000D01*
G75*
G02*
X114887500Y-200175000I250000J0D01*
G01*
X115562500Y-200175000D01*
G75*
G02*
X115812500Y-200425000I0J-250000D01*
G01*
X115812500Y-201375000D01*
G75*
G02*
X115562500Y-201625000I-250000J0D01*
G01*
X114887500Y-201625000D01*
G75*
G02*
X114637500Y-201375000I0J250000D01*
G01*
G37*
D10*
X135300000Y-198000000D03*
D11*
X132760000Y-198000000D03*
D13*
X132500000Y-232050000D03*
X132500000Y-233950000D03*
X134500000Y-233000000D03*
G36*
G01*
X113600000Y-221049999D02*
X113600000Y-221950001D01*
G75*
G02*
X113350001Y-222200000I-249999J0D01*
G01*
X112649999Y-222200000D01*
G75*
G02*
X112400000Y-221950001I0J249999D01*
G01*
X112400000Y-221049999D01*
G75*
G02*
X112649999Y-220800000I249999J0D01*
G01*
X113350001Y-220800000D01*
G75*
G02*
X113600000Y-221049999I0J-249999D01*
G01*
G37*
G36*
G01*
X115600000Y-221049999D02*
X115600000Y-221950001D01*
G75*
G02*
X115350001Y-222200000I-249999J0D01*
G01*
X114649999Y-222200000D01*
G75*
G02*
X114400000Y-221950001I0J249999D01*
G01*
X114400000Y-221049999D01*
G75*
G02*
X114649999Y-220800000I249999J0D01*
G01*
X115350001Y-220800000D01*
G75*
G02*
X115600000Y-221049999I0J-249999D01*
G01*
G37*
G36*
G01*
X115600000Y-223299999D02*
X115600000Y-224200001D01*
G75*
G02*
X115350001Y-224450000I-249999J0D01*
G01*
X114649999Y-224450000D01*
G75*
G02*
X114400000Y-224200001I0J249999D01*
G01*
X114400000Y-223299999D01*
G75*
G02*
X114649999Y-223050000I249999J0D01*
G01*
X115350001Y-223050000D01*
G75*
G02*
X115600000Y-223299999I0J-249999D01*
G01*
G37*
G36*
G01*
X113600000Y-223299999D02*
X113600000Y-224200001D01*
G75*
G02*
X113350001Y-224450000I-249999J0D01*
G01*
X112649999Y-224450000D01*
G75*
G02*
X112400000Y-224200001I0J249999D01*
G01*
X112400000Y-223299999D01*
G75*
G02*
X112649999Y-223050000I249999J0D01*
G01*
X113350001Y-223050000D01*
G75*
G02*
X113600000Y-223299999I0J-249999D01*
G01*
G37*
G36*
G01*
X118450001Y-212100000D02*
X117549999Y-212100000D01*
G75*
G02*
X117300000Y-211850001I0J249999D01*
G01*
X117300000Y-211149999D01*
G75*
G02*
X117549999Y-210900000I249999J0D01*
G01*
X118450001Y-210900000D01*
G75*
G02*
X118700000Y-211149999I0J-249999D01*
G01*
X118700000Y-211850001D01*
G75*
G02*
X118450001Y-212100000I-249999J0D01*
G01*
G37*
G36*
G01*
X118450001Y-210100000D02*
X117549999Y-210100000D01*
G75*
G02*
X117300000Y-209850001I0J249999D01*
G01*
X117300000Y-209149999D01*
G75*
G02*
X117549999Y-208900000I249999J0D01*
G01*
X118450001Y-208900000D01*
G75*
G02*
X118700000Y-209149999I0J-249999D01*
G01*
X118700000Y-209850001D01*
G75*
G02*
X118450001Y-210100000I-249999J0D01*
G01*
G37*
G36*
G01*
X133049999Y-227400000D02*
X133950001Y-227400000D01*
G75*
G02*
X134200000Y-227649999I0J-249999D01*
G01*
X134200000Y-228350001D01*
G75*
G02*
X133950001Y-228600000I-249999J0D01*
G01*
X133049999Y-228600000D01*
G75*
G02*
X132800000Y-228350001I0J249999D01*
G01*
X132800000Y-227649999D01*
G75*
G02*
X133049999Y-227400000I249999J0D01*
G01*
G37*
G36*
G01*
X133049999Y-229400000D02*
X133950001Y-229400000D01*
G75*
G02*
X134200000Y-229649999I0J-249999D01*
G01*
X134200000Y-230350001D01*
G75*
G02*
X133950001Y-230600000I-249999J0D01*
G01*
X133049999Y-230600000D01*
G75*
G02*
X132800000Y-230350001I0J249999D01*
G01*
X132800000Y-229649999D01*
G75*
G02*
X133049999Y-229400000I249999J0D01*
G01*
G37*
G36*
G01*
X117900000Y-223425000D02*
X117900000Y-223225000D01*
G75*
G02*
X118000000Y-223125000I100000J0D01*
G01*
X119275000Y-223125000D01*
G75*
G02*
X119375000Y-223225000I0J-100000D01*
G01*
X119375000Y-223425000D01*
G75*
G02*
X119275000Y-223525000I-100000J0D01*
G01*
X118000000Y-223525000D01*
G75*
G02*
X117900000Y-223425000I0J100000D01*
G01*
G37*
G36*
G01*
X117900000Y-224075000D02*
X117900000Y-223875000D01*
G75*
G02*
X118000000Y-223775000I100000J0D01*
G01*
X119275000Y-223775000D01*
G75*
G02*
X119375000Y-223875000I0J-100000D01*
G01*
X119375000Y-224075000D01*
G75*
G02*
X119275000Y-224175000I-100000J0D01*
G01*
X118000000Y-224175000D01*
G75*
G02*
X117900000Y-224075000I0J100000D01*
G01*
G37*
G36*
G01*
X117900000Y-224725000D02*
X117900000Y-224525000D01*
G75*
G02*
X118000000Y-224425000I100000J0D01*
G01*
X119275000Y-224425000D01*
G75*
G02*
X119375000Y-224525000I0J-100000D01*
G01*
X119375000Y-224725000D01*
G75*
G02*
X119275000Y-224825000I-100000J0D01*
G01*
X118000000Y-224825000D01*
G75*
G02*
X117900000Y-224725000I0J100000D01*
G01*
G37*
G36*
G01*
X117900000Y-225375000D02*
X117900000Y-225175000D01*
G75*
G02*
X118000000Y-225075000I100000J0D01*
G01*
X119275000Y-225075000D01*
G75*
G02*
X119375000Y-225175000I0J-100000D01*
G01*
X119375000Y-225375000D01*
G75*
G02*
X119275000Y-225475000I-100000J0D01*
G01*
X118000000Y-225475000D01*
G75*
G02*
X117900000Y-225375000I0J100000D01*
G01*
G37*
G36*
G01*
X117900000Y-226025000D02*
X117900000Y-225825000D01*
G75*
G02*
X118000000Y-225725000I100000J0D01*
G01*
X119275000Y-225725000D01*
G75*
G02*
X119375000Y-225825000I0J-100000D01*
G01*
X119375000Y-226025000D01*
G75*
G02*
X119275000Y-226125000I-100000J0D01*
G01*
X118000000Y-226125000D01*
G75*
G02*
X117900000Y-226025000I0J100000D01*
G01*
G37*
G36*
G01*
X117900000Y-226675000D02*
X117900000Y-226475000D01*
G75*
G02*
X118000000Y-226375000I100000J0D01*
G01*
X119275000Y-226375000D01*
G75*
G02*
X119375000Y-226475000I0J-100000D01*
G01*
X119375000Y-226675000D01*
G75*
G02*
X119275000Y-226775000I-100000J0D01*
G01*
X118000000Y-226775000D01*
G75*
G02*
X117900000Y-226675000I0J100000D01*
G01*
G37*
G36*
G01*
X117900000Y-227325000D02*
X117900000Y-227125000D01*
G75*
G02*
X118000000Y-227025000I100000J0D01*
G01*
X119275000Y-227025000D01*
G75*
G02*
X119375000Y-227125000I0J-100000D01*
G01*
X119375000Y-227325000D01*
G75*
G02*
X119275000Y-227425000I-100000J0D01*
G01*
X118000000Y-227425000D01*
G75*
G02*
X117900000Y-227325000I0J100000D01*
G01*
G37*
G36*
G01*
X117900000Y-227975000D02*
X117900000Y-227775000D01*
G75*
G02*
X118000000Y-227675000I100000J0D01*
G01*
X119275000Y-227675000D01*
G75*
G02*
X119375000Y-227775000I0J-100000D01*
G01*
X119375000Y-227975000D01*
G75*
G02*
X119275000Y-228075000I-100000J0D01*
G01*
X118000000Y-228075000D01*
G75*
G02*
X117900000Y-227975000I0J100000D01*
G01*
G37*
G36*
G01*
X117900000Y-228625000D02*
X117900000Y-228425000D01*
G75*
G02*
X118000000Y-228325000I100000J0D01*
G01*
X119275000Y-228325000D01*
G75*
G02*
X119375000Y-228425000I0J-100000D01*
G01*
X119375000Y-228625000D01*
G75*
G02*
X119275000Y-228725000I-100000J0D01*
G01*
X118000000Y-228725000D01*
G75*
G02*
X117900000Y-228625000I0J100000D01*
G01*
G37*
G36*
G01*
X117900000Y-229275000D02*
X117900000Y-229075000D01*
G75*
G02*
X118000000Y-228975000I100000J0D01*
G01*
X119275000Y-228975000D01*
G75*
G02*
X119375000Y-229075000I0J-100000D01*
G01*
X119375000Y-229275000D01*
G75*
G02*
X119275000Y-229375000I-100000J0D01*
G01*
X118000000Y-229375000D01*
G75*
G02*
X117900000Y-229275000I0J100000D01*
G01*
G37*
G36*
G01*
X123625000Y-229275000D02*
X123625000Y-229075000D01*
G75*
G02*
X123725000Y-228975000I100000J0D01*
G01*
X125000000Y-228975000D01*
G75*
G02*
X125100000Y-229075000I0J-100000D01*
G01*
X125100000Y-229275000D01*
G75*
G02*
X125000000Y-229375000I-100000J0D01*
G01*
X123725000Y-229375000D01*
G75*
G02*
X123625000Y-229275000I0J100000D01*
G01*
G37*
G36*
G01*
X123625000Y-228625000D02*
X123625000Y-228425000D01*
G75*
G02*
X123725000Y-228325000I100000J0D01*
G01*
X125000000Y-228325000D01*
G75*
G02*
X125100000Y-228425000I0J-100000D01*
G01*
X125100000Y-228625000D01*
G75*
G02*
X125000000Y-228725000I-100000J0D01*
G01*
X123725000Y-228725000D01*
G75*
G02*
X123625000Y-228625000I0J100000D01*
G01*
G37*
G36*
G01*
X123625000Y-227975000D02*
X123625000Y-227775000D01*
G75*
G02*
X123725000Y-227675000I100000J0D01*
G01*
X125000000Y-227675000D01*
G75*
G02*
X125100000Y-227775000I0J-100000D01*
G01*
X125100000Y-227975000D01*
G75*
G02*
X125000000Y-228075000I-100000J0D01*
G01*
X123725000Y-228075000D01*
G75*
G02*
X123625000Y-227975000I0J100000D01*
G01*
G37*
G36*
G01*
X123625000Y-227325000D02*
X123625000Y-227125000D01*
G75*
G02*
X123725000Y-227025000I100000J0D01*
G01*
X125000000Y-227025000D01*
G75*
G02*
X125100000Y-227125000I0J-100000D01*
G01*
X125100000Y-227325000D01*
G75*
G02*
X125000000Y-227425000I-100000J0D01*
G01*
X123725000Y-227425000D01*
G75*
G02*
X123625000Y-227325000I0J100000D01*
G01*
G37*
G36*
G01*
X123625000Y-226675000D02*
X123625000Y-226475000D01*
G75*
G02*
X123725000Y-226375000I100000J0D01*
G01*
X125000000Y-226375000D01*
G75*
G02*
X125100000Y-226475000I0J-100000D01*
G01*
X125100000Y-226675000D01*
G75*
G02*
X125000000Y-226775000I-100000J0D01*
G01*
X123725000Y-226775000D01*
G75*
G02*
X123625000Y-226675000I0J100000D01*
G01*
G37*
G36*
G01*
X123625000Y-226025000D02*
X123625000Y-225825000D01*
G75*
G02*
X123725000Y-225725000I100000J0D01*
G01*
X125000000Y-225725000D01*
G75*
G02*
X125100000Y-225825000I0J-100000D01*
G01*
X125100000Y-226025000D01*
G75*
G02*
X125000000Y-226125000I-100000J0D01*
G01*
X123725000Y-226125000D01*
G75*
G02*
X123625000Y-226025000I0J100000D01*
G01*
G37*
G36*
G01*
X123625000Y-225375000D02*
X123625000Y-225175000D01*
G75*
G02*
X123725000Y-225075000I100000J0D01*
G01*
X125000000Y-225075000D01*
G75*
G02*
X125100000Y-225175000I0J-100000D01*
G01*
X125100000Y-225375000D01*
G75*
G02*
X125000000Y-225475000I-100000J0D01*
G01*
X123725000Y-225475000D01*
G75*
G02*
X123625000Y-225375000I0J100000D01*
G01*
G37*
G36*
G01*
X123625000Y-224725000D02*
X123625000Y-224525000D01*
G75*
G02*
X123725000Y-224425000I100000J0D01*
G01*
X125000000Y-224425000D01*
G75*
G02*
X125100000Y-224525000I0J-100000D01*
G01*
X125100000Y-224725000D01*
G75*
G02*
X125000000Y-224825000I-100000J0D01*
G01*
X123725000Y-224825000D01*
G75*
G02*
X123625000Y-224725000I0J100000D01*
G01*
G37*
G36*
G01*
X123625000Y-224075000D02*
X123625000Y-223875000D01*
G75*
G02*
X123725000Y-223775000I100000J0D01*
G01*
X125000000Y-223775000D01*
G75*
G02*
X125100000Y-223875000I0J-100000D01*
G01*
X125100000Y-224075000D01*
G75*
G02*
X125000000Y-224175000I-100000J0D01*
G01*
X123725000Y-224175000D01*
G75*
G02*
X123625000Y-224075000I0J100000D01*
G01*
G37*
G36*
G01*
X123625000Y-223425000D02*
X123625000Y-223225000D01*
G75*
G02*
X123725000Y-223125000I100000J0D01*
G01*
X125000000Y-223125000D01*
G75*
G02*
X125100000Y-223225000I0J-100000D01*
G01*
X125100000Y-223425000D01*
G75*
G02*
X125000000Y-223525000I-100000J0D01*
G01*
X123725000Y-223525000D01*
G75*
G02*
X123625000Y-223425000I0J100000D01*
G01*
G37*
G36*
G01*
X135950000Y-217950000D02*
X135950000Y-216850000D01*
G75*
G02*
X136200000Y-216600000I250000J0D01*
G01*
X139200000Y-216600000D01*
G75*
G02*
X139450000Y-216850000I0J-250000D01*
G01*
X139450000Y-217950000D01*
G75*
G02*
X139200000Y-218200000I-250000J0D01*
G01*
X136200000Y-218200000D01*
G75*
G02*
X135950000Y-217950000I0J250000D01*
G01*
G37*
G36*
G01*
X130550000Y-217950000D02*
X130550000Y-216850000D01*
G75*
G02*
X130800000Y-216600000I250000J0D01*
G01*
X133800000Y-216600000D01*
G75*
G02*
X134050000Y-216850000I0J-250000D01*
G01*
X134050000Y-217950000D01*
G75*
G02*
X133800000Y-218200000I-250000J0D01*
G01*
X130800000Y-218200000D01*
G75*
G02*
X130550000Y-217950000I0J250000D01*
G01*
G37*
G36*
G01*
X120950000Y-200050000D02*
X122050000Y-200050000D01*
G75*
G02*
X122300000Y-200300000I0J-250000D01*
G01*
X122300000Y-203300000D01*
G75*
G02*
X122050000Y-203550000I-250000J0D01*
G01*
X120950000Y-203550000D01*
G75*
G02*
X120700000Y-203300000I0J250000D01*
G01*
X120700000Y-200300000D01*
G75*
G02*
X120950000Y-200050000I250000J0D01*
G01*
G37*
G36*
G01*
X120950000Y-205450000D02*
X122050000Y-205450000D01*
G75*
G02*
X122300000Y-205700000I0J-250000D01*
G01*
X122300000Y-208700000D01*
G75*
G02*
X122050000Y-208950000I-250000J0D01*
G01*
X120950000Y-208950000D01*
G75*
G02*
X120700000Y-208700000I0J250000D01*
G01*
X120700000Y-205700000D01*
G75*
G02*
X120950000Y-205450000I250000J0D01*
G01*
G37*
G36*
G01*
X132950000Y-235550000D02*
X134050000Y-235550000D01*
G75*
G02*
X134300000Y-235800000I0J-250000D01*
G01*
X134300000Y-238800000D01*
G75*
G02*
X134050000Y-239050000I-250000J0D01*
G01*
X132950000Y-239050000D01*
G75*
G02*
X132700000Y-238800000I0J250000D01*
G01*
X132700000Y-235800000D01*
G75*
G02*
X132950000Y-235550000I250000J0D01*
G01*
G37*
G36*
G01*
X132950000Y-240950000D02*
X134050000Y-240950000D01*
G75*
G02*
X134300000Y-241200000I0J-250000D01*
G01*
X134300000Y-244200000D01*
G75*
G02*
X134050000Y-244450000I-250000J0D01*
G01*
X132950000Y-244450000D01*
G75*
G02*
X132700000Y-244200000I0J250000D01*
G01*
X132700000Y-241200000D01*
G75*
G02*
X132950000Y-240950000I250000J0D01*
G01*
G37*
D14*
X112200000Y-210800000D03*
X107700000Y-210800000D03*
X112200000Y-204300000D03*
X107700000Y-204300000D03*
G36*
G01*
X113550000Y-227775000D02*
X113550000Y-228725000D01*
G75*
G02*
X113300000Y-228975000I-250000J0D01*
G01*
X112625000Y-228975000D01*
G75*
G02*
X112375000Y-228725000I0J250000D01*
G01*
X112375000Y-227775000D01*
G75*
G02*
X112625000Y-227525000I250000J0D01*
G01*
X113300000Y-227525000D01*
G75*
G02*
X113550000Y-227775000I0J-250000D01*
G01*
G37*
G36*
G01*
X115625000Y-227775000D02*
X115625000Y-228725000D01*
G75*
G02*
X115375000Y-228975000I-250000J0D01*
G01*
X114700000Y-228975000D01*
G75*
G02*
X114450000Y-228725000I0J250000D01*
G01*
X114450000Y-227775000D01*
G75*
G02*
X114700000Y-227525000I250000J0D01*
G01*
X115375000Y-227525000D01*
G75*
G02*
X115625000Y-227775000I0J-250000D01*
G01*
G37*
G36*
G01*
X138275000Y-202900000D02*
X140925000Y-202900000D01*
G75*
G02*
X141175000Y-203150000I0J-250000D01*
G01*
X141175000Y-204650000D01*
G75*
G02*
X140925000Y-204900000I-250000J0D01*
G01*
X138275000Y-204900000D01*
G75*
G02*
X138025000Y-204650000I0J250000D01*
G01*
X138025000Y-203150000D01*
G75*
G02*
X138275000Y-202900000I250000J0D01*
G01*
G37*
G36*
G01*
X138275000Y-207800000D02*
X140925000Y-207800000D01*
G75*
G02*
X141175000Y-208050000I0J-250000D01*
G01*
X141175000Y-209550000D01*
G75*
G02*
X140925000Y-209800000I-250000J0D01*
G01*
X138275000Y-209800000D01*
G75*
G02*
X138025000Y-209550000I0J250000D01*
G01*
X138025000Y-208050000D01*
G75*
G02*
X138275000Y-207800000I250000J0D01*
G01*
G37*
D12*
X108000000Y-242000000D03*
X141000000Y-199000000D03*
X141000000Y-242000000D03*
D15*
X133400000Y-202200000D03*
X133400000Y-206800000D03*
X133400000Y-211400000D03*
D16*
X108750000Y-219000000D03*
X108750000Y-227500000D03*
D10*
X127400000Y-197600000D03*
D11*
X124860000Y-197600000D03*
X122320000Y-197600000D03*
X119780000Y-197600000D03*
X117240000Y-197600000D03*
X114700000Y-197600000D03*
M02*
