M48
; DRILL file {KiCad 5.1.9-73d0e3b20d~88~ubuntu18.04.1} date Sun Jan 31 19:14:48 2021
; FORMAT={-:-/ absolute / inch / decimal}
; #@! TF.CreationDate,2021-01-31T19:14:48+01:00
; #@! TF.GenerationSoftware,Kicad,Pcbnew,5.1.9-73d0e3b20d~88~ubuntu18.04.1
; #@! TF.FileFunction,Plated,1,2,PTH
FMAT,2
INCH
T1C0.0157
T2C0.0315
T3C0.0394
T4C0.0433
T5C0.1260
%
G90
G05
T1
X4.1535Y-8.6614
X4.1535Y-8.9567
X4.1732Y-8.1693
X4.1732Y-8.4449
X4.1732Y-9.1535
X4.3406Y-8.7795
X4.3602Y-9.2126
X4.4094Y-8.5433
X4.4193Y-9.0551
X4.4882Y-8.1398
X4.4882Y-8.2283
X4.5276Y-8.0118
X4.5472Y-9.311
X4.6017Y-9.0197
X4.6024Y-8.9724
X4.6063Y-8.6417
X4.626Y-9.6063
X4.6339Y-8.7087
X4.6378Y-8.4961
X4.6752Y-8.1398
X4.7126Y-9.1339
X4.7244Y-8.6417
X4.7283Y-8.2598
X4.748Y-9.0709
X4.7815Y-8.8091
X4.7933Y-8.6516
X4.8228Y-8.3366
X4.8583Y-9.6063
X4.8622Y-7.8543
X4.872Y-8.2087
X4.9055Y-9.1339
X4.9409Y-9.2795
X4.9606Y-8.126
X4.9606Y-8.3228
X4.9724Y-9.3189
X5.0157Y-8.1732
X5.0157Y-8.252
X5.0335Y-9.0945
X5.0669Y-8.4134
X5.0689Y-8.3169
X5.0787Y-9.2913
X5.0984Y-8.6024
X5.1181Y-7.8543
X5.1181Y-7.9626
X5.128Y-7.7559
X5.128Y-8.1594
X5.1378Y-9.6063
X5.1516Y-9.0945
X5.2756Y-8.7795
X5.374Y-9.5472
X5.5217Y-8.1201
T2
X4.1929Y-9.2913
X4.2323Y-8.7992
X4.3307Y-8.1693
X4.3898Y-9.3307
X4.4291Y-7.874
X4.4685Y-9.4882
X4.7736Y-8.7303
X5.0591Y-8.9567
X5.4331Y-9.3504
X5.4528Y-8.3661
X5.4528Y-8.9567
X5.4528Y-9.1535
X5.4823Y-8.7008
X5.5512Y-9.252
X5.5906Y-8.4646
X5.5906Y-8.6614
X5.5906Y-8.8583
X5.5906Y-9.0551
X5.6299Y-8.0709
X5.6299Y-8.2677
T3
X4.5157Y-7.7795
X4.5276Y-9.2126
X4.6094Y-9.4118
X4.6094Y-9.5118
X4.6157Y-7.7795
X4.7094Y-9.4118
X4.7094Y-9.5118
X4.7157Y-7.7795
X4.7488Y-8.5472
X4.8031Y-8.8976
X4.8094Y-9.4118
X4.8094Y-9.5118
X4.8157Y-7.7795
X4.8488Y-8.5472
X4.9094Y-9.4118
X4.9094Y-9.5118
X4.9157Y-7.7795
X4.9488Y-8.5472
X5.0157Y-7.7795
X5.0965Y-9.2087
X5.2268Y-7.7953
X5.3268Y-7.7953
T4
X4.2402Y-8.0433
X4.2402Y-8.2992
X4.4173Y-8.0433
X4.4173Y-8.2992
T5
X4.252Y-7.8346
X4.252Y-9.5276
X5.5512Y-7.8346
X5.5512Y-9.5276
T2
G00X5.2264Y-7.9606
M15
G01X5.2776Y-7.9606
M16
G05
G00X5.2264Y-8.1417
M15
G01X5.2776Y-8.1417
M16
G05
G00X5.2264Y-8.3228
M15
G01X5.2776Y-8.3228
M16
G05
T0
M30
