G04 #@! TF.GenerationSoftware,KiCad,Pcbnew,5.1.9-73d0e3b20d~88~ubuntu18.04.1*
G04 #@! TF.CreationDate,2021-01-31T19:14:37+01:00*
G04 #@! TF.ProjectId,stm32_master_bt_bat,73746d33-325f-46d6-9173-7465725f6274,rev?*
G04 #@! TF.SameCoordinates,Original*
G04 #@! TF.FileFunction,Copper,L1,Top*
G04 #@! TF.FilePolarity,Positive*
%FSLAX46Y46*%
G04 Gerber Fmt 4.6, Leading zero omitted, Abs format (unit mm)*
G04 Created by KiCad (PCBNEW 5.1.9-73d0e3b20d~88~ubuntu18.04.1) date 2021-01-31 19:14:37*
%MOMM*%
%LPD*%
G01*
G04 APERTURE LIST*
G04 #@! TA.AperFunction,ComponentPad*
%ADD10R,1.700000X1.700000*%
G04 #@! TD*
G04 #@! TA.AperFunction,ComponentPad*
%ADD11O,1.700000X1.700000*%
G04 #@! TD*
G04 #@! TA.AperFunction,ComponentPad*
%ADD12C,5.600000*%
G04 #@! TD*
G04 #@! TA.AperFunction,SMDPad,CuDef*
%ADD13R,0.900000X0.800000*%
G04 #@! TD*
G04 #@! TA.AperFunction,ComponentPad*
%ADD14C,2.000000*%
G04 #@! TD*
G04 #@! TA.AperFunction,ComponentPad*
%ADD15O,3.000000X2.000000*%
G04 #@! TD*
G04 #@! TA.AperFunction,SMDPad,CuDef*
%ADD16R,2.000000X4.500000*%
G04 #@! TD*
G04 #@! TA.AperFunction,ViaPad*
%ADD17C,0.800000*%
G04 #@! TD*
G04 #@! TA.AperFunction,ViaPad*
%ADD18C,1.600000*%
G04 #@! TD*
G04 #@! TA.AperFunction,ViaPad*
%ADD19C,2.000000*%
G04 #@! TD*
G04 #@! TA.AperFunction,Conductor*
%ADD20C,0.400000*%
G04 #@! TD*
G04 #@! TA.AperFunction,Conductor*
%ADD21C,1.150000*%
G04 #@! TD*
G04 #@! TA.AperFunction,Conductor*
%ADD22C,0.254000*%
G04 #@! TD*
G04 #@! TA.AperFunction,Conductor*
%ADD23C,0.100000*%
G04 #@! TD*
G04 APERTURE END LIST*
D10*
X125700000Y-217100000D03*
D11*
X123160000Y-217100000D03*
X120620000Y-217100000D03*
D12*
X108000000Y-199000000D03*
G04 #@! TA.AperFunction,SMDPad,CuDef*
G36*
G01*
X131375000Y-222125000D02*
X131375000Y-223075000D01*
G75*
G02*
X131125000Y-223325000I-250000J0D01*
G01*
X130450000Y-223325000D01*
G75*
G02*
X130200000Y-223075000I0J250000D01*
G01*
X130200000Y-222125000D01*
G75*
G02*
X130450000Y-221875000I250000J0D01*
G01*
X131125000Y-221875000D01*
G75*
G02*
X131375000Y-222125000I0J-250000D01*
G01*
G37*
G04 #@! TD.AperFunction*
G04 #@! TA.AperFunction,SMDPad,CuDef*
G36*
G01*
X129300000Y-222125000D02*
X129300000Y-223075000D01*
G75*
G02*
X129050000Y-223325000I-250000J0D01*
G01*
X128375000Y-223325000D01*
G75*
G02*
X128125000Y-223075000I0J250000D01*
G01*
X128125000Y-222125000D01*
G75*
G02*
X128375000Y-221875000I250000J0D01*
G01*
X129050000Y-221875000D01*
G75*
G02*
X129300000Y-222125000I0J-250000D01*
G01*
G37*
G04 #@! TD.AperFunction*
G04 #@! TA.AperFunction,SMDPad,CuDef*
G36*
G01*
X128275000Y-243687500D02*
X127325000Y-243687500D01*
G75*
G02*
X127075000Y-243437500I0J250000D01*
G01*
X127075000Y-242762500D01*
G75*
G02*
X127325000Y-242512500I250000J0D01*
G01*
X128275000Y-242512500D01*
G75*
G02*
X128525000Y-242762500I0J-250000D01*
G01*
X128525000Y-243437500D01*
G75*
G02*
X128275000Y-243687500I-250000J0D01*
G01*
G37*
G04 #@! TD.AperFunction*
G04 #@! TA.AperFunction,SMDPad,CuDef*
G36*
G01*
X128275000Y-241612500D02*
X127325000Y-241612500D01*
G75*
G02*
X127075000Y-241362500I0J250000D01*
G01*
X127075000Y-240687500D01*
G75*
G02*
X127325000Y-240437500I250000J0D01*
G01*
X128275000Y-240437500D01*
G75*
G02*
X128525000Y-240687500I0J-250000D01*
G01*
X128525000Y-241362500D01*
G75*
G02*
X128275000Y-241612500I-250000J0D01*
G01*
G37*
G04 #@! TD.AperFunction*
D10*
X124700000Y-241600000D03*
D11*
X124700000Y-239060000D03*
X122160000Y-241600000D03*
X122160000Y-239060000D03*
X119620000Y-241600000D03*
X119620000Y-239060000D03*
X117080000Y-241600000D03*
X117080000Y-239060000D03*
G04 #@! TA.AperFunction,SMDPad,CuDef*
G36*
G01*
X110212500Y-215475000D02*
X110212500Y-214525000D01*
G75*
G02*
X110462500Y-214275000I250000J0D01*
G01*
X111137500Y-214275000D01*
G75*
G02*
X111387500Y-214525000I0J-250000D01*
G01*
X111387500Y-215475000D01*
G75*
G02*
X111137500Y-215725000I-250000J0D01*
G01*
X110462500Y-215725000D01*
G75*
G02*
X110212500Y-215475000I0J250000D01*
G01*
G37*
G04 #@! TD.AperFunction*
G04 #@! TA.AperFunction,SMDPad,CuDef*
G36*
G01*
X108137500Y-215475000D02*
X108137500Y-214525000D01*
G75*
G02*
X108387500Y-214275000I250000J0D01*
G01*
X109062500Y-214275000D01*
G75*
G02*
X109312500Y-214525000I0J-250000D01*
G01*
X109312500Y-215475000D01*
G75*
G02*
X109062500Y-215725000I-250000J0D01*
G01*
X108387500Y-215725000D01*
G75*
G02*
X108137500Y-215475000I0J250000D01*
G01*
G37*
G04 #@! TD.AperFunction*
G04 #@! TA.AperFunction,SMDPad,CuDef*
G36*
G01*
X108125000Y-231975000D02*
X108125000Y-231025000D01*
G75*
G02*
X108375000Y-230775000I250000J0D01*
G01*
X109050000Y-230775000D01*
G75*
G02*
X109300000Y-231025000I0J-250000D01*
G01*
X109300000Y-231975000D01*
G75*
G02*
X109050000Y-232225000I-250000J0D01*
G01*
X108375000Y-232225000D01*
G75*
G02*
X108125000Y-231975000I0J250000D01*
G01*
G37*
G04 #@! TD.AperFunction*
G04 #@! TA.AperFunction,SMDPad,CuDef*
G36*
G01*
X110200000Y-231975000D02*
X110200000Y-231025000D01*
G75*
G02*
X110450000Y-230775000I250000J0D01*
G01*
X111125000Y-230775000D01*
G75*
G02*
X111375000Y-231025000I0J-250000D01*
G01*
X111375000Y-231975000D01*
G75*
G02*
X111125000Y-232225000I-250000J0D01*
G01*
X110450000Y-232225000D01*
G75*
G02*
X110200000Y-231975000I0J250000D01*
G01*
G37*
G04 #@! TD.AperFunction*
G04 #@! TA.AperFunction,SMDPad,CuDef*
G36*
G01*
X112337500Y-219725000D02*
X112337500Y-218775000D01*
G75*
G02*
X112587500Y-218525000I250000J0D01*
G01*
X113262500Y-218525000D01*
G75*
G02*
X113512500Y-218775000I0J-250000D01*
G01*
X113512500Y-219725000D01*
G75*
G02*
X113262500Y-219975000I-250000J0D01*
G01*
X112587500Y-219975000D01*
G75*
G02*
X112337500Y-219725000I0J250000D01*
G01*
G37*
G04 #@! TD.AperFunction*
G04 #@! TA.AperFunction,SMDPad,CuDef*
G36*
G01*
X114412500Y-219725000D02*
X114412500Y-218775000D01*
G75*
G02*
X114662500Y-218525000I250000J0D01*
G01*
X115337500Y-218525000D01*
G75*
G02*
X115587500Y-218775000I0J-250000D01*
G01*
X115587500Y-219725000D01*
G75*
G02*
X115337500Y-219975000I-250000J0D01*
G01*
X114662500Y-219975000D01*
G75*
G02*
X114412500Y-219725000I0J250000D01*
G01*
G37*
G04 #@! TD.AperFunction*
G04 #@! TA.AperFunction,SMDPad,CuDef*
G36*
G01*
X131387500Y-224625000D02*
X131387500Y-225575000D01*
G75*
G02*
X131137500Y-225825000I-250000J0D01*
G01*
X130462500Y-225825000D01*
G75*
G02*
X130212500Y-225575000I0J250000D01*
G01*
X130212500Y-224625000D01*
G75*
G02*
X130462500Y-224375000I250000J0D01*
G01*
X131137500Y-224375000D01*
G75*
G02*
X131387500Y-224625000I0J-250000D01*
G01*
G37*
G04 #@! TD.AperFunction*
G04 #@! TA.AperFunction,SMDPad,CuDef*
G36*
G01*
X129312500Y-224625000D02*
X129312500Y-225575000D01*
G75*
G02*
X129062500Y-225825000I-250000J0D01*
G01*
X128387500Y-225825000D01*
G75*
G02*
X128137500Y-225575000I0J250000D01*
G01*
X128137500Y-224625000D01*
G75*
G02*
X128387500Y-224375000I250000J0D01*
G01*
X129062500Y-224375000D01*
G75*
G02*
X129312500Y-224625000I0J-250000D01*
G01*
G37*
G04 #@! TD.AperFunction*
G04 #@! TA.AperFunction,SMDPad,CuDef*
G36*
G01*
X113587500Y-225525000D02*
X113587500Y-226475000D01*
G75*
G02*
X113337500Y-226725000I-250000J0D01*
G01*
X112662500Y-226725000D01*
G75*
G02*
X112412500Y-226475000I0J250000D01*
G01*
X112412500Y-225525000D01*
G75*
G02*
X112662500Y-225275000I250000J0D01*
G01*
X113337500Y-225275000D01*
G75*
G02*
X113587500Y-225525000I0J-250000D01*
G01*
G37*
G04 #@! TD.AperFunction*
G04 #@! TA.AperFunction,SMDPad,CuDef*
G36*
G01*
X115662500Y-225525000D02*
X115662500Y-226475000D01*
G75*
G02*
X115412500Y-226725000I-250000J0D01*
G01*
X114737500Y-226725000D01*
G75*
G02*
X114487500Y-226475000I0J250000D01*
G01*
X114487500Y-225525000D01*
G75*
G02*
X114737500Y-225275000I250000J0D01*
G01*
X115412500Y-225275000D01*
G75*
G02*
X115662500Y-225525000I0J-250000D01*
G01*
G37*
G04 #@! TD.AperFunction*
G04 #@! TA.AperFunction,SMDPad,CuDef*
G36*
G01*
X116712500Y-201375000D02*
X116712500Y-200425000D01*
G75*
G02*
X116962500Y-200175000I250000J0D01*
G01*
X117637500Y-200175000D01*
G75*
G02*
X117887500Y-200425000I0J-250000D01*
G01*
X117887500Y-201375000D01*
G75*
G02*
X117637500Y-201625000I-250000J0D01*
G01*
X116962500Y-201625000D01*
G75*
G02*
X116712500Y-201375000I0J250000D01*
G01*
G37*
G04 #@! TD.AperFunction*
G04 #@! TA.AperFunction,SMDPad,CuDef*
G36*
G01*
X114637500Y-201375000D02*
X114637500Y-200425000D01*
G75*
G02*
X114887500Y-200175000I250000J0D01*
G01*
X115562500Y-200175000D01*
G75*
G02*
X115812500Y-200425000I0J-250000D01*
G01*
X115812500Y-201375000D01*
G75*
G02*
X115562500Y-201625000I-250000J0D01*
G01*
X114887500Y-201625000D01*
G75*
G02*
X114637500Y-201375000I0J250000D01*
G01*
G37*
G04 #@! TD.AperFunction*
D10*
X135300000Y-198000000D03*
D11*
X132760000Y-198000000D03*
D13*
X132500000Y-232050000D03*
X132500000Y-233950000D03*
X134500000Y-233000000D03*
G04 #@! TA.AperFunction,SMDPad,CuDef*
G36*
G01*
X113600000Y-221049999D02*
X113600000Y-221950001D01*
G75*
G02*
X113350001Y-222200000I-249999J0D01*
G01*
X112649999Y-222200000D01*
G75*
G02*
X112400000Y-221950001I0J249999D01*
G01*
X112400000Y-221049999D01*
G75*
G02*
X112649999Y-220800000I249999J0D01*
G01*
X113350001Y-220800000D01*
G75*
G02*
X113600000Y-221049999I0J-249999D01*
G01*
G37*
G04 #@! TD.AperFunction*
G04 #@! TA.AperFunction,SMDPad,CuDef*
G36*
G01*
X115600000Y-221049999D02*
X115600000Y-221950001D01*
G75*
G02*
X115350001Y-222200000I-249999J0D01*
G01*
X114649999Y-222200000D01*
G75*
G02*
X114400000Y-221950001I0J249999D01*
G01*
X114400000Y-221049999D01*
G75*
G02*
X114649999Y-220800000I249999J0D01*
G01*
X115350001Y-220800000D01*
G75*
G02*
X115600000Y-221049999I0J-249999D01*
G01*
G37*
G04 #@! TD.AperFunction*
G04 #@! TA.AperFunction,SMDPad,CuDef*
G36*
G01*
X115600000Y-223299999D02*
X115600000Y-224200001D01*
G75*
G02*
X115350001Y-224450000I-249999J0D01*
G01*
X114649999Y-224450000D01*
G75*
G02*
X114400000Y-224200001I0J249999D01*
G01*
X114400000Y-223299999D01*
G75*
G02*
X114649999Y-223050000I249999J0D01*
G01*
X115350001Y-223050000D01*
G75*
G02*
X115600000Y-223299999I0J-249999D01*
G01*
G37*
G04 #@! TD.AperFunction*
G04 #@! TA.AperFunction,SMDPad,CuDef*
G36*
G01*
X113600000Y-223299999D02*
X113600000Y-224200001D01*
G75*
G02*
X113350001Y-224450000I-249999J0D01*
G01*
X112649999Y-224450000D01*
G75*
G02*
X112400000Y-224200001I0J249999D01*
G01*
X112400000Y-223299999D01*
G75*
G02*
X112649999Y-223050000I249999J0D01*
G01*
X113350001Y-223050000D01*
G75*
G02*
X113600000Y-223299999I0J-249999D01*
G01*
G37*
G04 #@! TD.AperFunction*
G04 #@! TA.AperFunction,SMDPad,CuDef*
G36*
G01*
X118450001Y-212100000D02*
X117549999Y-212100000D01*
G75*
G02*
X117300000Y-211850001I0J249999D01*
G01*
X117300000Y-211149999D01*
G75*
G02*
X117549999Y-210900000I249999J0D01*
G01*
X118450001Y-210900000D01*
G75*
G02*
X118700000Y-211149999I0J-249999D01*
G01*
X118700000Y-211850001D01*
G75*
G02*
X118450001Y-212100000I-249999J0D01*
G01*
G37*
G04 #@! TD.AperFunction*
G04 #@! TA.AperFunction,SMDPad,CuDef*
G36*
G01*
X118450001Y-210100000D02*
X117549999Y-210100000D01*
G75*
G02*
X117300000Y-209850001I0J249999D01*
G01*
X117300000Y-209149999D01*
G75*
G02*
X117549999Y-208900000I249999J0D01*
G01*
X118450001Y-208900000D01*
G75*
G02*
X118700000Y-209149999I0J-249999D01*
G01*
X118700000Y-209850001D01*
G75*
G02*
X118450001Y-210100000I-249999J0D01*
G01*
G37*
G04 #@! TD.AperFunction*
G04 #@! TA.AperFunction,SMDPad,CuDef*
G36*
G01*
X133049999Y-227400000D02*
X133950001Y-227400000D01*
G75*
G02*
X134200000Y-227649999I0J-249999D01*
G01*
X134200000Y-228350001D01*
G75*
G02*
X133950001Y-228600000I-249999J0D01*
G01*
X133049999Y-228600000D01*
G75*
G02*
X132800000Y-228350001I0J249999D01*
G01*
X132800000Y-227649999D01*
G75*
G02*
X133049999Y-227400000I249999J0D01*
G01*
G37*
G04 #@! TD.AperFunction*
G04 #@! TA.AperFunction,SMDPad,CuDef*
G36*
G01*
X133049999Y-229400000D02*
X133950001Y-229400000D01*
G75*
G02*
X134200000Y-229649999I0J-249999D01*
G01*
X134200000Y-230350001D01*
G75*
G02*
X133950001Y-230600000I-249999J0D01*
G01*
X133049999Y-230600000D01*
G75*
G02*
X132800000Y-230350001I0J249999D01*
G01*
X132800000Y-229649999D01*
G75*
G02*
X133049999Y-229400000I249999J0D01*
G01*
G37*
G04 #@! TD.AperFunction*
G04 #@! TA.AperFunction,SMDPad,CuDef*
G36*
G01*
X117900000Y-223425000D02*
X117900000Y-223225000D01*
G75*
G02*
X118000000Y-223125000I100000J0D01*
G01*
X119275000Y-223125000D01*
G75*
G02*
X119375000Y-223225000I0J-100000D01*
G01*
X119375000Y-223425000D01*
G75*
G02*
X119275000Y-223525000I-100000J0D01*
G01*
X118000000Y-223525000D01*
G75*
G02*
X117900000Y-223425000I0J100000D01*
G01*
G37*
G04 #@! TD.AperFunction*
G04 #@! TA.AperFunction,SMDPad,CuDef*
G36*
G01*
X117900000Y-224075000D02*
X117900000Y-223875000D01*
G75*
G02*
X118000000Y-223775000I100000J0D01*
G01*
X119275000Y-223775000D01*
G75*
G02*
X119375000Y-223875000I0J-100000D01*
G01*
X119375000Y-224075000D01*
G75*
G02*
X119275000Y-224175000I-100000J0D01*
G01*
X118000000Y-224175000D01*
G75*
G02*
X117900000Y-224075000I0J100000D01*
G01*
G37*
G04 #@! TD.AperFunction*
G04 #@! TA.AperFunction,SMDPad,CuDef*
G36*
G01*
X117900000Y-224725000D02*
X117900000Y-224525000D01*
G75*
G02*
X118000000Y-224425000I100000J0D01*
G01*
X119275000Y-224425000D01*
G75*
G02*
X119375000Y-224525000I0J-100000D01*
G01*
X119375000Y-224725000D01*
G75*
G02*
X119275000Y-224825000I-100000J0D01*
G01*
X118000000Y-224825000D01*
G75*
G02*
X117900000Y-224725000I0J100000D01*
G01*
G37*
G04 #@! TD.AperFunction*
G04 #@! TA.AperFunction,SMDPad,CuDef*
G36*
G01*
X117900000Y-225375000D02*
X117900000Y-225175000D01*
G75*
G02*
X118000000Y-225075000I100000J0D01*
G01*
X119275000Y-225075000D01*
G75*
G02*
X119375000Y-225175000I0J-100000D01*
G01*
X119375000Y-225375000D01*
G75*
G02*
X119275000Y-225475000I-100000J0D01*
G01*
X118000000Y-225475000D01*
G75*
G02*
X117900000Y-225375000I0J100000D01*
G01*
G37*
G04 #@! TD.AperFunction*
G04 #@! TA.AperFunction,SMDPad,CuDef*
G36*
G01*
X117900000Y-226025000D02*
X117900000Y-225825000D01*
G75*
G02*
X118000000Y-225725000I100000J0D01*
G01*
X119275000Y-225725000D01*
G75*
G02*
X119375000Y-225825000I0J-100000D01*
G01*
X119375000Y-226025000D01*
G75*
G02*
X119275000Y-226125000I-100000J0D01*
G01*
X118000000Y-226125000D01*
G75*
G02*
X117900000Y-226025000I0J100000D01*
G01*
G37*
G04 #@! TD.AperFunction*
G04 #@! TA.AperFunction,SMDPad,CuDef*
G36*
G01*
X117900000Y-226675000D02*
X117900000Y-226475000D01*
G75*
G02*
X118000000Y-226375000I100000J0D01*
G01*
X119275000Y-226375000D01*
G75*
G02*
X119375000Y-226475000I0J-100000D01*
G01*
X119375000Y-226675000D01*
G75*
G02*
X119275000Y-226775000I-100000J0D01*
G01*
X118000000Y-226775000D01*
G75*
G02*
X117900000Y-226675000I0J100000D01*
G01*
G37*
G04 #@! TD.AperFunction*
G04 #@! TA.AperFunction,SMDPad,CuDef*
G36*
G01*
X117900000Y-227325000D02*
X117900000Y-227125000D01*
G75*
G02*
X118000000Y-227025000I100000J0D01*
G01*
X119275000Y-227025000D01*
G75*
G02*
X119375000Y-227125000I0J-100000D01*
G01*
X119375000Y-227325000D01*
G75*
G02*
X119275000Y-227425000I-100000J0D01*
G01*
X118000000Y-227425000D01*
G75*
G02*
X117900000Y-227325000I0J100000D01*
G01*
G37*
G04 #@! TD.AperFunction*
G04 #@! TA.AperFunction,SMDPad,CuDef*
G36*
G01*
X117900000Y-227975000D02*
X117900000Y-227775000D01*
G75*
G02*
X118000000Y-227675000I100000J0D01*
G01*
X119275000Y-227675000D01*
G75*
G02*
X119375000Y-227775000I0J-100000D01*
G01*
X119375000Y-227975000D01*
G75*
G02*
X119275000Y-228075000I-100000J0D01*
G01*
X118000000Y-228075000D01*
G75*
G02*
X117900000Y-227975000I0J100000D01*
G01*
G37*
G04 #@! TD.AperFunction*
G04 #@! TA.AperFunction,SMDPad,CuDef*
G36*
G01*
X117900000Y-228625000D02*
X117900000Y-228425000D01*
G75*
G02*
X118000000Y-228325000I100000J0D01*
G01*
X119275000Y-228325000D01*
G75*
G02*
X119375000Y-228425000I0J-100000D01*
G01*
X119375000Y-228625000D01*
G75*
G02*
X119275000Y-228725000I-100000J0D01*
G01*
X118000000Y-228725000D01*
G75*
G02*
X117900000Y-228625000I0J100000D01*
G01*
G37*
G04 #@! TD.AperFunction*
G04 #@! TA.AperFunction,SMDPad,CuDef*
G36*
G01*
X117900000Y-229275000D02*
X117900000Y-229075000D01*
G75*
G02*
X118000000Y-228975000I100000J0D01*
G01*
X119275000Y-228975000D01*
G75*
G02*
X119375000Y-229075000I0J-100000D01*
G01*
X119375000Y-229275000D01*
G75*
G02*
X119275000Y-229375000I-100000J0D01*
G01*
X118000000Y-229375000D01*
G75*
G02*
X117900000Y-229275000I0J100000D01*
G01*
G37*
G04 #@! TD.AperFunction*
G04 #@! TA.AperFunction,SMDPad,CuDef*
G36*
G01*
X123625000Y-229275000D02*
X123625000Y-229075000D01*
G75*
G02*
X123725000Y-228975000I100000J0D01*
G01*
X125000000Y-228975000D01*
G75*
G02*
X125100000Y-229075000I0J-100000D01*
G01*
X125100000Y-229275000D01*
G75*
G02*
X125000000Y-229375000I-100000J0D01*
G01*
X123725000Y-229375000D01*
G75*
G02*
X123625000Y-229275000I0J100000D01*
G01*
G37*
G04 #@! TD.AperFunction*
G04 #@! TA.AperFunction,SMDPad,CuDef*
G36*
G01*
X123625000Y-228625000D02*
X123625000Y-228425000D01*
G75*
G02*
X123725000Y-228325000I100000J0D01*
G01*
X125000000Y-228325000D01*
G75*
G02*
X125100000Y-228425000I0J-100000D01*
G01*
X125100000Y-228625000D01*
G75*
G02*
X125000000Y-228725000I-100000J0D01*
G01*
X123725000Y-228725000D01*
G75*
G02*
X123625000Y-228625000I0J100000D01*
G01*
G37*
G04 #@! TD.AperFunction*
G04 #@! TA.AperFunction,SMDPad,CuDef*
G36*
G01*
X123625000Y-227975000D02*
X123625000Y-227775000D01*
G75*
G02*
X123725000Y-227675000I100000J0D01*
G01*
X125000000Y-227675000D01*
G75*
G02*
X125100000Y-227775000I0J-100000D01*
G01*
X125100000Y-227975000D01*
G75*
G02*
X125000000Y-228075000I-100000J0D01*
G01*
X123725000Y-228075000D01*
G75*
G02*
X123625000Y-227975000I0J100000D01*
G01*
G37*
G04 #@! TD.AperFunction*
G04 #@! TA.AperFunction,SMDPad,CuDef*
G36*
G01*
X123625000Y-227325000D02*
X123625000Y-227125000D01*
G75*
G02*
X123725000Y-227025000I100000J0D01*
G01*
X125000000Y-227025000D01*
G75*
G02*
X125100000Y-227125000I0J-100000D01*
G01*
X125100000Y-227325000D01*
G75*
G02*
X125000000Y-227425000I-100000J0D01*
G01*
X123725000Y-227425000D01*
G75*
G02*
X123625000Y-227325000I0J100000D01*
G01*
G37*
G04 #@! TD.AperFunction*
G04 #@! TA.AperFunction,SMDPad,CuDef*
G36*
G01*
X123625000Y-226675000D02*
X123625000Y-226475000D01*
G75*
G02*
X123725000Y-226375000I100000J0D01*
G01*
X125000000Y-226375000D01*
G75*
G02*
X125100000Y-226475000I0J-100000D01*
G01*
X125100000Y-226675000D01*
G75*
G02*
X125000000Y-226775000I-100000J0D01*
G01*
X123725000Y-226775000D01*
G75*
G02*
X123625000Y-226675000I0J100000D01*
G01*
G37*
G04 #@! TD.AperFunction*
G04 #@! TA.AperFunction,SMDPad,CuDef*
G36*
G01*
X123625000Y-226025000D02*
X123625000Y-225825000D01*
G75*
G02*
X123725000Y-225725000I100000J0D01*
G01*
X125000000Y-225725000D01*
G75*
G02*
X125100000Y-225825000I0J-100000D01*
G01*
X125100000Y-226025000D01*
G75*
G02*
X125000000Y-226125000I-100000J0D01*
G01*
X123725000Y-226125000D01*
G75*
G02*
X123625000Y-226025000I0J100000D01*
G01*
G37*
G04 #@! TD.AperFunction*
G04 #@! TA.AperFunction,SMDPad,CuDef*
G36*
G01*
X123625000Y-225375000D02*
X123625000Y-225175000D01*
G75*
G02*
X123725000Y-225075000I100000J0D01*
G01*
X125000000Y-225075000D01*
G75*
G02*
X125100000Y-225175000I0J-100000D01*
G01*
X125100000Y-225375000D01*
G75*
G02*
X125000000Y-225475000I-100000J0D01*
G01*
X123725000Y-225475000D01*
G75*
G02*
X123625000Y-225375000I0J100000D01*
G01*
G37*
G04 #@! TD.AperFunction*
G04 #@! TA.AperFunction,SMDPad,CuDef*
G36*
G01*
X123625000Y-224725000D02*
X123625000Y-224525000D01*
G75*
G02*
X123725000Y-224425000I100000J0D01*
G01*
X125000000Y-224425000D01*
G75*
G02*
X125100000Y-224525000I0J-100000D01*
G01*
X125100000Y-224725000D01*
G75*
G02*
X125000000Y-224825000I-100000J0D01*
G01*
X123725000Y-224825000D01*
G75*
G02*
X123625000Y-224725000I0J100000D01*
G01*
G37*
G04 #@! TD.AperFunction*
G04 #@! TA.AperFunction,SMDPad,CuDef*
G36*
G01*
X123625000Y-224075000D02*
X123625000Y-223875000D01*
G75*
G02*
X123725000Y-223775000I100000J0D01*
G01*
X125000000Y-223775000D01*
G75*
G02*
X125100000Y-223875000I0J-100000D01*
G01*
X125100000Y-224075000D01*
G75*
G02*
X125000000Y-224175000I-100000J0D01*
G01*
X123725000Y-224175000D01*
G75*
G02*
X123625000Y-224075000I0J100000D01*
G01*
G37*
G04 #@! TD.AperFunction*
G04 #@! TA.AperFunction,SMDPad,CuDef*
G36*
G01*
X123625000Y-223425000D02*
X123625000Y-223225000D01*
G75*
G02*
X123725000Y-223125000I100000J0D01*
G01*
X125000000Y-223125000D01*
G75*
G02*
X125100000Y-223225000I0J-100000D01*
G01*
X125100000Y-223425000D01*
G75*
G02*
X125000000Y-223525000I-100000J0D01*
G01*
X123725000Y-223525000D01*
G75*
G02*
X123625000Y-223425000I0J100000D01*
G01*
G37*
G04 #@! TD.AperFunction*
G04 #@! TA.AperFunction,SMDPad,CuDef*
G36*
G01*
X135950000Y-217950000D02*
X135950000Y-216850000D01*
G75*
G02*
X136200000Y-216600000I250000J0D01*
G01*
X139200000Y-216600000D01*
G75*
G02*
X139450000Y-216850000I0J-250000D01*
G01*
X139450000Y-217950000D01*
G75*
G02*
X139200000Y-218200000I-250000J0D01*
G01*
X136200000Y-218200000D01*
G75*
G02*
X135950000Y-217950000I0J250000D01*
G01*
G37*
G04 #@! TD.AperFunction*
G04 #@! TA.AperFunction,SMDPad,CuDef*
G36*
G01*
X130550000Y-217950000D02*
X130550000Y-216850000D01*
G75*
G02*
X130800000Y-216600000I250000J0D01*
G01*
X133800000Y-216600000D01*
G75*
G02*
X134050000Y-216850000I0J-250000D01*
G01*
X134050000Y-217950000D01*
G75*
G02*
X133800000Y-218200000I-250000J0D01*
G01*
X130800000Y-218200000D01*
G75*
G02*
X130550000Y-217950000I0J250000D01*
G01*
G37*
G04 #@! TD.AperFunction*
G04 #@! TA.AperFunction,SMDPad,CuDef*
G36*
G01*
X120950000Y-200050000D02*
X122050000Y-200050000D01*
G75*
G02*
X122300000Y-200300000I0J-250000D01*
G01*
X122300000Y-203300000D01*
G75*
G02*
X122050000Y-203550000I-250000J0D01*
G01*
X120950000Y-203550000D01*
G75*
G02*
X120700000Y-203300000I0J250000D01*
G01*
X120700000Y-200300000D01*
G75*
G02*
X120950000Y-200050000I250000J0D01*
G01*
G37*
G04 #@! TD.AperFunction*
G04 #@! TA.AperFunction,SMDPad,CuDef*
G36*
G01*
X120950000Y-205450000D02*
X122050000Y-205450000D01*
G75*
G02*
X122300000Y-205700000I0J-250000D01*
G01*
X122300000Y-208700000D01*
G75*
G02*
X122050000Y-208950000I-250000J0D01*
G01*
X120950000Y-208950000D01*
G75*
G02*
X120700000Y-208700000I0J250000D01*
G01*
X120700000Y-205700000D01*
G75*
G02*
X120950000Y-205450000I250000J0D01*
G01*
G37*
G04 #@! TD.AperFunction*
G04 #@! TA.AperFunction,SMDPad,CuDef*
G36*
G01*
X132950000Y-235550000D02*
X134050000Y-235550000D01*
G75*
G02*
X134300000Y-235800000I0J-250000D01*
G01*
X134300000Y-238800000D01*
G75*
G02*
X134050000Y-239050000I-250000J0D01*
G01*
X132950000Y-239050000D01*
G75*
G02*
X132700000Y-238800000I0J250000D01*
G01*
X132700000Y-235800000D01*
G75*
G02*
X132950000Y-235550000I250000J0D01*
G01*
G37*
G04 #@! TD.AperFunction*
G04 #@! TA.AperFunction,SMDPad,CuDef*
G36*
G01*
X132950000Y-240950000D02*
X134050000Y-240950000D01*
G75*
G02*
X134300000Y-241200000I0J-250000D01*
G01*
X134300000Y-244200000D01*
G75*
G02*
X134050000Y-244450000I-250000J0D01*
G01*
X132950000Y-244450000D01*
G75*
G02*
X132700000Y-244200000I0J250000D01*
G01*
X132700000Y-241200000D01*
G75*
G02*
X132950000Y-240950000I250000J0D01*
G01*
G37*
G04 #@! TD.AperFunction*
D14*
X112200000Y-210800000D03*
X107700000Y-210800000D03*
X112200000Y-204300000D03*
X107700000Y-204300000D03*
G04 #@! TA.AperFunction,SMDPad,CuDef*
G36*
G01*
X113550000Y-227775000D02*
X113550000Y-228725000D01*
G75*
G02*
X113300000Y-228975000I-250000J0D01*
G01*
X112625000Y-228975000D01*
G75*
G02*
X112375000Y-228725000I0J250000D01*
G01*
X112375000Y-227775000D01*
G75*
G02*
X112625000Y-227525000I250000J0D01*
G01*
X113300000Y-227525000D01*
G75*
G02*
X113550000Y-227775000I0J-250000D01*
G01*
G37*
G04 #@! TD.AperFunction*
G04 #@! TA.AperFunction,SMDPad,CuDef*
G36*
G01*
X115625000Y-227775000D02*
X115625000Y-228725000D01*
G75*
G02*
X115375000Y-228975000I-250000J0D01*
G01*
X114700000Y-228975000D01*
G75*
G02*
X114450000Y-228725000I0J250000D01*
G01*
X114450000Y-227775000D01*
G75*
G02*
X114700000Y-227525000I250000J0D01*
G01*
X115375000Y-227525000D01*
G75*
G02*
X115625000Y-227775000I0J-250000D01*
G01*
G37*
G04 #@! TD.AperFunction*
G04 #@! TA.AperFunction,SMDPad,CuDef*
G36*
G01*
X138275000Y-202900000D02*
X140925000Y-202900000D01*
G75*
G02*
X141175000Y-203150000I0J-250000D01*
G01*
X141175000Y-204650000D01*
G75*
G02*
X140925000Y-204900000I-250000J0D01*
G01*
X138275000Y-204900000D01*
G75*
G02*
X138025000Y-204650000I0J250000D01*
G01*
X138025000Y-203150000D01*
G75*
G02*
X138275000Y-202900000I250000J0D01*
G01*
G37*
G04 #@! TD.AperFunction*
G04 #@! TA.AperFunction,SMDPad,CuDef*
G36*
G01*
X138275000Y-207800000D02*
X140925000Y-207800000D01*
G75*
G02*
X141175000Y-208050000I0J-250000D01*
G01*
X141175000Y-209550000D01*
G75*
G02*
X140925000Y-209800000I-250000J0D01*
G01*
X138275000Y-209800000D01*
G75*
G02*
X138025000Y-209550000I0J250000D01*
G01*
X138025000Y-208050000D01*
G75*
G02*
X138275000Y-207800000I250000J0D01*
G01*
G37*
G04 #@! TD.AperFunction*
D12*
X108000000Y-242000000D03*
X141000000Y-199000000D03*
X141000000Y-242000000D03*
D15*
X133400000Y-202200000D03*
X133400000Y-206800000D03*
X133400000Y-211400000D03*
D16*
X108750000Y-219000000D03*
X108750000Y-227500000D03*
D10*
X127400000Y-197600000D03*
D11*
X124860000Y-197600000D03*
X122320000Y-197600000D03*
X119780000Y-197600000D03*
X117240000Y-197600000D03*
X114700000Y-197600000D03*
D17*
X129000000Y-236000000D03*
X129500000Y-218500000D03*
X134000000Y-223000000D03*
X120600000Y-230400000D03*
D18*
X128500000Y-227500000D03*
D19*
X122000000Y-226000000D03*
D18*
X141000000Y-235000000D03*
X138000000Y-237500000D03*
X111500000Y-237000000D03*
X113500000Y-241000000D03*
X106500000Y-236000000D03*
X107500000Y-223500000D03*
X142000000Y-230000000D03*
X142000000Y-225000000D03*
X142000000Y-220000000D03*
X142000000Y-215000000D03*
X143000000Y-210000000D03*
X143000000Y-205000000D03*
D17*
X114000000Y-209000000D03*
X136500000Y-242500000D03*
X106000000Y-214500000D03*
X106000000Y-232500000D03*
X110750000Y-234000000D03*
X115500000Y-236500000D03*
X126000000Y-211400000D03*
X126000000Y-206400000D03*
X123500000Y-199500000D03*
X117500000Y-244000000D03*
X123400000Y-244000000D03*
X130500000Y-244000000D03*
D18*
X138500000Y-227500000D03*
X138500000Y-232500000D03*
X138500000Y-212500000D03*
X139250000Y-221000000D03*
X110000000Y-207500000D03*
X112500000Y-200000000D03*
D17*
X122500000Y-211750000D03*
X130000000Y-202250000D03*
X130000000Y-199500000D03*
X105500000Y-227500000D03*
X105500000Y-220000000D03*
X106000000Y-207500000D03*
X114000000Y-206750000D03*
X115000000Y-203500000D03*
X130250000Y-197000000D03*
X118750000Y-206750000D03*
X110250000Y-223000000D03*
X112250000Y-230000000D03*
X112000000Y-217000000D03*
X123750000Y-208500000D03*
X140250000Y-206250000D03*
X130250000Y-207250000D03*
X128750000Y-211250000D03*
D18*
X121250000Y-221750000D03*
D17*
X121750000Y-219750000D03*
X121450000Y-223750000D03*
X120000000Y-219500000D03*
X117000000Y-219500000D03*
X128700000Y-213700000D03*
D19*
X115000000Y-234000000D03*
X129450000Y-233900000D03*
D17*
X126300000Y-236700000D03*
X124600000Y-232000000D03*
X119700000Y-232000000D03*
X125500000Y-235700000D03*
X127400000Y-209600000D03*
X116884002Y-229100000D03*
X116900000Y-227900000D03*
X117700000Y-221200000D03*
X117800000Y-215800000D03*
X127400000Y-207600000D03*
X120100000Y-209800000D03*
X127850000Y-231000000D03*
X130850000Y-231000000D03*
D20*
X112937500Y-221500000D02*
X108750000Y-217312500D01*
X113000000Y-221500000D02*
X112937500Y-221500000D01*
X108750000Y-215025000D02*
X108725000Y-215000000D01*
X108750000Y-219000000D02*
X108750000Y-215025000D01*
X125274972Y-226674972D02*
X126274972Y-226674972D01*
X124362500Y-226575000D02*
X125175000Y-226575000D01*
X125175000Y-226575000D02*
X125274972Y-226674972D01*
X126274972Y-226674972D02*
X126800000Y-227200000D01*
X124362500Y-226575000D02*
X122875000Y-226575000D01*
X108750000Y-228000000D02*
X108750000Y-229187500D01*
X113000000Y-223750000D02*
X108750000Y-228000000D01*
X108762500Y-227512500D02*
X108750000Y-227500000D01*
X108712500Y-227537500D02*
X108750000Y-227500000D01*
X108712500Y-231500000D02*
X108712500Y-227537500D01*
X115250000Y-219500000D02*
X115000000Y-219250000D01*
X117000000Y-219500000D02*
X115250000Y-219500000D01*
X112200000Y-212000000D02*
X112200000Y-210800000D01*
X115000000Y-219250000D02*
X115000000Y-214800000D01*
X115000000Y-214800000D02*
X112200000Y-212000000D01*
X112200000Y-210800000D02*
X112200000Y-204300000D01*
X119775010Y-223017886D02*
X119257124Y-222500000D01*
X119775010Y-224932114D02*
X119775010Y-223017886D01*
X118637500Y-225275000D02*
X119432124Y-225275000D01*
X119432124Y-225275000D02*
X119775010Y-224932114D01*
X119257124Y-222500000D02*
X119237510Y-222500000D01*
X119237510Y-222500000D02*
X119237510Y-221012490D01*
X120000000Y-220250000D02*
X120000000Y-219500000D01*
X119237510Y-221012490D02*
X120000000Y-220250000D01*
X115150000Y-225925000D02*
X115075000Y-226000000D01*
X118637500Y-225925000D02*
X115150000Y-225925000D01*
X124312510Y-225974990D02*
X124362500Y-225925000D01*
X127900000Y-225925000D02*
X128725000Y-225100000D01*
X124362500Y-225925000D02*
X127900000Y-225925000D01*
X128725000Y-222612500D02*
X128712500Y-222600000D01*
X128725000Y-225100000D02*
X128725000Y-222612500D01*
D21*
X132300000Y-217400000D02*
X132300000Y-226950414D01*
X132300000Y-226950414D02*
X129450000Y-229800414D01*
D20*
X128700000Y-213700000D02*
X128700000Y-216300000D01*
X129800000Y-217400000D02*
X132300000Y-217400000D01*
X128700000Y-216300000D02*
X129800000Y-217400000D01*
X128712500Y-220987500D02*
X132300000Y-217400000D01*
X128712500Y-222600000D02*
X128712500Y-220987500D01*
D21*
X130924990Y-209275010D02*
X131175001Y-209024999D01*
X132300000Y-217400000D02*
X130924990Y-216024990D01*
X131175001Y-209024999D02*
X133400000Y-206800000D01*
X130924990Y-216024990D02*
X130924990Y-209275010D01*
X129500000Y-233950000D02*
X129450000Y-233900000D01*
X132500000Y-233950000D02*
X129500000Y-233950000D01*
X129450000Y-233900000D02*
X129450000Y-229800414D01*
D20*
X115037500Y-226037500D02*
X115075000Y-226000000D01*
X115037500Y-228250000D02*
X115037500Y-226037500D01*
X115000000Y-228287500D02*
X115037500Y-228250000D01*
X115000000Y-234000000D02*
X115000000Y-228287500D01*
X125700000Y-223432124D02*
X125700000Y-216800000D01*
X125157124Y-223975000D02*
X125700000Y-223432124D01*
X124362500Y-223975000D02*
X125157124Y-223975000D01*
X124362500Y-218302500D02*
X123160000Y-217100000D01*
X124362500Y-223325000D02*
X124362500Y-218302500D01*
X123410001Y-230354335D02*
X123410001Y-240349999D01*
X119680657Y-226624991D02*
X123410001Y-230354335D01*
X123410001Y-240349999D02*
X122160000Y-241600000D01*
X118924990Y-226624990D02*
X119680657Y-226624991D01*
X118875000Y-226575000D02*
X118924990Y-226624990D01*
X118637500Y-226575000D02*
X118875000Y-226575000D01*
X118637500Y-227225000D02*
X118637500Y-227237500D01*
X118637500Y-227237500D02*
X118674990Y-227274990D01*
X122160000Y-229952876D02*
X122160000Y-239060000D01*
X119432124Y-227225000D02*
X122160000Y-229952876D01*
X118637500Y-227225000D02*
X119432124Y-227225000D01*
X125355666Y-227875000D02*
X126300000Y-228819334D01*
X124362500Y-227875000D02*
X125355666Y-227875000D01*
X126300000Y-228819334D02*
X126300000Y-236700000D01*
X124362500Y-229175000D02*
X124600000Y-229412500D01*
X124600000Y-229412500D02*
X124600000Y-232000000D01*
X119620000Y-232080000D02*
X119700000Y-232000000D01*
X119620000Y-239060000D02*
X119620000Y-232080000D01*
X118330001Y-240349999D02*
X117080000Y-241600000D01*
X118330001Y-229482499D02*
X118330001Y-240349999D01*
X118637500Y-229175000D02*
X118330001Y-229482499D01*
X125157124Y-228525000D02*
X125500000Y-228867876D01*
X124362500Y-228525000D02*
X125157124Y-228525000D01*
X125500000Y-228867876D02*
X125500000Y-235700000D01*
X126425000Y-225275000D02*
X124362500Y-225275000D01*
X127400000Y-224300000D02*
X126425000Y-225275000D01*
X127400000Y-224300000D02*
X127400000Y-209600000D01*
X117459002Y-228525000D02*
X116884002Y-229100000D01*
X118637500Y-228525000D02*
X117459002Y-228525000D01*
X118275000Y-227875000D02*
X118250000Y-227900000D01*
X118637500Y-227875000D02*
X118275000Y-227875000D01*
X118250000Y-227900000D02*
X116900000Y-227900000D01*
X117700000Y-219984002D02*
X117800000Y-219884002D01*
X117700000Y-221200000D02*
X117700000Y-219984002D01*
X117800000Y-219884002D02*
X117800000Y-215800000D01*
X127400000Y-207600000D02*
X127400000Y-207600000D01*
X124600000Y-214400000D02*
X124600000Y-210400000D01*
X124600000Y-210400000D02*
X127400000Y-207600000D01*
X123609998Y-214800000D02*
X124200000Y-214800000D01*
X121909999Y-216499999D02*
X123609998Y-214800000D01*
X121909999Y-217700001D02*
X121909999Y-216499999D01*
X123224990Y-219014992D02*
X121909999Y-217700001D01*
X123567876Y-224625000D02*
X123224990Y-224282114D01*
X123224990Y-224282114D02*
X123224990Y-223667886D01*
X123224990Y-223667886D02*
X123242876Y-223650000D01*
X124362500Y-224625000D02*
X123567876Y-224625000D01*
X123242876Y-223650000D02*
X123224990Y-223632114D01*
X124200000Y-214800000D02*
X124600000Y-214400000D01*
X123224990Y-223632114D02*
X123224990Y-219014992D01*
X117842876Y-223975000D02*
X116700000Y-222832124D01*
X118637500Y-223975000D02*
X117842876Y-223975000D01*
X116700000Y-222832124D02*
X116700000Y-222000000D01*
X116200000Y-221500000D02*
X115000000Y-221500000D01*
X116700000Y-222000000D02*
X116200000Y-221500000D01*
X118075010Y-224575010D02*
X117175010Y-224575010D01*
X118637500Y-224625000D02*
X118125000Y-224625000D01*
X118125000Y-224625000D02*
X118075010Y-224575010D01*
X116350000Y-223750000D02*
X115000000Y-223750000D01*
X117175010Y-224575010D02*
X116350000Y-223750000D01*
X118637500Y-212137500D02*
X118000000Y-211500000D01*
X118637500Y-223325000D02*
X118637500Y-212137500D01*
X118400000Y-211500000D02*
X120100000Y-209800000D01*
X118000000Y-211500000D02*
X118400000Y-211500000D01*
X124399990Y-227274990D02*
X125604199Y-227274991D01*
X124362500Y-227225000D02*
X124362500Y-227237500D01*
X124362500Y-227237500D02*
X124399990Y-227274990D01*
X126900009Y-228570801D02*
X126900009Y-230050009D01*
X125604199Y-227274991D02*
X126900009Y-228570801D01*
X126900009Y-230050009D02*
X127850000Y-231000000D01*
X130850000Y-230650000D02*
X130850000Y-231000000D01*
X133500000Y-228000000D02*
X130850000Y-230650000D01*
D21*
X127825000Y-241000000D02*
X127800000Y-241025000D01*
X125275000Y-241025000D02*
X124700000Y-241600000D01*
X127800000Y-241025000D02*
X125275000Y-241025000D01*
X134500000Y-236300000D02*
X133500000Y-237300000D01*
X134500000Y-233000000D02*
X134500000Y-236300000D01*
X131525000Y-237300000D02*
X127800000Y-241025000D01*
X133500000Y-237300000D02*
X131525000Y-237300000D01*
X134500000Y-233000000D02*
X135675010Y-231824990D01*
D20*
X136000000Y-231000000D02*
X135675010Y-231324990D01*
D21*
X135675010Y-231824990D02*
X135675010Y-231324990D01*
X117240000Y-200840000D02*
X117300000Y-200900000D01*
X117240000Y-197600000D02*
X117240000Y-200840000D01*
X134210243Y-204600000D02*
X126100000Y-204600000D01*
X135675010Y-218874596D02*
X135174990Y-218374576D01*
X135675010Y-231324990D02*
X135675010Y-218874596D01*
X126100000Y-204600000D02*
X123300000Y-201800000D01*
X135174990Y-218374576D02*
X135174990Y-216425424D01*
X135174990Y-216425424D02*
X135675010Y-215925404D01*
X123300000Y-201800000D02*
X121500000Y-201800000D01*
X135675010Y-215925404D02*
X135675010Y-206064767D01*
X135675010Y-206064767D02*
X134210243Y-204600000D01*
X119400000Y-200900000D02*
X117300000Y-200900000D01*
X121500000Y-201800000D02*
X120300000Y-201800000D01*
X120300000Y-201800000D02*
X119400000Y-200900000D01*
D20*
X133500000Y-231050000D02*
X132500000Y-232050000D01*
X133500000Y-230000000D02*
X133500000Y-231050000D01*
D21*
X134124990Y-200024990D02*
X132760000Y-198660000D01*
X135724990Y-200024990D02*
X134124990Y-200024990D01*
X139600000Y-203900000D02*
X135724990Y-200024990D01*
X139600000Y-208800000D02*
X137249990Y-206449990D01*
X137249990Y-206449990D02*
X137249990Y-203459192D01*
X135990798Y-202200000D02*
X133400000Y-202200000D01*
X137249990Y-203459192D02*
X135990798Y-202200000D01*
D22*
X106686994Y-195807870D02*
X106089470Y-196125361D01*
X106075308Y-196134823D01*
X105763124Y-196583519D01*
X108000000Y-198820395D01*
X110236876Y-196583519D01*
X109924692Y-196134823D01*
X109328741Y-195814388D01*
X108824276Y-195660000D01*
X114123000Y-195660000D01*
X114123000Y-196231649D01*
X113996589Y-196284010D01*
X113753368Y-196446525D01*
X113546525Y-196653368D01*
X113384010Y-196896589D01*
X113272068Y-197166842D01*
X113215000Y-197453740D01*
X113215000Y-197746260D01*
X113272068Y-198033158D01*
X113384010Y-198303411D01*
X113546525Y-198546632D01*
X113753368Y-198753475D01*
X113996589Y-198915990D01*
X114266842Y-199027932D01*
X114553740Y-199085000D01*
X114846260Y-199085000D01*
X115133158Y-199027932D01*
X115403411Y-198915990D01*
X115646632Y-198753475D01*
X115853475Y-198546632D01*
X115970000Y-198372240D01*
X116030000Y-198462037D01*
X116030001Y-199577405D01*
X115936982Y-199549188D01*
X115812500Y-199536928D01*
X115510750Y-199540000D01*
X115352000Y-199698750D01*
X115352000Y-200773000D01*
X115372000Y-200773000D01*
X115372000Y-201027000D01*
X115352000Y-201027000D01*
X115352000Y-202101250D01*
X115510750Y-202260000D01*
X115812500Y-202263072D01*
X115936982Y-202250812D01*
X116056680Y-202214502D01*
X116166994Y-202155537D01*
X116263685Y-202076185D01*
X116329158Y-201996406D01*
X116334538Y-202002962D01*
X116469114Y-202113405D01*
X116622650Y-202195472D01*
X116789246Y-202246008D01*
X116962500Y-202263072D01*
X117637500Y-202263072D01*
X117810754Y-202246008D01*
X117977350Y-202195472D01*
X118130886Y-202113405D01*
X118135035Y-202110000D01*
X118898802Y-202110000D01*
X119402372Y-202613570D01*
X119440261Y-202659739D01*
X119624508Y-202810946D01*
X119834713Y-202923303D01*
X120061928Y-202992228D01*
X120061928Y-203300000D01*
X120078992Y-203473254D01*
X120129528Y-203639850D01*
X120211595Y-203793386D01*
X120322038Y-203927962D01*
X120456614Y-204038405D01*
X120610150Y-204120472D01*
X120776746Y-204171008D01*
X120950000Y-204188072D01*
X122050000Y-204188072D01*
X122223254Y-204171008D01*
X122389850Y-204120472D01*
X122543386Y-204038405D01*
X122677962Y-203927962D01*
X122788405Y-203793386D01*
X122870472Y-203639850D01*
X122921008Y-203473254D01*
X122938072Y-203300000D01*
X122938072Y-203149269D01*
X125202368Y-205413566D01*
X125240261Y-205459739D01*
X125424508Y-205610946D01*
X125634713Y-205723303D01*
X125862799Y-205792492D01*
X126040563Y-205810000D01*
X126040565Y-205810000D01*
X126100000Y-205815854D01*
X126159435Y-205810000D01*
X127623000Y-205810000D01*
X127623000Y-206589080D01*
X127501939Y-206565000D01*
X127298061Y-206565000D01*
X127098102Y-206604774D01*
X126909744Y-206682795D01*
X126740226Y-206796063D01*
X126596063Y-206940226D01*
X126482795Y-207109744D01*
X126404774Y-207298102D01*
X126375908Y-207443225D01*
X124038574Y-209780559D01*
X124006710Y-209806709D01*
X123980562Y-209838571D01*
X123902364Y-209933855D01*
X123824828Y-210078914D01*
X123777082Y-210236312D01*
X123760960Y-210400000D01*
X123765001Y-210441028D01*
X123765000Y-213965000D01*
X123651016Y-213965000D01*
X123609998Y-213960960D01*
X123568980Y-213965000D01*
X123568979Y-213965000D01*
X123446309Y-213977082D01*
X123288911Y-214024828D01*
X123143852Y-214102364D01*
X123052808Y-214177082D01*
X123016707Y-214206709D01*
X122990561Y-214238568D01*
X122856129Y-214373000D01*
X119472500Y-214373000D01*
X119472500Y-212178518D01*
X119476540Y-212137499D01*
X119460418Y-211973811D01*
X119412672Y-211816413D01*
X119361044Y-211719824D01*
X120256775Y-210824092D01*
X120401898Y-210795226D01*
X120590256Y-210717205D01*
X120759774Y-210603937D01*
X120903937Y-210459774D01*
X121017205Y-210290256D01*
X121095226Y-210101898D01*
X121135000Y-209901939D01*
X121135000Y-209698061D01*
X121112632Y-209585607D01*
X121214250Y-209585000D01*
X121373000Y-209426250D01*
X121373000Y-207327000D01*
X121627000Y-207327000D01*
X121627000Y-209426250D01*
X121785750Y-209585000D01*
X122300000Y-209588072D01*
X122424482Y-209575812D01*
X122544180Y-209539502D01*
X122654494Y-209480537D01*
X122751185Y-209401185D01*
X122830537Y-209304494D01*
X122889502Y-209194180D01*
X122925812Y-209074482D01*
X122938072Y-208950000D01*
X122935000Y-207485750D01*
X122776250Y-207327000D01*
X121627000Y-207327000D01*
X121373000Y-207327000D01*
X120223750Y-207327000D01*
X120065000Y-207485750D01*
X120062316Y-208765000D01*
X119998061Y-208765000D01*
X119798102Y-208804774D01*
X119609744Y-208882795D01*
X119440226Y-208996063D01*
X119336115Y-209100174D01*
X119338072Y-208900000D01*
X119325812Y-208775518D01*
X119289502Y-208655820D01*
X119230537Y-208545506D01*
X119151185Y-208448815D01*
X119054494Y-208369463D01*
X118944180Y-208310498D01*
X118824482Y-208274188D01*
X118700000Y-208261928D01*
X118285750Y-208265000D01*
X118127000Y-208423750D01*
X118127000Y-209373000D01*
X118147000Y-209373000D01*
X118147000Y-209627000D01*
X118127000Y-209627000D01*
X118127000Y-209647000D01*
X117873000Y-209647000D01*
X117873000Y-209627000D01*
X116823750Y-209627000D01*
X116665000Y-209785750D01*
X116661928Y-210100000D01*
X116674188Y-210224482D01*
X116710498Y-210344180D01*
X116769463Y-210454494D01*
X116848815Y-210551185D01*
X116878276Y-210575363D01*
X116811595Y-210656613D01*
X116729528Y-210810149D01*
X116678992Y-210976745D01*
X116661928Y-211149999D01*
X116661928Y-211850001D01*
X116678992Y-212023255D01*
X116729528Y-212189851D01*
X116811595Y-212343387D01*
X116922038Y-212477962D01*
X117056613Y-212588405D01*
X117210149Y-212670472D01*
X117376745Y-212721008D01*
X117549999Y-212738072D01*
X117802501Y-212738072D01*
X117802501Y-214765000D01*
X117698061Y-214765000D01*
X117498102Y-214804774D01*
X117309744Y-214882795D01*
X117140226Y-214996063D01*
X116996063Y-215140226D01*
X116882795Y-215309744D01*
X116804774Y-215498102D01*
X116765000Y-215698061D01*
X116765000Y-215901939D01*
X116804774Y-216101898D01*
X116882795Y-216290256D01*
X116965001Y-216413286D01*
X116965000Y-218465000D01*
X116898061Y-218465000D01*
X116698102Y-218504774D01*
X116509744Y-218582795D01*
X116386715Y-218665000D01*
X116214738Y-218665000D01*
X116208508Y-218601746D01*
X116157972Y-218435150D01*
X116075905Y-218281614D01*
X115965462Y-218147038D01*
X115835000Y-218039971D01*
X115835000Y-214841018D01*
X115839040Y-214800000D01*
X115832433Y-214732913D01*
X115822918Y-214636311D01*
X115775172Y-214478913D01*
X115697636Y-214333854D01*
X115593291Y-214206709D01*
X115561427Y-214180559D01*
X113346553Y-211965686D01*
X113469987Y-211842252D01*
X113648918Y-211574463D01*
X113772168Y-211276912D01*
X113835000Y-210961033D01*
X113835000Y-210638967D01*
X113772168Y-210323088D01*
X113648918Y-210025537D01*
X113469987Y-209757748D01*
X113242252Y-209530013D01*
X113035000Y-209391532D01*
X113035000Y-208900000D01*
X116661928Y-208900000D01*
X116665000Y-209214250D01*
X116823750Y-209373000D01*
X117873000Y-209373000D01*
X117873000Y-208423750D01*
X117714250Y-208265000D01*
X117300000Y-208261928D01*
X117175518Y-208274188D01*
X117055820Y-208310498D01*
X116945506Y-208369463D01*
X116848815Y-208448815D01*
X116769463Y-208545506D01*
X116710498Y-208655820D01*
X116674188Y-208775518D01*
X116661928Y-208900000D01*
X113035000Y-208900000D01*
X113035000Y-205708468D01*
X113242252Y-205569987D01*
X113362239Y-205450000D01*
X120061928Y-205450000D01*
X120065000Y-206914250D01*
X120223750Y-207073000D01*
X121373000Y-207073000D01*
X121373000Y-204973750D01*
X121627000Y-204973750D01*
X121627000Y-207073000D01*
X122776250Y-207073000D01*
X122935000Y-206914250D01*
X122938072Y-205450000D01*
X122925812Y-205325518D01*
X122889502Y-205205820D01*
X122830537Y-205095506D01*
X122751185Y-204998815D01*
X122654494Y-204919463D01*
X122544180Y-204860498D01*
X122424482Y-204824188D01*
X122300000Y-204811928D01*
X121785750Y-204815000D01*
X121627000Y-204973750D01*
X121373000Y-204973750D01*
X121214250Y-204815000D01*
X120700000Y-204811928D01*
X120575518Y-204824188D01*
X120455820Y-204860498D01*
X120345506Y-204919463D01*
X120248815Y-204998815D01*
X120169463Y-205095506D01*
X120110498Y-205205820D01*
X120074188Y-205325518D01*
X120061928Y-205450000D01*
X113362239Y-205450000D01*
X113469987Y-205342252D01*
X113648918Y-205074463D01*
X113772168Y-204776912D01*
X113835000Y-204461033D01*
X113835000Y-204138967D01*
X113772168Y-203823088D01*
X113648918Y-203525537D01*
X113469987Y-203257748D01*
X113242252Y-203030013D01*
X112974463Y-202851082D01*
X112676912Y-202727832D01*
X112361033Y-202665000D01*
X112038967Y-202665000D01*
X111723088Y-202727832D01*
X111425537Y-202851082D01*
X111157748Y-203030013D01*
X110930013Y-203257748D01*
X110751082Y-203525537D01*
X110627832Y-203823088D01*
X110565000Y-204138967D01*
X110565000Y-204461033D01*
X110627832Y-204776912D01*
X110751082Y-205074463D01*
X110930013Y-205342252D01*
X111157748Y-205569987D01*
X111365001Y-205708469D01*
X111365000Y-209391531D01*
X111157748Y-209530013D01*
X110930013Y-209757748D01*
X110751082Y-210025537D01*
X110627832Y-210323088D01*
X110565000Y-210638967D01*
X110565000Y-210961033D01*
X110627832Y-211276912D01*
X110751082Y-211574463D01*
X110930013Y-211842252D01*
X111157748Y-212069987D01*
X111397191Y-212229978D01*
X111424828Y-212321086D01*
X111502364Y-212466145D01*
X111606709Y-212593291D01*
X111638579Y-212619446D01*
X114165001Y-215145869D01*
X114165000Y-218039971D01*
X114034538Y-218147038D01*
X114029158Y-218153594D01*
X113963685Y-218073815D01*
X113866994Y-217994463D01*
X113756680Y-217935498D01*
X113636982Y-217899188D01*
X113512500Y-217886928D01*
X113210750Y-217890000D01*
X113052000Y-218048750D01*
X113052000Y-219123000D01*
X113072000Y-219123000D01*
X113072000Y-219377000D01*
X113052000Y-219377000D01*
X113052000Y-219397000D01*
X112798000Y-219397000D01*
X112798000Y-219377000D01*
X112778000Y-219377000D01*
X112778000Y-219123000D01*
X112798000Y-219123000D01*
X112798000Y-218048750D01*
X112639250Y-217890000D01*
X112337500Y-217886928D01*
X112213018Y-217899188D01*
X112093320Y-217935498D01*
X111983006Y-217994463D01*
X111886315Y-218073815D01*
X111806963Y-218170506D01*
X111747998Y-218280820D01*
X111711688Y-218400518D01*
X111699428Y-218525000D01*
X111702500Y-218964250D01*
X111861248Y-219122998D01*
X111741366Y-219122998D01*
X110388072Y-217769705D01*
X110388072Y-216750000D01*
X110375812Y-216625518D01*
X110339502Y-216505820D01*
X110280537Y-216395506D01*
X110253576Y-216362654D01*
X110514250Y-216360000D01*
X110673000Y-216201250D01*
X110673000Y-215127000D01*
X110927000Y-215127000D01*
X110927000Y-216201250D01*
X111085750Y-216360000D01*
X111387500Y-216363072D01*
X111511982Y-216350812D01*
X111631680Y-216314502D01*
X111741994Y-216255537D01*
X111838685Y-216176185D01*
X111918037Y-216079494D01*
X111977002Y-215969180D01*
X112013312Y-215849482D01*
X112025572Y-215725000D01*
X112022500Y-215285750D01*
X111863750Y-215127000D01*
X110927000Y-215127000D01*
X110673000Y-215127000D01*
X110653000Y-215127000D01*
X110653000Y-214873000D01*
X110673000Y-214873000D01*
X110673000Y-213798750D01*
X110927000Y-213798750D01*
X110927000Y-214873000D01*
X111863750Y-214873000D01*
X112022500Y-214714250D01*
X112025572Y-214275000D01*
X112013312Y-214150518D01*
X111977002Y-214030820D01*
X111918037Y-213920506D01*
X111838685Y-213823815D01*
X111741994Y-213744463D01*
X111631680Y-213685498D01*
X111511982Y-213649188D01*
X111387500Y-213636928D01*
X111085750Y-213640000D01*
X110927000Y-213798750D01*
X110673000Y-213798750D01*
X110514250Y-213640000D01*
X110212500Y-213636928D01*
X110088018Y-213649188D01*
X109968320Y-213685498D01*
X109858006Y-213744463D01*
X109761315Y-213823815D01*
X109695842Y-213903594D01*
X109690462Y-213897038D01*
X109555886Y-213786595D01*
X109402350Y-213704528D01*
X109235754Y-213653992D01*
X109062500Y-213636928D01*
X108387500Y-213636928D01*
X108214246Y-213653992D01*
X108047650Y-213704528D01*
X107894114Y-213786595D01*
X107759538Y-213897038D01*
X107649095Y-214031614D01*
X107567028Y-214185150D01*
X107516492Y-214351746D01*
X107499428Y-214525000D01*
X107499428Y-215475000D01*
X107516492Y-215648254D01*
X107567028Y-215814850D01*
X107649095Y-215968386D01*
X107759538Y-216102962D01*
X107770463Y-216111928D01*
X107750000Y-216111928D01*
X107625518Y-216124188D01*
X107505820Y-216160498D01*
X107395506Y-216219463D01*
X107298815Y-216298815D01*
X107219463Y-216395506D01*
X107160498Y-216505820D01*
X107124188Y-216625518D01*
X107111928Y-216750000D01*
X107111928Y-221250000D01*
X107124188Y-221374482D01*
X107160498Y-221494180D01*
X107219463Y-221604494D01*
X107298815Y-221701185D01*
X107395506Y-221780537D01*
X107505820Y-221839502D01*
X107625518Y-221875812D01*
X107750000Y-221888072D01*
X109750000Y-221888072D01*
X109874482Y-221875812D01*
X109994180Y-221839502D01*
X110104494Y-221780537D01*
X110201185Y-221701185D01*
X110280537Y-221604494D01*
X110339502Y-221494180D01*
X110375812Y-221374482D01*
X110388072Y-221250000D01*
X110388072Y-220131440D01*
X111761928Y-221505296D01*
X111761928Y-221950001D01*
X111778992Y-222123255D01*
X111829528Y-222289851D01*
X111911595Y-222443387D01*
X112022038Y-222577962D01*
X112079354Y-222625000D01*
X112022038Y-222672038D01*
X111911595Y-222806613D01*
X111829528Y-222960149D01*
X111778992Y-223126745D01*
X111761928Y-223299999D01*
X111761928Y-223807203D01*
X110381891Y-225187241D01*
X110375812Y-225125518D01*
X110339502Y-225005820D01*
X110280537Y-224895506D01*
X110201185Y-224798815D01*
X110104494Y-224719463D01*
X109994180Y-224660498D01*
X109874482Y-224624188D01*
X109750000Y-224611928D01*
X107750000Y-224611928D01*
X107625518Y-224624188D01*
X107505820Y-224660498D01*
X107395506Y-224719463D01*
X107298815Y-224798815D01*
X107219463Y-224895506D01*
X107160498Y-225005820D01*
X107124188Y-225125518D01*
X107111928Y-225250000D01*
X107111928Y-229750000D01*
X107124188Y-229874482D01*
X107160498Y-229994180D01*
X107219463Y-230104494D01*
X107298815Y-230201185D01*
X107395506Y-230280537D01*
X107505820Y-230339502D01*
X107625518Y-230375812D01*
X107750000Y-230388072D01*
X107757963Y-230388072D01*
X107747038Y-230397038D01*
X107636595Y-230531614D01*
X107554528Y-230685150D01*
X107503992Y-230851746D01*
X107486928Y-231025000D01*
X107486928Y-231975000D01*
X107503992Y-232148254D01*
X107554528Y-232314850D01*
X107636595Y-232468386D01*
X107747038Y-232602962D01*
X107881614Y-232713405D01*
X108035150Y-232795472D01*
X108201746Y-232846008D01*
X108375000Y-232863072D01*
X109050000Y-232863072D01*
X109223254Y-232846008D01*
X109389850Y-232795472D01*
X109543386Y-232713405D01*
X109677962Y-232602962D01*
X109683342Y-232596406D01*
X109748815Y-232676185D01*
X109845506Y-232755537D01*
X109955820Y-232814502D01*
X110075518Y-232850812D01*
X110200000Y-232863072D01*
X110501750Y-232860000D01*
X110660500Y-232701250D01*
X110660500Y-231627000D01*
X110914500Y-231627000D01*
X110914500Y-232701250D01*
X111073250Y-232860000D01*
X111375000Y-232863072D01*
X111499482Y-232850812D01*
X111619180Y-232814502D01*
X111729494Y-232755537D01*
X111826185Y-232676185D01*
X111905537Y-232579494D01*
X111964502Y-232469180D01*
X112000812Y-232349482D01*
X112013072Y-232225000D01*
X112010000Y-231785750D01*
X111851250Y-231627000D01*
X110914500Y-231627000D01*
X110660500Y-231627000D01*
X110640500Y-231627000D01*
X110640500Y-231373000D01*
X110660500Y-231373000D01*
X110660500Y-230298750D01*
X110914500Y-230298750D01*
X110914500Y-231373000D01*
X111851250Y-231373000D01*
X112010000Y-231214250D01*
X112013072Y-230775000D01*
X112000812Y-230650518D01*
X111964502Y-230530820D01*
X111905537Y-230420506D01*
X111826185Y-230323815D01*
X111729494Y-230244463D01*
X111619180Y-230185498D01*
X111499482Y-230149188D01*
X111375000Y-230136928D01*
X111073250Y-230140000D01*
X110914500Y-230298750D01*
X110660500Y-230298750D01*
X110501750Y-230140000D01*
X110253472Y-230137472D01*
X110280537Y-230104494D01*
X110339502Y-229994180D01*
X110375812Y-229874482D01*
X110388072Y-229750000D01*
X110388072Y-228975000D01*
X111736928Y-228975000D01*
X111749188Y-229099482D01*
X111785498Y-229219180D01*
X111844463Y-229329494D01*
X111923815Y-229426185D01*
X112020506Y-229505537D01*
X112130820Y-229564502D01*
X112250518Y-229600812D01*
X112375000Y-229613072D01*
X112676750Y-229610000D01*
X112835500Y-229451250D01*
X112835500Y-228377000D01*
X111898750Y-228377000D01*
X111740000Y-228535750D01*
X111736928Y-228975000D01*
X110388072Y-228975000D01*
X110388072Y-227542795D01*
X111803866Y-226127002D01*
X111936248Y-226127002D01*
X111777500Y-226285750D01*
X111774428Y-226725000D01*
X111786688Y-226849482D01*
X111822998Y-226969180D01*
X111881963Y-227079494D01*
X111900559Y-227102153D01*
X111844463Y-227170506D01*
X111785498Y-227280820D01*
X111749188Y-227400518D01*
X111736928Y-227525000D01*
X111740000Y-227964250D01*
X111898750Y-228123000D01*
X112835500Y-228123000D01*
X112835500Y-227238750D01*
X112873000Y-227201250D01*
X112873000Y-226127000D01*
X112853000Y-226127000D01*
X112853000Y-225873000D01*
X112873000Y-225873000D01*
X112873000Y-225853000D01*
X113127000Y-225853000D01*
X113127000Y-225873000D01*
X113147000Y-225873000D01*
X113147000Y-226127000D01*
X113127000Y-226127000D01*
X113127000Y-227011250D01*
X113089500Y-227048750D01*
X113089500Y-228123000D01*
X113109500Y-228123000D01*
X113109500Y-228377000D01*
X113089500Y-228377000D01*
X113089500Y-229451250D01*
X113248250Y-229610000D01*
X113550000Y-229613072D01*
X113674482Y-229600812D01*
X113794180Y-229564502D01*
X113904494Y-229505537D01*
X114001185Y-229426185D01*
X114066658Y-229346406D01*
X114072038Y-229352962D01*
X114165001Y-229429254D01*
X114165000Y-232591531D01*
X113957748Y-232730013D01*
X113730013Y-232957748D01*
X113551082Y-233225537D01*
X113427832Y-233523088D01*
X113365000Y-233838967D01*
X113365000Y-234161033D01*
X113427832Y-234476912D01*
X113551082Y-234774463D01*
X113730013Y-235042252D01*
X113957748Y-235269987D01*
X114225537Y-235448918D01*
X114523088Y-235572168D01*
X114838967Y-235635000D01*
X115161033Y-235635000D01*
X115476912Y-235572168D01*
X115774463Y-235448918D01*
X116042252Y-235269987D01*
X116269987Y-235042252D01*
X116448918Y-234774463D01*
X116572168Y-234476912D01*
X116635000Y-234161033D01*
X116635000Y-233838967D01*
X116572168Y-233523088D01*
X116448918Y-233225537D01*
X116269987Y-232957748D01*
X116042252Y-232730013D01*
X115835000Y-232591532D01*
X115835000Y-229481250D01*
X115868386Y-229463405D01*
X115902617Y-229435313D01*
X115966797Y-229590256D01*
X116080065Y-229759774D01*
X116224228Y-229903937D01*
X116393746Y-230017205D01*
X116582104Y-230095226D01*
X116782063Y-230135000D01*
X116985941Y-230135000D01*
X117185900Y-230095226D01*
X117374258Y-230017205D01*
X117495001Y-229936527D01*
X117495002Y-237628456D01*
X117226260Y-237575000D01*
X116933740Y-237575000D01*
X116646842Y-237632068D01*
X116376589Y-237744010D01*
X116133368Y-237906525D01*
X115926525Y-238113368D01*
X115764010Y-238356589D01*
X115652068Y-238626842D01*
X115595000Y-238913740D01*
X115595000Y-239206260D01*
X115652068Y-239493158D01*
X115764010Y-239763411D01*
X115926525Y-240006632D01*
X116133368Y-240213475D01*
X116307760Y-240330000D01*
X116133368Y-240446525D01*
X115926525Y-240653368D01*
X115764010Y-240896589D01*
X115652068Y-241166842D01*
X115595000Y-241453740D01*
X115595000Y-241746260D01*
X115652068Y-242033158D01*
X115764010Y-242303411D01*
X115926525Y-242546632D01*
X116133368Y-242753475D01*
X116376589Y-242915990D01*
X116646842Y-243027932D01*
X116933740Y-243085000D01*
X117226260Y-243085000D01*
X117513158Y-243027932D01*
X117783411Y-242915990D01*
X118026632Y-242753475D01*
X118233475Y-242546632D01*
X118350000Y-242372240D01*
X118466525Y-242546632D01*
X118673368Y-242753475D01*
X118916589Y-242915990D01*
X119186842Y-243027932D01*
X119473740Y-243085000D01*
X119623000Y-243085000D01*
X119623000Y-245340000D01*
X108821179Y-245340000D01*
X109313006Y-245192130D01*
X109910530Y-244874639D01*
X109924692Y-244865177D01*
X110236876Y-244416481D01*
X108000000Y-242179605D01*
X105763124Y-244416481D01*
X106075308Y-244865177D01*
X106671259Y-245185612D01*
X107175724Y-245340000D01*
X104660000Y-245340000D01*
X104660000Y-242821179D01*
X104807870Y-243313006D01*
X105125361Y-243910530D01*
X105134823Y-243924692D01*
X105583519Y-244236876D01*
X107820395Y-242000000D01*
X108179605Y-242000000D01*
X110416481Y-244236876D01*
X110865177Y-243924692D01*
X111185612Y-243328741D01*
X111383626Y-242681727D01*
X111451610Y-242008516D01*
X111386949Y-241334977D01*
X111192130Y-240686994D01*
X110874639Y-240089470D01*
X110865177Y-240075308D01*
X110416481Y-239763124D01*
X108179605Y-242000000D01*
X107820395Y-242000000D01*
X105583519Y-239763124D01*
X105134823Y-240075308D01*
X104814388Y-240671259D01*
X104660000Y-241175724D01*
X104660000Y-239583519D01*
X105763124Y-239583519D01*
X108000000Y-241820395D01*
X110236876Y-239583519D01*
X109924692Y-239134823D01*
X109328741Y-238814388D01*
X108681727Y-238616374D01*
X108008516Y-238548390D01*
X107334977Y-238613051D01*
X106686994Y-238807870D01*
X106089470Y-239125361D01*
X106075308Y-239134823D01*
X105763124Y-239583519D01*
X104660000Y-239583519D01*
X104660000Y-211935413D01*
X106744192Y-211935413D01*
X106839956Y-212199814D01*
X107129571Y-212340704D01*
X107441108Y-212422384D01*
X107762595Y-212441718D01*
X108081675Y-212397961D01*
X108386088Y-212292795D01*
X108560044Y-212199814D01*
X108655808Y-211935413D01*
X107700000Y-210979605D01*
X106744192Y-211935413D01*
X104660000Y-211935413D01*
X104660000Y-210862595D01*
X106058282Y-210862595D01*
X106102039Y-211181675D01*
X106207205Y-211486088D01*
X106300186Y-211660044D01*
X106564587Y-211755808D01*
X107520395Y-210800000D01*
X107879605Y-210800000D01*
X108835413Y-211755808D01*
X109099814Y-211660044D01*
X109240704Y-211370429D01*
X109322384Y-211058892D01*
X109341718Y-210737405D01*
X109297961Y-210418325D01*
X109192795Y-210113912D01*
X109099814Y-209939956D01*
X108835413Y-209844192D01*
X107879605Y-210800000D01*
X107520395Y-210800000D01*
X106564587Y-209844192D01*
X106300186Y-209939956D01*
X106159296Y-210229571D01*
X106077616Y-210541108D01*
X106058282Y-210862595D01*
X104660000Y-210862595D01*
X104660000Y-209664587D01*
X106744192Y-209664587D01*
X107700000Y-210620395D01*
X108655808Y-209664587D01*
X108560044Y-209400186D01*
X108270429Y-209259296D01*
X107958892Y-209177616D01*
X107637405Y-209158282D01*
X107318325Y-209202039D01*
X107013912Y-209307205D01*
X106839956Y-209400186D01*
X106744192Y-209664587D01*
X104660000Y-209664587D01*
X104660000Y-205435413D01*
X106744192Y-205435413D01*
X106839956Y-205699814D01*
X107129571Y-205840704D01*
X107441108Y-205922384D01*
X107762595Y-205941718D01*
X108081675Y-205897961D01*
X108386088Y-205792795D01*
X108560044Y-205699814D01*
X108655808Y-205435413D01*
X107700000Y-204479605D01*
X106744192Y-205435413D01*
X104660000Y-205435413D01*
X104660000Y-204362595D01*
X106058282Y-204362595D01*
X106102039Y-204681675D01*
X106207205Y-204986088D01*
X106300186Y-205160044D01*
X106564587Y-205255808D01*
X107520395Y-204300000D01*
X107879605Y-204300000D01*
X108835413Y-205255808D01*
X109099814Y-205160044D01*
X109240704Y-204870429D01*
X109322384Y-204558892D01*
X109341718Y-204237405D01*
X109297961Y-203918325D01*
X109192795Y-203613912D01*
X109099814Y-203439956D01*
X108835413Y-203344192D01*
X107879605Y-204300000D01*
X107520395Y-204300000D01*
X106564587Y-203344192D01*
X106300186Y-203439956D01*
X106159296Y-203729571D01*
X106077616Y-204041108D01*
X106058282Y-204362595D01*
X104660000Y-204362595D01*
X104660000Y-203164587D01*
X106744192Y-203164587D01*
X107700000Y-204120395D01*
X108655808Y-203164587D01*
X108560044Y-202900186D01*
X108270429Y-202759296D01*
X107958892Y-202677616D01*
X107637405Y-202658282D01*
X107318325Y-202702039D01*
X107013912Y-202807205D01*
X106839956Y-202900186D01*
X106744192Y-203164587D01*
X104660000Y-203164587D01*
X104660000Y-201416481D01*
X105763124Y-201416481D01*
X106075308Y-201865177D01*
X106671259Y-202185612D01*
X107318273Y-202383626D01*
X107991484Y-202451610D01*
X108665023Y-202386949D01*
X109313006Y-202192130D01*
X109910530Y-201874639D01*
X109924692Y-201865177D01*
X110091797Y-201625000D01*
X113999428Y-201625000D01*
X114011688Y-201749482D01*
X114047998Y-201869180D01*
X114106963Y-201979494D01*
X114186315Y-202076185D01*
X114283006Y-202155537D01*
X114393320Y-202214502D01*
X114513018Y-202250812D01*
X114637500Y-202263072D01*
X114939250Y-202260000D01*
X115098000Y-202101250D01*
X115098000Y-201027000D01*
X114161250Y-201027000D01*
X114002500Y-201185750D01*
X113999428Y-201625000D01*
X110091797Y-201625000D01*
X110236876Y-201416481D01*
X108000000Y-199179605D01*
X105763124Y-201416481D01*
X104660000Y-201416481D01*
X104660000Y-199821179D01*
X104807870Y-200313006D01*
X105125361Y-200910530D01*
X105134823Y-200924692D01*
X105583519Y-201236876D01*
X107820395Y-199000000D01*
X108179605Y-199000000D01*
X110416481Y-201236876D01*
X110865177Y-200924692D01*
X111185612Y-200328741D01*
X111232663Y-200175000D01*
X113999428Y-200175000D01*
X114002500Y-200614250D01*
X114161250Y-200773000D01*
X115098000Y-200773000D01*
X115098000Y-199698750D01*
X114939250Y-199540000D01*
X114637500Y-199536928D01*
X114513018Y-199549188D01*
X114393320Y-199585498D01*
X114283006Y-199644463D01*
X114186315Y-199723815D01*
X114106963Y-199820506D01*
X114047998Y-199930820D01*
X114011688Y-200050518D01*
X113999428Y-200175000D01*
X111232663Y-200175000D01*
X111383626Y-199681727D01*
X111451610Y-199008516D01*
X111386949Y-198334977D01*
X111192130Y-197686994D01*
X110874639Y-197089470D01*
X110865177Y-197075308D01*
X110416481Y-196763124D01*
X108179605Y-199000000D01*
X107820395Y-199000000D01*
X105583519Y-196763124D01*
X105134823Y-197075308D01*
X104814388Y-197671259D01*
X104660000Y-198175724D01*
X104660000Y-195660000D01*
X107178821Y-195660000D01*
X106686994Y-195807870D01*
G04 #@! TA.AperFunction,Conductor*
D23*
G36*
X106686994Y-195807870D02*
G01*
X106089470Y-196125361D01*
X106075308Y-196134823D01*
X105763124Y-196583519D01*
X108000000Y-198820395D01*
X110236876Y-196583519D01*
X109924692Y-196134823D01*
X109328741Y-195814388D01*
X108824276Y-195660000D01*
X114123000Y-195660000D01*
X114123000Y-196231649D01*
X113996589Y-196284010D01*
X113753368Y-196446525D01*
X113546525Y-196653368D01*
X113384010Y-196896589D01*
X113272068Y-197166842D01*
X113215000Y-197453740D01*
X113215000Y-197746260D01*
X113272068Y-198033158D01*
X113384010Y-198303411D01*
X113546525Y-198546632D01*
X113753368Y-198753475D01*
X113996589Y-198915990D01*
X114266842Y-199027932D01*
X114553740Y-199085000D01*
X114846260Y-199085000D01*
X115133158Y-199027932D01*
X115403411Y-198915990D01*
X115646632Y-198753475D01*
X115853475Y-198546632D01*
X115970000Y-198372240D01*
X116030000Y-198462037D01*
X116030001Y-199577405D01*
X115936982Y-199549188D01*
X115812500Y-199536928D01*
X115510750Y-199540000D01*
X115352000Y-199698750D01*
X115352000Y-200773000D01*
X115372000Y-200773000D01*
X115372000Y-201027000D01*
X115352000Y-201027000D01*
X115352000Y-202101250D01*
X115510750Y-202260000D01*
X115812500Y-202263072D01*
X115936982Y-202250812D01*
X116056680Y-202214502D01*
X116166994Y-202155537D01*
X116263685Y-202076185D01*
X116329158Y-201996406D01*
X116334538Y-202002962D01*
X116469114Y-202113405D01*
X116622650Y-202195472D01*
X116789246Y-202246008D01*
X116962500Y-202263072D01*
X117637500Y-202263072D01*
X117810754Y-202246008D01*
X117977350Y-202195472D01*
X118130886Y-202113405D01*
X118135035Y-202110000D01*
X118898802Y-202110000D01*
X119402372Y-202613570D01*
X119440261Y-202659739D01*
X119624508Y-202810946D01*
X119834713Y-202923303D01*
X120061928Y-202992228D01*
X120061928Y-203300000D01*
X120078992Y-203473254D01*
X120129528Y-203639850D01*
X120211595Y-203793386D01*
X120322038Y-203927962D01*
X120456614Y-204038405D01*
X120610150Y-204120472D01*
X120776746Y-204171008D01*
X120950000Y-204188072D01*
X122050000Y-204188072D01*
X122223254Y-204171008D01*
X122389850Y-204120472D01*
X122543386Y-204038405D01*
X122677962Y-203927962D01*
X122788405Y-203793386D01*
X122870472Y-203639850D01*
X122921008Y-203473254D01*
X122938072Y-203300000D01*
X122938072Y-203149269D01*
X125202368Y-205413566D01*
X125240261Y-205459739D01*
X125424508Y-205610946D01*
X125634713Y-205723303D01*
X125862799Y-205792492D01*
X126040563Y-205810000D01*
X126040565Y-205810000D01*
X126100000Y-205815854D01*
X126159435Y-205810000D01*
X127623000Y-205810000D01*
X127623000Y-206589080D01*
X127501939Y-206565000D01*
X127298061Y-206565000D01*
X127098102Y-206604774D01*
X126909744Y-206682795D01*
X126740226Y-206796063D01*
X126596063Y-206940226D01*
X126482795Y-207109744D01*
X126404774Y-207298102D01*
X126375908Y-207443225D01*
X124038574Y-209780559D01*
X124006710Y-209806709D01*
X123980562Y-209838571D01*
X123902364Y-209933855D01*
X123824828Y-210078914D01*
X123777082Y-210236312D01*
X123760960Y-210400000D01*
X123765001Y-210441028D01*
X123765000Y-213965000D01*
X123651016Y-213965000D01*
X123609998Y-213960960D01*
X123568980Y-213965000D01*
X123568979Y-213965000D01*
X123446309Y-213977082D01*
X123288911Y-214024828D01*
X123143852Y-214102364D01*
X123052808Y-214177082D01*
X123016707Y-214206709D01*
X122990561Y-214238568D01*
X122856129Y-214373000D01*
X119472500Y-214373000D01*
X119472500Y-212178518D01*
X119476540Y-212137499D01*
X119460418Y-211973811D01*
X119412672Y-211816413D01*
X119361044Y-211719824D01*
X120256775Y-210824092D01*
X120401898Y-210795226D01*
X120590256Y-210717205D01*
X120759774Y-210603937D01*
X120903937Y-210459774D01*
X121017205Y-210290256D01*
X121095226Y-210101898D01*
X121135000Y-209901939D01*
X121135000Y-209698061D01*
X121112632Y-209585607D01*
X121214250Y-209585000D01*
X121373000Y-209426250D01*
X121373000Y-207327000D01*
X121627000Y-207327000D01*
X121627000Y-209426250D01*
X121785750Y-209585000D01*
X122300000Y-209588072D01*
X122424482Y-209575812D01*
X122544180Y-209539502D01*
X122654494Y-209480537D01*
X122751185Y-209401185D01*
X122830537Y-209304494D01*
X122889502Y-209194180D01*
X122925812Y-209074482D01*
X122938072Y-208950000D01*
X122935000Y-207485750D01*
X122776250Y-207327000D01*
X121627000Y-207327000D01*
X121373000Y-207327000D01*
X120223750Y-207327000D01*
X120065000Y-207485750D01*
X120062316Y-208765000D01*
X119998061Y-208765000D01*
X119798102Y-208804774D01*
X119609744Y-208882795D01*
X119440226Y-208996063D01*
X119336115Y-209100174D01*
X119338072Y-208900000D01*
X119325812Y-208775518D01*
X119289502Y-208655820D01*
X119230537Y-208545506D01*
X119151185Y-208448815D01*
X119054494Y-208369463D01*
X118944180Y-208310498D01*
X118824482Y-208274188D01*
X118700000Y-208261928D01*
X118285750Y-208265000D01*
X118127000Y-208423750D01*
X118127000Y-209373000D01*
X118147000Y-209373000D01*
X118147000Y-209627000D01*
X118127000Y-209627000D01*
X118127000Y-209647000D01*
X117873000Y-209647000D01*
X117873000Y-209627000D01*
X116823750Y-209627000D01*
X116665000Y-209785750D01*
X116661928Y-210100000D01*
X116674188Y-210224482D01*
X116710498Y-210344180D01*
X116769463Y-210454494D01*
X116848815Y-210551185D01*
X116878276Y-210575363D01*
X116811595Y-210656613D01*
X116729528Y-210810149D01*
X116678992Y-210976745D01*
X116661928Y-211149999D01*
X116661928Y-211850001D01*
X116678992Y-212023255D01*
X116729528Y-212189851D01*
X116811595Y-212343387D01*
X116922038Y-212477962D01*
X117056613Y-212588405D01*
X117210149Y-212670472D01*
X117376745Y-212721008D01*
X117549999Y-212738072D01*
X117802501Y-212738072D01*
X117802501Y-214765000D01*
X117698061Y-214765000D01*
X117498102Y-214804774D01*
X117309744Y-214882795D01*
X117140226Y-214996063D01*
X116996063Y-215140226D01*
X116882795Y-215309744D01*
X116804774Y-215498102D01*
X116765000Y-215698061D01*
X116765000Y-215901939D01*
X116804774Y-216101898D01*
X116882795Y-216290256D01*
X116965001Y-216413286D01*
X116965000Y-218465000D01*
X116898061Y-218465000D01*
X116698102Y-218504774D01*
X116509744Y-218582795D01*
X116386715Y-218665000D01*
X116214738Y-218665000D01*
X116208508Y-218601746D01*
X116157972Y-218435150D01*
X116075905Y-218281614D01*
X115965462Y-218147038D01*
X115835000Y-218039971D01*
X115835000Y-214841018D01*
X115839040Y-214800000D01*
X115832433Y-214732913D01*
X115822918Y-214636311D01*
X115775172Y-214478913D01*
X115697636Y-214333854D01*
X115593291Y-214206709D01*
X115561427Y-214180559D01*
X113346553Y-211965686D01*
X113469987Y-211842252D01*
X113648918Y-211574463D01*
X113772168Y-211276912D01*
X113835000Y-210961033D01*
X113835000Y-210638967D01*
X113772168Y-210323088D01*
X113648918Y-210025537D01*
X113469987Y-209757748D01*
X113242252Y-209530013D01*
X113035000Y-209391532D01*
X113035000Y-208900000D01*
X116661928Y-208900000D01*
X116665000Y-209214250D01*
X116823750Y-209373000D01*
X117873000Y-209373000D01*
X117873000Y-208423750D01*
X117714250Y-208265000D01*
X117300000Y-208261928D01*
X117175518Y-208274188D01*
X117055820Y-208310498D01*
X116945506Y-208369463D01*
X116848815Y-208448815D01*
X116769463Y-208545506D01*
X116710498Y-208655820D01*
X116674188Y-208775518D01*
X116661928Y-208900000D01*
X113035000Y-208900000D01*
X113035000Y-205708468D01*
X113242252Y-205569987D01*
X113362239Y-205450000D01*
X120061928Y-205450000D01*
X120065000Y-206914250D01*
X120223750Y-207073000D01*
X121373000Y-207073000D01*
X121373000Y-204973750D01*
X121627000Y-204973750D01*
X121627000Y-207073000D01*
X122776250Y-207073000D01*
X122935000Y-206914250D01*
X122938072Y-205450000D01*
X122925812Y-205325518D01*
X122889502Y-205205820D01*
X122830537Y-205095506D01*
X122751185Y-204998815D01*
X122654494Y-204919463D01*
X122544180Y-204860498D01*
X122424482Y-204824188D01*
X122300000Y-204811928D01*
X121785750Y-204815000D01*
X121627000Y-204973750D01*
X121373000Y-204973750D01*
X121214250Y-204815000D01*
X120700000Y-204811928D01*
X120575518Y-204824188D01*
X120455820Y-204860498D01*
X120345506Y-204919463D01*
X120248815Y-204998815D01*
X120169463Y-205095506D01*
X120110498Y-205205820D01*
X120074188Y-205325518D01*
X120061928Y-205450000D01*
X113362239Y-205450000D01*
X113469987Y-205342252D01*
X113648918Y-205074463D01*
X113772168Y-204776912D01*
X113835000Y-204461033D01*
X113835000Y-204138967D01*
X113772168Y-203823088D01*
X113648918Y-203525537D01*
X113469987Y-203257748D01*
X113242252Y-203030013D01*
X112974463Y-202851082D01*
X112676912Y-202727832D01*
X112361033Y-202665000D01*
X112038967Y-202665000D01*
X111723088Y-202727832D01*
X111425537Y-202851082D01*
X111157748Y-203030013D01*
X110930013Y-203257748D01*
X110751082Y-203525537D01*
X110627832Y-203823088D01*
X110565000Y-204138967D01*
X110565000Y-204461033D01*
X110627832Y-204776912D01*
X110751082Y-205074463D01*
X110930013Y-205342252D01*
X111157748Y-205569987D01*
X111365001Y-205708469D01*
X111365000Y-209391531D01*
X111157748Y-209530013D01*
X110930013Y-209757748D01*
X110751082Y-210025537D01*
X110627832Y-210323088D01*
X110565000Y-210638967D01*
X110565000Y-210961033D01*
X110627832Y-211276912D01*
X110751082Y-211574463D01*
X110930013Y-211842252D01*
X111157748Y-212069987D01*
X111397191Y-212229978D01*
X111424828Y-212321086D01*
X111502364Y-212466145D01*
X111606709Y-212593291D01*
X111638579Y-212619446D01*
X114165001Y-215145869D01*
X114165000Y-218039971D01*
X114034538Y-218147038D01*
X114029158Y-218153594D01*
X113963685Y-218073815D01*
X113866994Y-217994463D01*
X113756680Y-217935498D01*
X113636982Y-217899188D01*
X113512500Y-217886928D01*
X113210750Y-217890000D01*
X113052000Y-218048750D01*
X113052000Y-219123000D01*
X113072000Y-219123000D01*
X113072000Y-219377000D01*
X113052000Y-219377000D01*
X113052000Y-219397000D01*
X112798000Y-219397000D01*
X112798000Y-219377000D01*
X112778000Y-219377000D01*
X112778000Y-219123000D01*
X112798000Y-219123000D01*
X112798000Y-218048750D01*
X112639250Y-217890000D01*
X112337500Y-217886928D01*
X112213018Y-217899188D01*
X112093320Y-217935498D01*
X111983006Y-217994463D01*
X111886315Y-218073815D01*
X111806963Y-218170506D01*
X111747998Y-218280820D01*
X111711688Y-218400518D01*
X111699428Y-218525000D01*
X111702500Y-218964250D01*
X111861248Y-219122998D01*
X111741366Y-219122998D01*
X110388072Y-217769705D01*
X110388072Y-216750000D01*
X110375812Y-216625518D01*
X110339502Y-216505820D01*
X110280537Y-216395506D01*
X110253576Y-216362654D01*
X110514250Y-216360000D01*
X110673000Y-216201250D01*
X110673000Y-215127000D01*
X110927000Y-215127000D01*
X110927000Y-216201250D01*
X111085750Y-216360000D01*
X111387500Y-216363072D01*
X111511982Y-216350812D01*
X111631680Y-216314502D01*
X111741994Y-216255537D01*
X111838685Y-216176185D01*
X111918037Y-216079494D01*
X111977002Y-215969180D01*
X112013312Y-215849482D01*
X112025572Y-215725000D01*
X112022500Y-215285750D01*
X111863750Y-215127000D01*
X110927000Y-215127000D01*
X110673000Y-215127000D01*
X110653000Y-215127000D01*
X110653000Y-214873000D01*
X110673000Y-214873000D01*
X110673000Y-213798750D01*
X110927000Y-213798750D01*
X110927000Y-214873000D01*
X111863750Y-214873000D01*
X112022500Y-214714250D01*
X112025572Y-214275000D01*
X112013312Y-214150518D01*
X111977002Y-214030820D01*
X111918037Y-213920506D01*
X111838685Y-213823815D01*
X111741994Y-213744463D01*
X111631680Y-213685498D01*
X111511982Y-213649188D01*
X111387500Y-213636928D01*
X111085750Y-213640000D01*
X110927000Y-213798750D01*
X110673000Y-213798750D01*
X110514250Y-213640000D01*
X110212500Y-213636928D01*
X110088018Y-213649188D01*
X109968320Y-213685498D01*
X109858006Y-213744463D01*
X109761315Y-213823815D01*
X109695842Y-213903594D01*
X109690462Y-213897038D01*
X109555886Y-213786595D01*
X109402350Y-213704528D01*
X109235754Y-213653992D01*
X109062500Y-213636928D01*
X108387500Y-213636928D01*
X108214246Y-213653992D01*
X108047650Y-213704528D01*
X107894114Y-213786595D01*
X107759538Y-213897038D01*
X107649095Y-214031614D01*
X107567028Y-214185150D01*
X107516492Y-214351746D01*
X107499428Y-214525000D01*
X107499428Y-215475000D01*
X107516492Y-215648254D01*
X107567028Y-215814850D01*
X107649095Y-215968386D01*
X107759538Y-216102962D01*
X107770463Y-216111928D01*
X107750000Y-216111928D01*
X107625518Y-216124188D01*
X107505820Y-216160498D01*
X107395506Y-216219463D01*
X107298815Y-216298815D01*
X107219463Y-216395506D01*
X107160498Y-216505820D01*
X107124188Y-216625518D01*
X107111928Y-216750000D01*
X107111928Y-221250000D01*
X107124188Y-221374482D01*
X107160498Y-221494180D01*
X107219463Y-221604494D01*
X107298815Y-221701185D01*
X107395506Y-221780537D01*
X107505820Y-221839502D01*
X107625518Y-221875812D01*
X107750000Y-221888072D01*
X109750000Y-221888072D01*
X109874482Y-221875812D01*
X109994180Y-221839502D01*
X110104494Y-221780537D01*
X110201185Y-221701185D01*
X110280537Y-221604494D01*
X110339502Y-221494180D01*
X110375812Y-221374482D01*
X110388072Y-221250000D01*
X110388072Y-220131440D01*
X111761928Y-221505296D01*
X111761928Y-221950001D01*
X111778992Y-222123255D01*
X111829528Y-222289851D01*
X111911595Y-222443387D01*
X112022038Y-222577962D01*
X112079354Y-222625000D01*
X112022038Y-222672038D01*
X111911595Y-222806613D01*
X111829528Y-222960149D01*
X111778992Y-223126745D01*
X111761928Y-223299999D01*
X111761928Y-223807203D01*
X110381891Y-225187241D01*
X110375812Y-225125518D01*
X110339502Y-225005820D01*
X110280537Y-224895506D01*
X110201185Y-224798815D01*
X110104494Y-224719463D01*
X109994180Y-224660498D01*
X109874482Y-224624188D01*
X109750000Y-224611928D01*
X107750000Y-224611928D01*
X107625518Y-224624188D01*
X107505820Y-224660498D01*
X107395506Y-224719463D01*
X107298815Y-224798815D01*
X107219463Y-224895506D01*
X107160498Y-225005820D01*
X107124188Y-225125518D01*
X107111928Y-225250000D01*
X107111928Y-229750000D01*
X107124188Y-229874482D01*
X107160498Y-229994180D01*
X107219463Y-230104494D01*
X107298815Y-230201185D01*
X107395506Y-230280537D01*
X107505820Y-230339502D01*
X107625518Y-230375812D01*
X107750000Y-230388072D01*
X107757963Y-230388072D01*
X107747038Y-230397038D01*
X107636595Y-230531614D01*
X107554528Y-230685150D01*
X107503992Y-230851746D01*
X107486928Y-231025000D01*
X107486928Y-231975000D01*
X107503992Y-232148254D01*
X107554528Y-232314850D01*
X107636595Y-232468386D01*
X107747038Y-232602962D01*
X107881614Y-232713405D01*
X108035150Y-232795472D01*
X108201746Y-232846008D01*
X108375000Y-232863072D01*
X109050000Y-232863072D01*
X109223254Y-232846008D01*
X109389850Y-232795472D01*
X109543386Y-232713405D01*
X109677962Y-232602962D01*
X109683342Y-232596406D01*
X109748815Y-232676185D01*
X109845506Y-232755537D01*
X109955820Y-232814502D01*
X110075518Y-232850812D01*
X110200000Y-232863072D01*
X110501750Y-232860000D01*
X110660500Y-232701250D01*
X110660500Y-231627000D01*
X110914500Y-231627000D01*
X110914500Y-232701250D01*
X111073250Y-232860000D01*
X111375000Y-232863072D01*
X111499482Y-232850812D01*
X111619180Y-232814502D01*
X111729494Y-232755537D01*
X111826185Y-232676185D01*
X111905537Y-232579494D01*
X111964502Y-232469180D01*
X112000812Y-232349482D01*
X112013072Y-232225000D01*
X112010000Y-231785750D01*
X111851250Y-231627000D01*
X110914500Y-231627000D01*
X110660500Y-231627000D01*
X110640500Y-231627000D01*
X110640500Y-231373000D01*
X110660500Y-231373000D01*
X110660500Y-230298750D01*
X110914500Y-230298750D01*
X110914500Y-231373000D01*
X111851250Y-231373000D01*
X112010000Y-231214250D01*
X112013072Y-230775000D01*
X112000812Y-230650518D01*
X111964502Y-230530820D01*
X111905537Y-230420506D01*
X111826185Y-230323815D01*
X111729494Y-230244463D01*
X111619180Y-230185498D01*
X111499482Y-230149188D01*
X111375000Y-230136928D01*
X111073250Y-230140000D01*
X110914500Y-230298750D01*
X110660500Y-230298750D01*
X110501750Y-230140000D01*
X110253472Y-230137472D01*
X110280537Y-230104494D01*
X110339502Y-229994180D01*
X110375812Y-229874482D01*
X110388072Y-229750000D01*
X110388072Y-228975000D01*
X111736928Y-228975000D01*
X111749188Y-229099482D01*
X111785498Y-229219180D01*
X111844463Y-229329494D01*
X111923815Y-229426185D01*
X112020506Y-229505537D01*
X112130820Y-229564502D01*
X112250518Y-229600812D01*
X112375000Y-229613072D01*
X112676750Y-229610000D01*
X112835500Y-229451250D01*
X112835500Y-228377000D01*
X111898750Y-228377000D01*
X111740000Y-228535750D01*
X111736928Y-228975000D01*
X110388072Y-228975000D01*
X110388072Y-227542795D01*
X111803866Y-226127002D01*
X111936248Y-226127002D01*
X111777500Y-226285750D01*
X111774428Y-226725000D01*
X111786688Y-226849482D01*
X111822998Y-226969180D01*
X111881963Y-227079494D01*
X111900559Y-227102153D01*
X111844463Y-227170506D01*
X111785498Y-227280820D01*
X111749188Y-227400518D01*
X111736928Y-227525000D01*
X111740000Y-227964250D01*
X111898750Y-228123000D01*
X112835500Y-228123000D01*
X112835500Y-227238750D01*
X112873000Y-227201250D01*
X112873000Y-226127000D01*
X112853000Y-226127000D01*
X112853000Y-225873000D01*
X112873000Y-225873000D01*
X112873000Y-225853000D01*
X113127000Y-225853000D01*
X113127000Y-225873000D01*
X113147000Y-225873000D01*
X113147000Y-226127000D01*
X113127000Y-226127000D01*
X113127000Y-227011250D01*
X113089500Y-227048750D01*
X113089500Y-228123000D01*
X113109500Y-228123000D01*
X113109500Y-228377000D01*
X113089500Y-228377000D01*
X113089500Y-229451250D01*
X113248250Y-229610000D01*
X113550000Y-229613072D01*
X113674482Y-229600812D01*
X113794180Y-229564502D01*
X113904494Y-229505537D01*
X114001185Y-229426185D01*
X114066658Y-229346406D01*
X114072038Y-229352962D01*
X114165001Y-229429254D01*
X114165000Y-232591531D01*
X113957748Y-232730013D01*
X113730013Y-232957748D01*
X113551082Y-233225537D01*
X113427832Y-233523088D01*
X113365000Y-233838967D01*
X113365000Y-234161033D01*
X113427832Y-234476912D01*
X113551082Y-234774463D01*
X113730013Y-235042252D01*
X113957748Y-235269987D01*
X114225537Y-235448918D01*
X114523088Y-235572168D01*
X114838967Y-235635000D01*
X115161033Y-235635000D01*
X115476912Y-235572168D01*
X115774463Y-235448918D01*
X116042252Y-235269987D01*
X116269987Y-235042252D01*
X116448918Y-234774463D01*
X116572168Y-234476912D01*
X116635000Y-234161033D01*
X116635000Y-233838967D01*
X116572168Y-233523088D01*
X116448918Y-233225537D01*
X116269987Y-232957748D01*
X116042252Y-232730013D01*
X115835000Y-232591532D01*
X115835000Y-229481250D01*
X115868386Y-229463405D01*
X115902617Y-229435313D01*
X115966797Y-229590256D01*
X116080065Y-229759774D01*
X116224228Y-229903937D01*
X116393746Y-230017205D01*
X116582104Y-230095226D01*
X116782063Y-230135000D01*
X116985941Y-230135000D01*
X117185900Y-230095226D01*
X117374258Y-230017205D01*
X117495001Y-229936527D01*
X117495002Y-237628456D01*
X117226260Y-237575000D01*
X116933740Y-237575000D01*
X116646842Y-237632068D01*
X116376589Y-237744010D01*
X116133368Y-237906525D01*
X115926525Y-238113368D01*
X115764010Y-238356589D01*
X115652068Y-238626842D01*
X115595000Y-238913740D01*
X115595000Y-239206260D01*
X115652068Y-239493158D01*
X115764010Y-239763411D01*
X115926525Y-240006632D01*
X116133368Y-240213475D01*
X116307760Y-240330000D01*
X116133368Y-240446525D01*
X115926525Y-240653368D01*
X115764010Y-240896589D01*
X115652068Y-241166842D01*
X115595000Y-241453740D01*
X115595000Y-241746260D01*
X115652068Y-242033158D01*
X115764010Y-242303411D01*
X115926525Y-242546632D01*
X116133368Y-242753475D01*
X116376589Y-242915990D01*
X116646842Y-243027932D01*
X116933740Y-243085000D01*
X117226260Y-243085000D01*
X117513158Y-243027932D01*
X117783411Y-242915990D01*
X118026632Y-242753475D01*
X118233475Y-242546632D01*
X118350000Y-242372240D01*
X118466525Y-242546632D01*
X118673368Y-242753475D01*
X118916589Y-242915990D01*
X119186842Y-243027932D01*
X119473740Y-243085000D01*
X119623000Y-243085000D01*
X119623000Y-245340000D01*
X108821179Y-245340000D01*
X109313006Y-245192130D01*
X109910530Y-244874639D01*
X109924692Y-244865177D01*
X110236876Y-244416481D01*
X108000000Y-242179605D01*
X105763124Y-244416481D01*
X106075308Y-244865177D01*
X106671259Y-245185612D01*
X107175724Y-245340000D01*
X104660000Y-245340000D01*
X104660000Y-242821179D01*
X104807870Y-243313006D01*
X105125361Y-243910530D01*
X105134823Y-243924692D01*
X105583519Y-244236876D01*
X107820395Y-242000000D01*
X108179605Y-242000000D01*
X110416481Y-244236876D01*
X110865177Y-243924692D01*
X111185612Y-243328741D01*
X111383626Y-242681727D01*
X111451610Y-242008516D01*
X111386949Y-241334977D01*
X111192130Y-240686994D01*
X110874639Y-240089470D01*
X110865177Y-240075308D01*
X110416481Y-239763124D01*
X108179605Y-242000000D01*
X107820395Y-242000000D01*
X105583519Y-239763124D01*
X105134823Y-240075308D01*
X104814388Y-240671259D01*
X104660000Y-241175724D01*
X104660000Y-239583519D01*
X105763124Y-239583519D01*
X108000000Y-241820395D01*
X110236876Y-239583519D01*
X109924692Y-239134823D01*
X109328741Y-238814388D01*
X108681727Y-238616374D01*
X108008516Y-238548390D01*
X107334977Y-238613051D01*
X106686994Y-238807870D01*
X106089470Y-239125361D01*
X106075308Y-239134823D01*
X105763124Y-239583519D01*
X104660000Y-239583519D01*
X104660000Y-211935413D01*
X106744192Y-211935413D01*
X106839956Y-212199814D01*
X107129571Y-212340704D01*
X107441108Y-212422384D01*
X107762595Y-212441718D01*
X108081675Y-212397961D01*
X108386088Y-212292795D01*
X108560044Y-212199814D01*
X108655808Y-211935413D01*
X107700000Y-210979605D01*
X106744192Y-211935413D01*
X104660000Y-211935413D01*
X104660000Y-210862595D01*
X106058282Y-210862595D01*
X106102039Y-211181675D01*
X106207205Y-211486088D01*
X106300186Y-211660044D01*
X106564587Y-211755808D01*
X107520395Y-210800000D01*
X107879605Y-210800000D01*
X108835413Y-211755808D01*
X109099814Y-211660044D01*
X109240704Y-211370429D01*
X109322384Y-211058892D01*
X109341718Y-210737405D01*
X109297961Y-210418325D01*
X109192795Y-210113912D01*
X109099814Y-209939956D01*
X108835413Y-209844192D01*
X107879605Y-210800000D01*
X107520395Y-210800000D01*
X106564587Y-209844192D01*
X106300186Y-209939956D01*
X106159296Y-210229571D01*
X106077616Y-210541108D01*
X106058282Y-210862595D01*
X104660000Y-210862595D01*
X104660000Y-209664587D01*
X106744192Y-209664587D01*
X107700000Y-210620395D01*
X108655808Y-209664587D01*
X108560044Y-209400186D01*
X108270429Y-209259296D01*
X107958892Y-209177616D01*
X107637405Y-209158282D01*
X107318325Y-209202039D01*
X107013912Y-209307205D01*
X106839956Y-209400186D01*
X106744192Y-209664587D01*
X104660000Y-209664587D01*
X104660000Y-205435413D01*
X106744192Y-205435413D01*
X106839956Y-205699814D01*
X107129571Y-205840704D01*
X107441108Y-205922384D01*
X107762595Y-205941718D01*
X108081675Y-205897961D01*
X108386088Y-205792795D01*
X108560044Y-205699814D01*
X108655808Y-205435413D01*
X107700000Y-204479605D01*
X106744192Y-205435413D01*
X104660000Y-205435413D01*
X104660000Y-204362595D01*
X106058282Y-204362595D01*
X106102039Y-204681675D01*
X106207205Y-204986088D01*
X106300186Y-205160044D01*
X106564587Y-205255808D01*
X107520395Y-204300000D01*
X107879605Y-204300000D01*
X108835413Y-205255808D01*
X109099814Y-205160044D01*
X109240704Y-204870429D01*
X109322384Y-204558892D01*
X109341718Y-204237405D01*
X109297961Y-203918325D01*
X109192795Y-203613912D01*
X109099814Y-203439956D01*
X108835413Y-203344192D01*
X107879605Y-204300000D01*
X107520395Y-204300000D01*
X106564587Y-203344192D01*
X106300186Y-203439956D01*
X106159296Y-203729571D01*
X106077616Y-204041108D01*
X106058282Y-204362595D01*
X104660000Y-204362595D01*
X104660000Y-203164587D01*
X106744192Y-203164587D01*
X107700000Y-204120395D01*
X108655808Y-203164587D01*
X108560044Y-202900186D01*
X108270429Y-202759296D01*
X107958892Y-202677616D01*
X107637405Y-202658282D01*
X107318325Y-202702039D01*
X107013912Y-202807205D01*
X106839956Y-202900186D01*
X106744192Y-203164587D01*
X104660000Y-203164587D01*
X104660000Y-201416481D01*
X105763124Y-201416481D01*
X106075308Y-201865177D01*
X106671259Y-202185612D01*
X107318273Y-202383626D01*
X107991484Y-202451610D01*
X108665023Y-202386949D01*
X109313006Y-202192130D01*
X109910530Y-201874639D01*
X109924692Y-201865177D01*
X110091797Y-201625000D01*
X113999428Y-201625000D01*
X114011688Y-201749482D01*
X114047998Y-201869180D01*
X114106963Y-201979494D01*
X114186315Y-202076185D01*
X114283006Y-202155537D01*
X114393320Y-202214502D01*
X114513018Y-202250812D01*
X114637500Y-202263072D01*
X114939250Y-202260000D01*
X115098000Y-202101250D01*
X115098000Y-201027000D01*
X114161250Y-201027000D01*
X114002500Y-201185750D01*
X113999428Y-201625000D01*
X110091797Y-201625000D01*
X110236876Y-201416481D01*
X108000000Y-199179605D01*
X105763124Y-201416481D01*
X104660000Y-201416481D01*
X104660000Y-199821179D01*
X104807870Y-200313006D01*
X105125361Y-200910530D01*
X105134823Y-200924692D01*
X105583519Y-201236876D01*
X107820395Y-199000000D01*
X108179605Y-199000000D01*
X110416481Y-201236876D01*
X110865177Y-200924692D01*
X111185612Y-200328741D01*
X111232663Y-200175000D01*
X113999428Y-200175000D01*
X114002500Y-200614250D01*
X114161250Y-200773000D01*
X115098000Y-200773000D01*
X115098000Y-199698750D01*
X114939250Y-199540000D01*
X114637500Y-199536928D01*
X114513018Y-199549188D01*
X114393320Y-199585498D01*
X114283006Y-199644463D01*
X114186315Y-199723815D01*
X114106963Y-199820506D01*
X114047998Y-199930820D01*
X114011688Y-200050518D01*
X113999428Y-200175000D01*
X111232663Y-200175000D01*
X111383626Y-199681727D01*
X111451610Y-199008516D01*
X111386949Y-198334977D01*
X111192130Y-197686994D01*
X110874639Y-197089470D01*
X110865177Y-197075308D01*
X110416481Y-196763124D01*
X108179605Y-199000000D01*
X107820395Y-199000000D01*
X105583519Y-196763124D01*
X105134823Y-197075308D01*
X104814388Y-197671259D01*
X104660000Y-198175724D01*
X104660000Y-195660000D01*
X107178821Y-195660000D01*
X106686994Y-195807870D01*
G37*
G04 #@! TD.AperFunction*
D22*
X144340000Y-241178821D02*
X144192130Y-240686994D01*
X143874639Y-240089470D01*
X143865177Y-240075308D01*
X143416481Y-239763124D01*
X141179605Y-242000000D01*
X143416481Y-244236876D01*
X143865177Y-243924692D01*
X144185612Y-243328741D01*
X144340000Y-242824275D01*
X144340000Y-245340000D01*
X141821179Y-245340000D01*
X142313006Y-245192130D01*
X142910530Y-244874639D01*
X142924692Y-244865177D01*
X143236876Y-244416481D01*
X141000000Y-242179605D01*
X138763124Y-244416481D01*
X139075308Y-244865177D01*
X139671259Y-245185612D01*
X140175724Y-245340000D01*
X120327000Y-245340000D01*
X120327000Y-244450000D01*
X132061928Y-244450000D01*
X132074188Y-244574482D01*
X132110498Y-244694180D01*
X132169463Y-244804494D01*
X132248815Y-244901185D01*
X132345506Y-244980537D01*
X132455820Y-245039502D01*
X132575518Y-245075812D01*
X132700000Y-245088072D01*
X133214250Y-245085000D01*
X133373000Y-244926250D01*
X133373000Y-242827000D01*
X133627000Y-242827000D01*
X133627000Y-244926250D01*
X133785750Y-245085000D01*
X134300000Y-245088072D01*
X134424482Y-245075812D01*
X134544180Y-245039502D01*
X134654494Y-244980537D01*
X134751185Y-244901185D01*
X134830537Y-244804494D01*
X134889502Y-244694180D01*
X134925812Y-244574482D01*
X134938072Y-244450000D01*
X134935000Y-242985750D01*
X134776250Y-242827000D01*
X133627000Y-242827000D01*
X133373000Y-242827000D01*
X132223750Y-242827000D01*
X132065000Y-242985750D01*
X132061928Y-244450000D01*
X120327000Y-244450000D01*
X120327000Y-243687500D01*
X126436928Y-243687500D01*
X126449188Y-243811982D01*
X126485498Y-243931680D01*
X126544463Y-244041994D01*
X126623815Y-244138685D01*
X126720506Y-244218037D01*
X126830820Y-244277002D01*
X126950518Y-244313312D01*
X127075000Y-244325572D01*
X127514250Y-244322500D01*
X127673000Y-244163750D01*
X127673000Y-243227000D01*
X127927000Y-243227000D01*
X127927000Y-244163750D01*
X128085750Y-244322500D01*
X128525000Y-244325572D01*
X128649482Y-244313312D01*
X128769180Y-244277002D01*
X128879494Y-244218037D01*
X128976185Y-244138685D01*
X129055537Y-244041994D01*
X129114502Y-243931680D01*
X129150812Y-243811982D01*
X129163072Y-243687500D01*
X129160000Y-243385750D01*
X129001250Y-243227000D01*
X127927000Y-243227000D01*
X127673000Y-243227000D01*
X126598750Y-243227000D01*
X126440000Y-243385750D01*
X126436928Y-243687500D01*
X120327000Y-243687500D01*
X120327000Y-242913592D01*
X120566632Y-242753475D01*
X120773475Y-242546632D01*
X120890000Y-242372240D01*
X121006525Y-242546632D01*
X121213368Y-242753475D01*
X121456589Y-242915990D01*
X121726842Y-243027932D01*
X122013740Y-243085000D01*
X122306260Y-243085000D01*
X122593158Y-243027932D01*
X122863411Y-242915990D01*
X123106632Y-242753475D01*
X123238487Y-242621620D01*
X123260498Y-242694180D01*
X123319463Y-242804494D01*
X123398815Y-242901185D01*
X123495506Y-242980537D01*
X123605820Y-243039502D01*
X123725518Y-243075812D01*
X123850000Y-243088072D01*
X125550000Y-243088072D01*
X125674482Y-243075812D01*
X125794180Y-243039502D01*
X125904494Y-242980537D01*
X126001185Y-242901185D01*
X126080537Y-242804494D01*
X126139502Y-242694180D01*
X126175812Y-242574482D01*
X126188072Y-242450000D01*
X126188072Y-242235000D01*
X126503308Y-242235000D01*
X126485498Y-242268320D01*
X126449188Y-242388018D01*
X126436928Y-242512500D01*
X126440000Y-242814250D01*
X126598750Y-242973000D01*
X127673000Y-242973000D01*
X127673000Y-242953000D01*
X127927000Y-242953000D01*
X127927000Y-242973000D01*
X129001250Y-242973000D01*
X129160000Y-242814250D01*
X129163072Y-242512500D01*
X129150812Y-242388018D01*
X129114502Y-242268320D01*
X129055537Y-242158006D01*
X128976185Y-242061315D01*
X128896406Y-241995842D01*
X128902962Y-241990462D01*
X129013405Y-241855886D01*
X129095472Y-241702350D01*
X129146008Y-241535754D01*
X129161911Y-241374286D01*
X129586197Y-240950000D01*
X132061928Y-240950000D01*
X132065000Y-242414250D01*
X132223750Y-242573000D01*
X133373000Y-242573000D01*
X133373000Y-240473750D01*
X133627000Y-240473750D01*
X133627000Y-242573000D01*
X134776250Y-242573000D01*
X134935000Y-242414250D01*
X134935886Y-241991484D01*
X137548390Y-241991484D01*
X137613051Y-242665023D01*
X137807870Y-243313006D01*
X138125361Y-243910530D01*
X138134823Y-243924692D01*
X138583519Y-244236876D01*
X140820395Y-242000000D01*
X138583519Y-239763124D01*
X138134823Y-240075308D01*
X137814388Y-240671259D01*
X137616374Y-241318273D01*
X137548390Y-241991484D01*
X134935886Y-241991484D01*
X134938072Y-240950000D01*
X134925812Y-240825518D01*
X134889502Y-240705820D01*
X134830537Y-240595506D01*
X134751185Y-240498815D01*
X134654494Y-240419463D01*
X134544180Y-240360498D01*
X134424482Y-240324188D01*
X134300000Y-240311928D01*
X133785750Y-240315000D01*
X133627000Y-240473750D01*
X133373000Y-240473750D01*
X133214250Y-240315000D01*
X132700000Y-240311928D01*
X132575518Y-240324188D01*
X132455820Y-240360498D01*
X132345506Y-240419463D01*
X132248815Y-240498815D01*
X132169463Y-240595506D01*
X132110498Y-240705820D01*
X132074188Y-240825518D01*
X132061928Y-240950000D01*
X129586197Y-240950000D01*
X132026198Y-238510000D01*
X132061928Y-238510000D01*
X132061928Y-238800000D01*
X132078992Y-238973254D01*
X132129528Y-239139850D01*
X132211595Y-239293386D01*
X132322038Y-239427962D01*
X132456614Y-239538405D01*
X132610150Y-239620472D01*
X132776746Y-239671008D01*
X132950000Y-239688072D01*
X134050000Y-239688072D01*
X134223254Y-239671008D01*
X134389850Y-239620472D01*
X134458983Y-239583519D01*
X138763124Y-239583519D01*
X141000000Y-241820395D01*
X143236876Y-239583519D01*
X142924692Y-239134823D01*
X142328741Y-238814388D01*
X141681727Y-238616374D01*
X141008516Y-238548390D01*
X140334977Y-238613051D01*
X139686994Y-238807870D01*
X139089470Y-239125361D01*
X139075308Y-239134823D01*
X138763124Y-239583519D01*
X134458983Y-239583519D01*
X134543386Y-239538405D01*
X134677962Y-239427962D01*
X134788405Y-239293386D01*
X134870472Y-239139850D01*
X134921008Y-238973254D01*
X134938072Y-238800000D01*
X134938072Y-237573126D01*
X135313565Y-237197633D01*
X135359739Y-237159739D01*
X135510946Y-236975492D01*
X135603712Y-236801939D01*
X135623303Y-236765288D01*
X135692492Y-236537202D01*
X135715854Y-236300000D01*
X135710000Y-236240562D01*
X135710000Y-233501197D01*
X136488576Y-232722621D01*
X136534749Y-232684729D01*
X136685956Y-232500482D01*
X136798313Y-232290277D01*
X136867502Y-232062191D01*
X136885010Y-231884427D01*
X136885010Y-231884426D01*
X136890864Y-231824991D01*
X136885010Y-231765556D01*
X136885010Y-223127000D01*
X144340000Y-223127000D01*
X144340000Y-241178821D01*
G04 #@! TA.AperFunction,Conductor*
D23*
G36*
X144340000Y-241178821D02*
G01*
X144192130Y-240686994D01*
X143874639Y-240089470D01*
X143865177Y-240075308D01*
X143416481Y-239763124D01*
X141179605Y-242000000D01*
X143416481Y-244236876D01*
X143865177Y-243924692D01*
X144185612Y-243328741D01*
X144340000Y-242824275D01*
X144340000Y-245340000D01*
X141821179Y-245340000D01*
X142313006Y-245192130D01*
X142910530Y-244874639D01*
X142924692Y-244865177D01*
X143236876Y-244416481D01*
X141000000Y-242179605D01*
X138763124Y-244416481D01*
X139075308Y-244865177D01*
X139671259Y-245185612D01*
X140175724Y-245340000D01*
X120327000Y-245340000D01*
X120327000Y-244450000D01*
X132061928Y-244450000D01*
X132074188Y-244574482D01*
X132110498Y-244694180D01*
X132169463Y-244804494D01*
X132248815Y-244901185D01*
X132345506Y-244980537D01*
X132455820Y-245039502D01*
X132575518Y-245075812D01*
X132700000Y-245088072D01*
X133214250Y-245085000D01*
X133373000Y-244926250D01*
X133373000Y-242827000D01*
X133627000Y-242827000D01*
X133627000Y-244926250D01*
X133785750Y-245085000D01*
X134300000Y-245088072D01*
X134424482Y-245075812D01*
X134544180Y-245039502D01*
X134654494Y-244980537D01*
X134751185Y-244901185D01*
X134830537Y-244804494D01*
X134889502Y-244694180D01*
X134925812Y-244574482D01*
X134938072Y-244450000D01*
X134935000Y-242985750D01*
X134776250Y-242827000D01*
X133627000Y-242827000D01*
X133373000Y-242827000D01*
X132223750Y-242827000D01*
X132065000Y-242985750D01*
X132061928Y-244450000D01*
X120327000Y-244450000D01*
X120327000Y-243687500D01*
X126436928Y-243687500D01*
X126449188Y-243811982D01*
X126485498Y-243931680D01*
X126544463Y-244041994D01*
X126623815Y-244138685D01*
X126720506Y-244218037D01*
X126830820Y-244277002D01*
X126950518Y-244313312D01*
X127075000Y-244325572D01*
X127514250Y-244322500D01*
X127673000Y-244163750D01*
X127673000Y-243227000D01*
X127927000Y-243227000D01*
X127927000Y-244163750D01*
X128085750Y-244322500D01*
X128525000Y-244325572D01*
X128649482Y-244313312D01*
X128769180Y-244277002D01*
X128879494Y-244218037D01*
X128976185Y-244138685D01*
X129055537Y-244041994D01*
X129114502Y-243931680D01*
X129150812Y-243811982D01*
X129163072Y-243687500D01*
X129160000Y-243385750D01*
X129001250Y-243227000D01*
X127927000Y-243227000D01*
X127673000Y-243227000D01*
X126598750Y-243227000D01*
X126440000Y-243385750D01*
X126436928Y-243687500D01*
X120327000Y-243687500D01*
X120327000Y-242913592D01*
X120566632Y-242753475D01*
X120773475Y-242546632D01*
X120890000Y-242372240D01*
X121006525Y-242546632D01*
X121213368Y-242753475D01*
X121456589Y-242915990D01*
X121726842Y-243027932D01*
X122013740Y-243085000D01*
X122306260Y-243085000D01*
X122593158Y-243027932D01*
X122863411Y-242915990D01*
X123106632Y-242753475D01*
X123238487Y-242621620D01*
X123260498Y-242694180D01*
X123319463Y-242804494D01*
X123398815Y-242901185D01*
X123495506Y-242980537D01*
X123605820Y-243039502D01*
X123725518Y-243075812D01*
X123850000Y-243088072D01*
X125550000Y-243088072D01*
X125674482Y-243075812D01*
X125794180Y-243039502D01*
X125904494Y-242980537D01*
X126001185Y-242901185D01*
X126080537Y-242804494D01*
X126139502Y-242694180D01*
X126175812Y-242574482D01*
X126188072Y-242450000D01*
X126188072Y-242235000D01*
X126503308Y-242235000D01*
X126485498Y-242268320D01*
X126449188Y-242388018D01*
X126436928Y-242512500D01*
X126440000Y-242814250D01*
X126598750Y-242973000D01*
X127673000Y-242973000D01*
X127673000Y-242953000D01*
X127927000Y-242953000D01*
X127927000Y-242973000D01*
X129001250Y-242973000D01*
X129160000Y-242814250D01*
X129163072Y-242512500D01*
X129150812Y-242388018D01*
X129114502Y-242268320D01*
X129055537Y-242158006D01*
X128976185Y-242061315D01*
X128896406Y-241995842D01*
X128902962Y-241990462D01*
X129013405Y-241855886D01*
X129095472Y-241702350D01*
X129146008Y-241535754D01*
X129161911Y-241374286D01*
X129586197Y-240950000D01*
X132061928Y-240950000D01*
X132065000Y-242414250D01*
X132223750Y-242573000D01*
X133373000Y-242573000D01*
X133373000Y-240473750D01*
X133627000Y-240473750D01*
X133627000Y-242573000D01*
X134776250Y-242573000D01*
X134935000Y-242414250D01*
X134935886Y-241991484D01*
X137548390Y-241991484D01*
X137613051Y-242665023D01*
X137807870Y-243313006D01*
X138125361Y-243910530D01*
X138134823Y-243924692D01*
X138583519Y-244236876D01*
X140820395Y-242000000D01*
X138583519Y-239763124D01*
X138134823Y-240075308D01*
X137814388Y-240671259D01*
X137616374Y-241318273D01*
X137548390Y-241991484D01*
X134935886Y-241991484D01*
X134938072Y-240950000D01*
X134925812Y-240825518D01*
X134889502Y-240705820D01*
X134830537Y-240595506D01*
X134751185Y-240498815D01*
X134654494Y-240419463D01*
X134544180Y-240360498D01*
X134424482Y-240324188D01*
X134300000Y-240311928D01*
X133785750Y-240315000D01*
X133627000Y-240473750D01*
X133373000Y-240473750D01*
X133214250Y-240315000D01*
X132700000Y-240311928D01*
X132575518Y-240324188D01*
X132455820Y-240360498D01*
X132345506Y-240419463D01*
X132248815Y-240498815D01*
X132169463Y-240595506D01*
X132110498Y-240705820D01*
X132074188Y-240825518D01*
X132061928Y-240950000D01*
X129586197Y-240950000D01*
X132026198Y-238510000D01*
X132061928Y-238510000D01*
X132061928Y-238800000D01*
X132078992Y-238973254D01*
X132129528Y-239139850D01*
X132211595Y-239293386D01*
X132322038Y-239427962D01*
X132456614Y-239538405D01*
X132610150Y-239620472D01*
X132776746Y-239671008D01*
X132950000Y-239688072D01*
X134050000Y-239688072D01*
X134223254Y-239671008D01*
X134389850Y-239620472D01*
X134458983Y-239583519D01*
X138763124Y-239583519D01*
X141000000Y-241820395D01*
X143236876Y-239583519D01*
X142924692Y-239134823D01*
X142328741Y-238814388D01*
X141681727Y-238616374D01*
X141008516Y-238548390D01*
X140334977Y-238613051D01*
X139686994Y-238807870D01*
X139089470Y-239125361D01*
X139075308Y-239134823D01*
X138763124Y-239583519D01*
X134458983Y-239583519D01*
X134543386Y-239538405D01*
X134677962Y-239427962D01*
X134788405Y-239293386D01*
X134870472Y-239139850D01*
X134921008Y-238973254D01*
X134938072Y-238800000D01*
X134938072Y-237573126D01*
X135313565Y-237197633D01*
X135359739Y-237159739D01*
X135510946Y-236975492D01*
X135603712Y-236801939D01*
X135623303Y-236765288D01*
X135692492Y-236537202D01*
X135715854Y-236300000D01*
X135710000Y-236240562D01*
X135710000Y-233501197D01*
X136488576Y-232722621D01*
X136534749Y-232684729D01*
X136685956Y-232500482D01*
X136798313Y-232290277D01*
X136867502Y-232062191D01*
X136885010Y-231884427D01*
X136885010Y-231884426D01*
X136890864Y-231824991D01*
X136885010Y-231765556D01*
X136885010Y-223127000D01*
X144340000Y-223127000D01*
X144340000Y-241178821D01*
G37*
G04 #@! TD.AperFunction*
D22*
X127190226Y-231803937D02*
X127359744Y-231917205D01*
X127548102Y-231995226D01*
X127748061Y-232035000D01*
X127951939Y-232035000D01*
X128151898Y-231995226D01*
X128240000Y-231958732D01*
X128240000Y-232797761D01*
X128180013Y-232857748D01*
X128001082Y-233125537D01*
X127877832Y-233423088D01*
X127815000Y-233738967D01*
X127815000Y-234061033D01*
X127877832Y-234376912D01*
X128001082Y-234674463D01*
X128180013Y-234942252D01*
X128407748Y-235169987D01*
X128675537Y-235348918D01*
X128973088Y-235472168D01*
X129288967Y-235535000D01*
X129611033Y-235535000D01*
X129926912Y-235472168D01*
X130224463Y-235348918D01*
X130492252Y-235169987D01*
X130502239Y-235160000D01*
X132336706Y-235160000D01*
X132322038Y-235172038D01*
X132211595Y-235306614D01*
X132129528Y-235460150D01*
X132078992Y-235626746D01*
X132061928Y-235800000D01*
X132061928Y-236090000D01*
X131584438Y-236090000D01*
X131525000Y-236084146D01*
X131287798Y-236107508D01*
X131059712Y-236176697D01*
X130997886Y-236209744D01*
X130849508Y-236289054D01*
X130665261Y-236440261D01*
X130627368Y-236486434D01*
X127313214Y-239800589D01*
X127166895Y-239815000D01*
X125970444Y-239815000D01*
X126044157Y-239691252D01*
X126141481Y-239416891D01*
X126020814Y-239187000D01*
X124827000Y-239187000D01*
X124827000Y-239207000D01*
X124573000Y-239207000D01*
X124573000Y-239187000D01*
X124553000Y-239187000D01*
X124553000Y-238933000D01*
X124573000Y-238933000D01*
X124573000Y-237739845D01*
X124827000Y-237739845D01*
X124827000Y-238933000D01*
X126020814Y-238933000D01*
X126141481Y-238703109D01*
X126044157Y-238428748D01*
X125895178Y-238178645D01*
X125700269Y-237962412D01*
X125466920Y-237788359D01*
X125204099Y-237663175D01*
X125056890Y-237618524D01*
X124827000Y-237739845D01*
X124573000Y-237739845D01*
X124343110Y-237618524D01*
X124245001Y-237648282D01*
X124245001Y-232973231D01*
X124298102Y-232995226D01*
X124498061Y-233035000D01*
X124665001Y-233035000D01*
X124665001Y-235086714D01*
X124582795Y-235209744D01*
X124504774Y-235398102D01*
X124465000Y-235598061D01*
X124465000Y-235801939D01*
X124504774Y-236001898D01*
X124582795Y-236190256D01*
X124696063Y-236359774D01*
X124840226Y-236503937D01*
X125009744Y-236617205D01*
X125198102Y-236695226D01*
X125265000Y-236708533D01*
X125265000Y-236801939D01*
X125304774Y-237001898D01*
X125382795Y-237190256D01*
X125496063Y-237359774D01*
X125640226Y-237503937D01*
X125809744Y-237617205D01*
X125998102Y-237695226D01*
X126198061Y-237735000D01*
X126401939Y-237735000D01*
X126601898Y-237695226D01*
X126790256Y-237617205D01*
X126959774Y-237503937D01*
X127103937Y-237359774D01*
X127217205Y-237190256D01*
X127295226Y-237001898D01*
X127335000Y-236801939D01*
X127335000Y-236598061D01*
X127295226Y-236398102D01*
X127217205Y-236209744D01*
X127135000Y-236086715D01*
X127135000Y-231748711D01*
X127190226Y-231803937D01*
G04 #@! TA.AperFunction,Conductor*
D23*
G36*
X127190226Y-231803937D02*
G01*
X127359744Y-231917205D01*
X127548102Y-231995226D01*
X127748061Y-232035000D01*
X127951939Y-232035000D01*
X128151898Y-231995226D01*
X128240000Y-231958732D01*
X128240000Y-232797761D01*
X128180013Y-232857748D01*
X128001082Y-233125537D01*
X127877832Y-233423088D01*
X127815000Y-233738967D01*
X127815000Y-234061033D01*
X127877832Y-234376912D01*
X128001082Y-234674463D01*
X128180013Y-234942252D01*
X128407748Y-235169987D01*
X128675537Y-235348918D01*
X128973088Y-235472168D01*
X129288967Y-235535000D01*
X129611033Y-235535000D01*
X129926912Y-235472168D01*
X130224463Y-235348918D01*
X130492252Y-235169987D01*
X130502239Y-235160000D01*
X132336706Y-235160000D01*
X132322038Y-235172038D01*
X132211595Y-235306614D01*
X132129528Y-235460150D01*
X132078992Y-235626746D01*
X132061928Y-235800000D01*
X132061928Y-236090000D01*
X131584438Y-236090000D01*
X131525000Y-236084146D01*
X131287798Y-236107508D01*
X131059712Y-236176697D01*
X130997886Y-236209744D01*
X130849508Y-236289054D01*
X130665261Y-236440261D01*
X130627368Y-236486434D01*
X127313214Y-239800589D01*
X127166895Y-239815000D01*
X125970444Y-239815000D01*
X126044157Y-239691252D01*
X126141481Y-239416891D01*
X126020814Y-239187000D01*
X124827000Y-239187000D01*
X124827000Y-239207000D01*
X124573000Y-239207000D01*
X124573000Y-239187000D01*
X124553000Y-239187000D01*
X124553000Y-238933000D01*
X124573000Y-238933000D01*
X124573000Y-237739845D01*
X124827000Y-237739845D01*
X124827000Y-238933000D01*
X126020814Y-238933000D01*
X126141481Y-238703109D01*
X126044157Y-238428748D01*
X125895178Y-238178645D01*
X125700269Y-237962412D01*
X125466920Y-237788359D01*
X125204099Y-237663175D01*
X125056890Y-237618524D01*
X124827000Y-237739845D01*
X124573000Y-237739845D01*
X124343110Y-237618524D01*
X124245001Y-237648282D01*
X124245001Y-232973231D01*
X124298102Y-232995226D01*
X124498061Y-233035000D01*
X124665001Y-233035000D01*
X124665001Y-235086714D01*
X124582795Y-235209744D01*
X124504774Y-235398102D01*
X124465000Y-235598061D01*
X124465000Y-235801939D01*
X124504774Y-236001898D01*
X124582795Y-236190256D01*
X124696063Y-236359774D01*
X124840226Y-236503937D01*
X125009744Y-236617205D01*
X125198102Y-236695226D01*
X125265000Y-236708533D01*
X125265000Y-236801939D01*
X125304774Y-237001898D01*
X125382795Y-237190256D01*
X125496063Y-237359774D01*
X125640226Y-237503937D01*
X125809744Y-237617205D01*
X125998102Y-237695226D01*
X126198061Y-237735000D01*
X126401939Y-237735000D01*
X126601898Y-237695226D01*
X126790256Y-237617205D01*
X126959774Y-237503937D01*
X127103937Y-237359774D01*
X127217205Y-237190256D01*
X127295226Y-237001898D01*
X127335000Y-236801939D01*
X127335000Y-236598061D01*
X127295226Y-236398102D01*
X127217205Y-236209744D01*
X127135000Y-236086715D01*
X127135000Y-231748711D01*
X127190226Y-231803937D01*
G37*
G04 #@! TD.AperFunction*
D22*
X121325000Y-230298744D02*
X121325001Y-237831934D01*
X121213368Y-237906525D01*
X121006525Y-238113368D01*
X120890000Y-238287760D01*
X120773475Y-238113368D01*
X120566632Y-237906525D01*
X120455000Y-237831935D01*
X120455000Y-232708711D01*
X120503937Y-232659774D01*
X120617205Y-232490256D01*
X120695226Y-232301898D01*
X120735000Y-232101939D01*
X120735000Y-231898061D01*
X120695226Y-231698102D01*
X120617205Y-231509744D01*
X120503937Y-231340226D01*
X120359774Y-231196063D01*
X120190256Y-231082795D01*
X120001898Y-231004774D01*
X119801939Y-230965000D01*
X119598061Y-230965000D01*
X119398102Y-231004774D01*
X119209744Y-231082795D01*
X119165001Y-231112691D01*
X119165001Y-230013072D01*
X119275000Y-230013072D01*
X119418991Y-229998890D01*
X119557448Y-229956890D01*
X119685051Y-229888684D01*
X119796896Y-229796896D01*
X119888684Y-229685051D01*
X119956890Y-229557448D01*
X119998890Y-229418991D01*
X120013072Y-229275000D01*
X120013072Y-229075000D01*
X120003438Y-228977181D01*
X121325000Y-230298744D01*
G04 #@! TA.AperFunction,Conductor*
D23*
G36*
X121325000Y-230298744D02*
G01*
X121325001Y-237831934D01*
X121213368Y-237906525D01*
X121006525Y-238113368D01*
X120890000Y-238287760D01*
X120773475Y-238113368D01*
X120566632Y-237906525D01*
X120455000Y-237831935D01*
X120455000Y-232708711D01*
X120503937Y-232659774D01*
X120617205Y-232490256D01*
X120695226Y-232301898D01*
X120735000Y-232101939D01*
X120735000Y-231898061D01*
X120695226Y-231698102D01*
X120617205Y-231509744D01*
X120503937Y-231340226D01*
X120359774Y-231196063D01*
X120190256Y-231082795D01*
X120001898Y-231004774D01*
X119801939Y-230965000D01*
X119598061Y-230965000D01*
X119398102Y-231004774D01*
X119209744Y-231082795D01*
X119165001Y-231112691D01*
X119165001Y-230013072D01*
X119275000Y-230013072D01*
X119418991Y-229998890D01*
X119557448Y-229956890D01*
X119685051Y-229888684D01*
X119796896Y-229796896D01*
X119888684Y-229685051D01*
X119956890Y-229557448D01*
X119998890Y-229418991D01*
X120013072Y-229275000D01*
X120013072Y-229075000D01*
X120003438Y-228977181D01*
X121325000Y-230298744D01*
G37*
G04 #@! TD.AperFunction*
D22*
X131090000Y-221239829D02*
X131073250Y-221240000D01*
X130914500Y-221398750D01*
X130914500Y-222473000D01*
X130934500Y-222473000D01*
X130934500Y-222727000D01*
X130914500Y-222727000D01*
X130914500Y-223801250D01*
X130969500Y-223856250D01*
X130927000Y-223898750D01*
X130927000Y-224973000D01*
X130947000Y-224973000D01*
X130947000Y-225227000D01*
X130927000Y-225227000D01*
X130927000Y-226301250D01*
X131082483Y-226456733D01*
X128636435Y-228902782D01*
X128590262Y-228940675D01*
X128466555Y-229091413D01*
X128439055Y-229124922D01*
X128326698Y-229335127D01*
X128257509Y-229563213D01*
X128234146Y-229800414D01*
X128240001Y-229859859D01*
X128240001Y-230041268D01*
X128151898Y-230004774D01*
X128006775Y-229975907D01*
X127735009Y-229704142D01*
X127735009Y-228611819D01*
X127739049Y-228570800D01*
X127722927Y-228407112D01*
X127675181Y-228249714D01*
X127597645Y-228104655D01*
X127582591Y-228086312D01*
X127493300Y-227977510D01*
X127461437Y-227951361D01*
X126270075Y-226760000D01*
X127858982Y-226760000D01*
X127900000Y-226764040D01*
X127941018Y-226760000D01*
X127941019Y-226760000D01*
X128063689Y-226747918D01*
X128221087Y-226700172D01*
X128366146Y-226622636D01*
X128493291Y-226518291D01*
X128519446Y-226486421D01*
X128542795Y-226463072D01*
X129062500Y-226463072D01*
X129235754Y-226446008D01*
X129402350Y-226395472D01*
X129555886Y-226313405D01*
X129690462Y-226202962D01*
X129695842Y-226196406D01*
X129761315Y-226276185D01*
X129858006Y-226355537D01*
X129968320Y-226414502D01*
X130088018Y-226450812D01*
X130212500Y-226463072D01*
X130514250Y-226460000D01*
X130673000Y-226301250D01*
X130673000Y-225227000D01*
X130653000Y-225227000D01*
X130653000Y-224973000D01*
X130673000Y-224973000D01*
X130673000Y-223898750D01*
X130618000Y-223843750D01*
X130660500Y-223801250D01*
X130660500Y-222727000D01*
X130640500Y-222727000D01*
X130640500Y-222473000D01*
X130660500Y-222473000D01*
X130660500Y-221398750D01*
X130501750Y-221240000D01*
X130200000Y-221236928D01*
X130075518Y-221249188D01*
X129955820Y-221285498D01*
X129845506Y-221344463D01*
X129748815Y-221423815D01*
X129683342Y-221503594D01*
X129677962Y-221497038D01*
X129547500Y-221389971D01*
X129547500Y-221333367D01*
X131090000Y-219790867D01*
X131090000Y-221239829D01*
G04 #@! TA.AperFunction,Conductor*
D23*
G36*
X131090000Y-221239829D02*
G01*
X131073250Y-221240000D01*
X130914500Y-221398750D01*
X130914500Y-222473000D01*
X130934500Y-222473000D01*
X130934500Y-222727000D01*
X130914500Y-222727000D01*
X130914500Y-223801250D01*
X130969500Y-223856250D01*
X130927000Y-223898750D01*
X130927000Y-224973000D01*
X130947000Y-224973000D01*
X130947000Y-225227000D01*
X130927000Y-225227000D01*
X130927000Y-226301250D01*
X131082483Y-226456733D01*
X128636435Y-228902782D01*
X128590262Y-228940675D01*
X128466555Y-229091413D01*
X128439055Y-229124922D01*
X128326698Y-229335127D01*
X128257509Y-229563213D01*
X128234146Y-229800414D01*
X128240001Y-229859859D01*
X128240001Y-230041268D01*
X128151898Y-230004774D01*
X128006775Y-229975907D01*
X127735009Y-229704142D01*
X127735009Y-228611819D01*
X127739049Y-228570800D01*
X127722927Y-228407112D01*
X127675181Y-228249714D01*
X127597645Y-228104655D01*
X127582591Y-228086312D01*
X127493300Y-227977510D01*
X127461437Y-227951361D01*
X126270075Y-226760000D01*
X127858982Y-226760000D01*
X127900000Y-226764040D01*
X127941018Y-226760000D01*
X127941019Y-226760000D01*
X128063689Y-226747918D01*
X128221087Y-226700172D01*
X128366146Y-226622636D01*
X128493291Y-226518291D01*
X128519446Y-226486421D01*
X128542795Y-226463072D01*
X129062500Y-226463072D01*
X129235754Y-226446008D01*
X129402350Y-226395472D01*
X129555886Y-226313405D01*
X129690462Y-226202962D01*
X129695842Y-226196406D01*
X129761315Y-226276185D01*
X129858006Y-226355537D01*
X129968320Y-226414502D01*
X130088018Y-226450812D01*
X130212500Y-226463072D01*
X130514250Y-226460000D01*
X130673000Y-226301250D01*
X130673000Y-225227000D01*
X130653000Y-225227000D01*
X130653000Y-224973000D01*
X130673000Y-224973000D01*
X130673000Y-223898750D01*
X130618000Y-223843750D01*
X130660500Y-223801250D01*
X130660500Y-222727000D01*
X130640500Y-222727000D01*
X130640500Y-222473000D01*
X130660500Y-222473000D01*
X130660500Y-221398750D01*
X130501750Y-221240000D01*
X130200000Y-221236928D01*
X130075518Y-221249188D01*
X129955820Y-221285498D01*
X129845506Y-221344463D01*
X129748815Y-221423815D01*
X129683342Y-221503594D01*
X129677962Y-221497038D01*
X129547500Y-221389971D01*
X129547500Y-221333367D01*
X131090000Y-219790867D01*
X131090000Y-221239829D01*
G37*
G04 #@! TD.AperFunction*
D22*
X121394854Y-215834277D02*
X121386920Y-215828359D01*
X121124099Y-215703175D01*
X120976890Y-215658524D01*
X120747000Y-215779845D01*
X120747000Y-216973000D01*
X120767000Y-216973000D01*
X120767000Y-217227000D01*
X120747000Y-217227000D01*
X120747000Y-218420155D01*
X120976890Y-218541476D01*
X121124099Y-218496825D01*
X121386920Y-218371641D01*
X121394854Y-218365723D01*
X122389991Y-219360861D01*
X122389990Y-223591095D01*
X122385950Y-223632114D01*
X122387712Y-223650000D01*
X122385950Y-223667886D01*
X122389990Y-223708904D01*
X122389990Y-224241096D01*
X122385950Y-224282114D01*
X122391752Y-224341018D01*
X122402072Y-224445802D01*
X122449818Y-224603200D01*
X122527354Y-224748259D01*
X122631699Y-224875405D01*
X122663569Y-224901560D01*
X122948430Y-225186421D01*
X122974585Y-225218291D01*
X122986928Y-225228421D01*
X122986928Y-225375000D01*
X123001110Y-225518991D01*
X123025684Y-225600000D01*
X123001110Y-225681009D01*
X122986928Y-225825000D01*
X122986928Y-226025000D01*
X123001110Y-226168991D01*
X123012350Y-226206045D01*
X123001132Y-226241117D01*
X122990000Y-226343250D01*
X123148750Y-226502000D01*
X123166259Y-226502000D01*
X123203104Y-226546896D01*
X123237349Y-226575000D01*
X123203104Y-226603104D01*
X123166259Y-226648000D01*
X123148750Y-226648000D01*
X122990000Y-226806750D01*
X123001132Y-226908883D01*
X123012350Y-226943955D01*
X123001110Y-226981009D01*
X122986928Y-227125000D01*
X122986928Y-227325000D01*
X123001110Y-227468991D01*
X123025684Y-227550000D01*
X123001110Y-227631009D01*
X122986928Y-227775000D01*
X122986928Y-227975000D01*
X123001110Y-228118991D01*
X123025684Y-228200000D01*
X123001110Y-228281009D01*
X122986928Y-228425000D01*
X122986928Y-228625000D01*
X123000628Y-228764093D01*
X120300098Y-226063565D01*
X120273948Y-226031701D01*
X120146803Y-225927356D01*
X120146804Y-225927356D01*
X120146802Y-225927355D01*
X120028734Y-225864246D01*
X120051570Y-225836421D01*
X120336432Y-225551559D01*
X120368301Y-225525405D01*
X120472646Y-225398260D01*
X120550182Y-225253201D01*
X120597928Y-225095803D01*
X120604328Y-225030820D01*
X120614050Y-224932115D01*
X120610010Y-224891096D01*
X120610010Y-223058893D01*
X120614049Y-223017885D01*
X120610010Y-222976877D01*
X120610010Y-222976867D01*
X120597928Y-222854197D01*
X120550182Y-222696799D01*
X120472646Y-222551740D01*
X120368301Y-222424595D01*
X120336431Y-222398440D01*
X120072510Y-222134519D01*
X120072510Y-221358358D01*
X120561433Y-220869436D01*
X120593291Y-220843291D01*
X120697636Y-220716146D01*
X120775172Y-220571087D01*
X120822918Y-220413689D01*
X120835000Y-220291019D01*
X120835000Y-220291018D01*
X120839040Y-220250000D01*
X120835000Y-220208982D01*
X120835000Y-220113285D01*
X120917205Y-219990256D01*
X120995226Y-219801898D01*
X121035000Y-219601939D01*
X121035000Y-219398061D01*
X120995226Y-219198102D01*
X120917205Y-219009744D01*
X120803937Y-218840226D01*
X120659774Y-218696063D01*
X120490256Y-218582795D01*
X120319131Y-218511912D01*
X120493000Y-218420155D01*
X120493000Y-217227000D01*
X120473000Y-217227000D01*
X120473000Y-216973000D01*
X120493000Y-216973000D01*
X120493000Y-215779845D01*
X120263110Y-215658524D01*
X120115901Y-215703175D01*
X119853080Y-215828359D01*
X119619731Y-216002412D01*
X119472500Y-216165751D01*
X119472500Y-215127000D01*
X122102130Y-215127000D01*
X121394854Y-215834277D01*
G04 #@! TA.AperFunction,Conductor*
D23*
G36*
X121394854Y-215834277D02*
G01*
X121386920Y-215828359D01*
X121124099Y-215703175D01*
X120976890Y-215658524D01*
X120747000Y-215779845D01*
X120747000Y-216973000D01*
X120767000Y-216973000D01*
X120767000Y-217227000D01*
X120747000Y-217227000D01*
X120747000Y-218420155D01*
X120976890Y-218541476D01*
X121124099Y-218496825D01*
X121386920Y-218371641D01*
X121394854Y-218365723D01*
X122389991Y-219360861D01*
X122389990Y-223591095D01*
X122385950Y-223632114D01*
X122387712Y-223650000D01*
X122385950Y-223667886D01*
X122389990Y-223708904D01*
X122389990Y-224241096D01*
X122385950Y-224282114D01*
X122391752Y-224341018D01*
X122402072Y-224445802D01*
X122449818Y-224603200D01*
X122527354Y-224748259D01*
X122631699Y-224875405D01*
X122663569Y-224901560D01*
X122948430Y-225186421D01*
X122974585Y-225218291D01*
X122986928Y-225228421D01*
X122986928Y-225375000D01*
X123001110Y-225518991D01*
X123025684Y-225600000D01*
X123001110Y-225681009D01*
X122986928Y-225825000D01*
X122986928Y-226025000D01*
X123001110Y-226168991D01*
X123012350Y-226206045D01*
X123001132Y-226241117D01*
X122990000Y-226343250D01*
X123148750Y-226502000D01*
X123166259Y-226502000D01*
X123203104Y-226546896D01*
X123237349Y-226575000D01*
X123203104Y-226603104D01*
X123166259Y-226648000D01*
X123148750Y-226648000D01*
X122990000Y-226806750D01*
X123001132Y-226908883D01*
X123012350Y-226943955D01*
X123001110Y-226981009D01*
X122986928Y-227125000D01*
X122986928Y-227325000D01*
X123001110Y-227468991D01*
X123025684Y-227550000D01*
X123001110Y-227631009D01*
X122986928Y-227775000D01*
X122986928Y-227975000D01*
X123001110Y-228118991D01*
X123025684Y-228200000D01*
X123001110Y-228281009D01*
X122986928Y-228425000D01*
X122986928Y-228625000D01*
X123000628Y-228764093D01*
X120300098Y-226063565D01*
X120273948Y-226031701D01*
X120146803Y-225927356D01*
X120146804Y-225927356D01*
X120146802Y-225927355D01*
X120028734Y-225864246D01*
X120051570Y-225836421D01*
X120336432Y-225551559D01*
X120368301Y-225525405D01*
X120472646Y-225398260D01*
X120550182Y-225253201D01*
X120597928Y-225095803D01*
X120604328Y-225030820D01*
X120614050Y-224932115D01*
X120610010Y-224891096D01*
X120610010Y-223058893D01*
X120614049Y-223017885D01*
X120610010Y-222976877D01*
X120610010Y-222976867D01*
X120597928Y-222854197D01*
X120550182Y-222696799D01*
X120472646Y-222551740D01*
X120368301Y-222424595D01*
X120336431Y-222398440D01*
X120072510Y-222134519D01*
X120072510Y-221358358D01*
X120561433Y-220869436D01*
X120593291Y-220843291D01*
X120697636Y-220716146D01*
X120775172Y-220571087D01*
X120822918Y-220413689D01*
X120835000Y-220291019D01*
X120835000Y-220291018D01*
X120839040Y-220250000D01*
X120835000Y-220208982D01*
X120835000Y-220113285D01*
X120917205Y-219990256D01*
X120995226Y-219801898D01*
X121035000Y-219601939D01*
X121035000Y-219398061D01*
X120995226Y-219198102D01*
X120917205Y-219009744D01*
X120803937Y-218840226D01*
X120659774Y-218696063D01*
X120490256Y-218582795D01*
X120319131Y-218511912D01*
X120493000Y-218420155D01*
X120493000Y-217227000D01*
X120473000Y-217227000D01*
X120473000Y-216973000D01*
X120493000Y-216973000D01*
X120493000Y-215779845D01*
X120263110Y-215658524D01*
X120115901Y-215703175D01*
X119853080Y-215828359D01*
X119619731Y-216002412D01*
X119472500Y-216165751D01*
X119472500Y-215127000D01*
X122102130Y-215127000D01*
X121394854Y-215834277D01*
G37*
G04 #@! TD.AperFunction*
D22*
X134051687Y-218839862D02*
X134164044Y-219050067D01*
X134315251Y-219234315D01*
X134361430Y-219272213D01*
X134465011Y-219375794D01*
X134465010Y-226929341D01*
X134443387Y-226911595D01*
X134289851Y-226829528D01*
X134123255Y-226778992D01*
X133950001Y-226761928D01*
X133510000Y-226761928D01*
X133510000Y-218838072D01*
X133800000Y-218838072D01*
X133973254Y-218821008D01*
X134039841Y-218800809D01*
X134051687Y-218839862D01*
G04 #@! TA.AperFunction,Conductor*
D23*
G36*
X134051687Y-218839862D02*
G01*
X134164044Y-219050067D01*
X134315251Y-219234315D01*
X134361430Y-219272213D01*
X134465011Y-219375794D01*
X134465010Y-226929341D01*
X134443387Y-226911595D01*
X134289851Y-226829528D01*
X134123255Y-226778992D01*
X133950001Y-226761928D01*
X133510000Y-226761928D01*
X133510000Y-218838072D01*
X133800000Y-218838072D01*
X133973254Y-218821008D01*
X134039841Y-218800809D01*
X134051687Y-218839862D01*
G37*
G04 #@! TD.AperFunction*
D22*
X144340000Y-222373000D02*
X136885010Y-222373000D01*
X136885010Y-218934030D01*
X136890864Y-218874595D01*
X136887073Y-218836106D01*
X137414250Y-218835000D01*
X137573000Y-218676250D01*
X137573000Y-217527000D01*
X137827000Y-217527000D01*
X137827000Y-218676250D01*
X137985750Y-218835000D01*
X139450000Y-218838072D01*
X139574482Y-218825812D01*
X139694180Y-218789502D01*
X139804494Y-218730537D01*
X139901185Y-218651185D01*
X139980537Y-218554494D01*
X140039502Y-218444180D01*
X140075812Y-218324482D01*
X140088072Y-218200000D01*
X140085000Y-217685750D01*
X139926250Y-217527000D01*
X137827000Y-217527000D01*
X137573000Y-217527000D01*
X137553000Y-217527000D01*
X137553000Y-217273000D01*
X137573000Y-217273000D01*
X137573000Y-216123750D01*
X137827000Y-216123750D01*
X137827000Y-217273000D01*
X139926250Y-217273000D01*
X140085000Y-217114250D01*
X140088072Y-216600000D01*
X140075812Y-216475518D01*
X140039502Y-216355820D01*
X139980537Y-216245506D01*
X139901185Y-216148815D01*
X139804494Y-216069463D01*
X139694180Y-216010498D01*
X139574482Y-215974188D01*
X139450000Y-215961928D01*
X137985750Y-215965000D01*
X137827000Y-216123750D01*
X137573000Y-216123750D01*
X137414250Y-215965000D01*
X136887073Y-215963894D01*
X136890864Y-215925405D01*
X136885010Y-215865970D01*
X136885010Y-207796207D01*
X137386928Y-208298125D01*
X137386928Y-209550000D01*
X137403992Y-209723254D01*
X137454528Y-209889850D01*
X137536595Y-210043386D01*
X137647038Y-210177962D01*
X137781614Y-210288405D01*
X137935150Y-210370472D01*
X138101746Y-210421008D01*
X138275000Y-210438072D01*
X140925000Y-210438072D01*
X141098254Y-210421008D01*
X141264850Y-210370472D01*
X141418386Y-210288405D01*
X141552962Y-210177962D01*
X141663405Y-210043386D01*
X141745472Y-209889850D01*
X141796008Y-209723254D01*
X141813072Y-209550000D01*
X141813072Y-208050000D01*
X141796008Y-207876746D01*
X141745472Y-207710150D01*
X141663405Y-207556614D01*
X141552962Y-207422038D01*
X141418386Y-207311595D01*
X141264850Y-207229528D01*
X141098254Y-207178992D01*
X140925000Y-207161928D01*
X139673126Y-207161928D01*
X138459990Y-205948793D01*
X138459990Y-205538072D01*
X140925000Y-205538072D01*
X141098254Y-205521008D01*
X141264850Y-205470472D01*
X141418386Y-205388405D01*
X141552962Y-205277962D01*
X141663405Y-205143386D01*
X141745472Y-204989850D01*
X141796008Y-204823254D01*
X141813072Y-204650000D01*
X141813072Y-203627000D01*
X144340001Y-203627000D01*
X144340000Y-222373000D01*
G04 #@! TA.AperFunction,Conductor*
D23*
G36*
X144340000Y-222373000D02*
G01*
X136885010Y-222373000D01*
X136885010Y-218934030D01*
X136890864Y-218874595D01*
X136887073Y-218836106D01*
X137414250Y-218835000D01*
X137573000Y-218676250D01*
X137573000Y-217527000D01*
X137827000Y-217527000D01*
X137827000Y-218676250D01*
X137985750Y-218835000D01*
X139450000Y-218838072D01*
X139574482Y-218825812D01*
X139694180Y-218789502D01*
X139804494Y-218730537D01*
X139901185Y-218651185D01*
X139980537Y-218554494D01*
X140039502Y-218444180D01*
X140075812Y-218324482D01*
X140088072Y-218200000D01*
X140085000Y-217685750D01*
X139926250Y-217527000D01*
X137827000Y-217527000D01*
X137573000Y-217527000D01*
X137553000Y-217527000D01*
X137553000Y-217273000D01*
X137573000Y-217273000D01*
X137573000Y-216123750D01*
X137827000Y-216123750D01*
X137827000Y-217273000D01*
X139926250Y-217273000D01*
X140085000Y-217114250D01*
X140088072Y-216600000D01*
X140075812Y-216475518D01*
X140039502Y-216355820D01*
X139980537Y-216245506D01*
X139901185Y-216148815D01*
X139804494Y-216069463D01*
X139694180Y-216010498D01*
X139574482Y-215974188D01*
X139450000Y-215961928D01*
X137985750Y-215965000D01*
X137827000Y-216123750D01*
X137573000Y-216123750D01*
X137414250Y-215965000D01*
X136887073Y-215963894D01*
X136890864Y-215925405D01*
X136885010Y-215865970D01*
X136885010Y-207796207D01*
X137386928Y-208298125D01*
X137386928Y-209550000D01*
X137403992Y-209723254D01*
X137454528Y-209889850D01*
X137536595Y-210043386D01*
X137647038Y-210177962D01*
X137781614Y-210288405D01*
X137935150Y-210370472D01*
X138101746Y-210421008D01*
X138275000Y-210438072D01*
X140925000Y-210438072D01*
X141098254Y-210421008D01*
X141264850Y-210370472D01*
X141418386Y-210288405D01*
X141552962Y-210177962D01*
X141663405Y-210043386D01*
X141745472Y-209889850D01*
X141796008Y-209723254D01*
X141813072Y-209550000D01*
X141813072Y-208050000D01*
X141796008Y-207876746D01*
X141745472Y-207710150D01*
X141663405Y-207556614D01*
X141552962Y-207422038D01*
X141418386Y-207311595D01*
X141264850Y-207229528D01*
X141098254Y-207178992D01*
X140925000Y-207161928D01*
X139673126Y-207161928D01*
X138459990Y-205948793D01*
X138459990Y-205538072D01*
X140925000Y-205538072D01*
X141098254Y-205521008D01*
X141264850Y-205470472D01*
X141418386Y-205388405D01*
X141552962Y-205277962D01*
X141663405Y-205143386D01*
X141745472Y-204989850D01*
X141796008Y-204823254D01*
X141813072Y-204650000D01*
X141813072Y-203627000D01*
X144340001Y-203627000D01*
X144340000Y-222373000D01*
G37*
G04 #@! TD.AperFunction*
D22*
X129180561Y-217961430D02*
X129206709Y-217993291D01*
X129238568Y-218019437D01*
X129238570Y-218019439D01*
X129333854Y-218097636D01*
X129478913Y-218175172D01*
X129636311Y-218222918D01*
X129800000Y-218239040D01*
X129841018Y-218235000D01*
X129962890Y-218235000D01*
X129979528Y-218289850D01*
X130061595Y-218443386D01*
X130067974Y-218451159D01*
X128235000Y-220284133D01*
X128235000Y-217015867D01*
X129180561Y-217961430D01*
G04 #@! TA.AperFunction,Conductor*
D23*
G36*
X129180561Y-217961430D02*
G01*
X129206709Y-217993291D01*
X129238568Y-218019437D01*
X129238570Y-218019439D01*
X129333854Y-218097636D01*
X129478913Y-218175172D01*
X129636311Y-218222918D01*
X129800000Y-218239040D01*
X129841018Y-218235000D01*
X129962890Y-218235000D01*
X129979528Y-218289850D01*
X130061595Y-218443386D01*
X130067974Y-218451159D01*
X128235000Y-220284133D01*
X128235000Y-217015867D01*
X129180561Y-217961430D01*
G37*
G04 #@! TD.AperFunction*
D22*
X126404774Y-209901898D02*
X126482795Y-210090256D01*
X126565001Y-210213286D01*
X126565001Y-215613405D01*
X126550000Y-215611928D01*
X124850000Y-215611928D01*
X124725518Y-215624188D01*
X124605820Y-215660498D01*
X124495506Y-215719463D01*
X124398815Y-215798815D01*
X124319463Y-215895506D01*
X124260498Y-216005820D01*
X124238487Y-216078380D01*
X124106632Y-215946525D01*
X123863411Y-215784010D01*
X123823421Y-215767446D01*
X123955867Y-215635000D01*
X124158982Y-215635000D01*
X124200000Y-215639040D01*
X124241018Y-215635000D01*
X124241019Y-215635000D01*
X124363689Y-215622918D01*
X124521087Y-215575172D01*
X124666146Y-215497636D01*
X124793291Y-215393291D01*
X124819446Y-215361421D01*
X125161422Y-215019445D01*
X125193291Y-214993291D01*
X125297636Y-214866146D01*
X125375172Y-214721087D01*
X125422918Y-214563689D01*
X125435000Y-214441019D01*
X125435000Y-214441009D01*
X125439039Y-214400001D01*
X125435000Y-214358993D01*
X125435000Y-210745867D01*
X126383902Y-209796966D01*
X126404774Y-209901898D01*
G04 #@! TA.AperFunction,Conductor*
D23*
G36*
X126404774Y-209901898D02*
G01*
X126482795Y-210090256D01*
X126565001Y-210213286D01*
X126565001Y-215613405D01*
X126550000Y-215611928D01*
X124850000Y-215611928D01*
X124725518Y-215624188D01*
X124605820Y-215660498D01*
X124495506Y-215719463D01*
X124398815Y-215798815D01*
X124319463Y-215895506D01*
X124260498Y-216005820D01*
X124238487Y-216078380D01*
X124106632Y-215946525D01*
X123863411Y-215784010D01*
X123823421Y-215767446D01*
X123955867Y-215635000D01*
X124158982Y-215635000D01*
X124200000Y-215639040D01*
X124241018Y-215635000D01*
X124241019Y-215635000D01*
X124363689Y-215622918D01*
X124521087Y-215575172D01*
X124666146Y-215497636D01*
X124793291Y-215393291D01*
X124819446Y-215361421D01*
X125161422Y-215019445D01*
X125193291Y-214993291D01*
X125297636Y-214866146D01*
X125375172Y-214721087D01*
X125422918Y-214563689D01*
X125435000Y-214441019D01*
X125435000Y-214441009D01*
X125439039Y-214400001D01*
X125435000Y-214358993D01*
X125435000Y-210745867D01*
X126383902Y-209796966D01*
X126404774Y-209901898D01*
G37*
G04 #@! TD.AperFunction*
D22*
X131533969Y-205887248D02*
X131382148Y-206171285D01*
X131288657Y-206479484D01*
X131257089Y-206800000D01*
X131288657Y-207120516D01*
X131307190Y-207181612D01*
X130361431Y-208127372D01*
X130111425Y-208377378D01*
X130065252Y-208415271D01*
X129946713Y-208559712D01*
X129914045Y-208599518D01*
X129801688Y-208809723D01*
X129732499Y-209037809D01*
X129709136Y-209275010D01*
X129714991Y-209334455D01*
X129714990Y-213497465D01*
X129695226Y-213398102D01*
X129617205Y-213209744D01*
X129503937Y-213040226D01*
X129359774Y-212896063D01*
X129190256Y-212782795D01*
X129001898Y-212704774D01*
X128801939Y-212665000D01*
X128598061Y-212665000D01*
X128398102Y-212704774D01*
X128235000Y-212772334D01*
X128235000Y-210213285D01*
X128317205Y-210090256D01*
X128395226Y-209901898D01*
X128435000Y-209701939D01*
X128435000Y-209498061D01*
X128395226Y-209298102D01*
X128317205Y-209109744D01*
X128203937Y-208940226D01*
X128059774Y-208796063D01*
X127890256Y-208682795D01*
X127701898Y-208604774D01*
X127677897Y-208600000D01*
X127701898Y-208595226D01*
X127890256Y-208517205D01*
X128059774Y-208403937D01*
X128203937Y-208259774D01*
X128317205Y-208090256D01*
X128395226Y-207901898D01*
X128435000Y-207701939D01*
X128435000Y-207498061D01*
X128395226Y-207298102D01*
X128376674Y-207253313D01*
X128377000Y-207250000D01*
X128377000Y-205810000D01*
X131597365Y-205810000D01*
X131533969Y-205887248D01*
G04 #@! TA.AperFunction,Conductor*
D23*
G36*
X131533969Y-205887248D02*
G01*
X131382148Y-206171285D01*
X131288657Y-206479484D01*
X131257089Y-206800000D01*
X131288657Y-207120516D01*
X131307190Y-207181612D01*
X130361431Y-208127372D01*
X130111425Y-208377378D01*
X130065252Y-208415271D01*
X129946713Y-208559712D01*
X129914045Y-208599518D01*
X129801688Y-208809723D01*
X129732499Y-209037809D01*
X129709136Y-209275010D01*
X129714991Y-209334455D01*
X129714990Y-213497465D01*
X129695226Y-213398102D01*
X129617205Y-213209744D01*
X129503937Y-213040226D01*
X129359774Y-212896063D01*
X129190256Y-212782795D01*
X129001898Y-212704774D01*
X128801939Y-212665000D01*
X128598061Y-212665000D01*
X128398102Y-212704774D01*
X128235000Y-212772334D01*
X128235000Y-210213285D01*
X128317205Y-210090256D01*
X128395226Y-209901898D01*
X128435000Y-209701939D01*
X128435000Y-209498061D01*
X128395226Y-209298102D01*
X128317205Y-209109744D01*
X128203937Y-208940226D01*
X128059774Y-208796063D01*
X127890256Y-208682795D01*
X127701898Y-208604774D01*
X127677897Y-208600000D01*
X127701898Y-208595226D01*
X127890256Y-208517205D01*
X128059774Y-208403937D01*
X128203937Y-208259774D01*
X128317205Y-208090256D01*
X128395226Y-207901898D01*
X128435000Y-207701939D01*
X128435000Y-207498061D01*
X128395226Y-207298102D01*
X128376674Y-207253313D01*
X128377000Y-207250000D01*
X128377000Y-205810000D01*
X131597365Y-205810000D01*
X131533969Y-205887248D01*
G37*
G04 #@! TD.AperFunction*
D22*
X127123000Y-196111928D02*
X126550000Y-196111928D01*
X126425518Y-196124188D01*
X126305820Y-196160498D01*
X126195506Y-196219463D01*
X126098815Y-196298815D01*
X126019463Y-196395506D01*
X125960498Y-196505820D01*
X125938487Y-196578380D01*
X125806632Y-196446525D01*
X125563411Y-196284010D01*
X125293158Y-196172068D01*
X125006260Y-196115000D01*
X124713740Y-196115000D01*
X124426842Y-196172068D01*
X124156589Y-196284010D01*
X123913368Y-196446525D01*
X123706525Y-196653368D01*
X123590000Y-196827760D01*
X123473475Y-196653368D01*
X123266632Y-196446525D01*
X123023411Y-196284010D01*
X122753158Y-196172068D01*
X122466260Y-196115000D01*
X122173740Y-196115000D01*
X121886842Y-196172068D01*
X121616589Y-196284010D01*
X121373368Y-196446525D01*
X121166525Y-196653368D01*
X121044805Y-196835534D01*
X120975178Y-196718645D01*
X120780269Y-196502412D01*
X120546920Y-196328359D01*
X120284099Y-196203175D01*
X120136890Y-196158524D01*
X119907000Y-196279845D01*
X119907000Y-197473000D01*
X119927000Y-197473000D01*
X119927000Y-197727000D01*
X119907000Y-197727000D01*
X119907000Y-198920155D01*
X120136890Y-199041476D01*
X120284099Y-198996825D01*
X120546920Y-198871641D01*
X120780269Y-198697588D01*
X120975178Y-198481355D01*
X121044805Y-198364466D01*
X121166525Y-198546632D01*
X121373368Y-198753475D01*
X121616589Y-198915990D01*
X121886842Y-199027932D01*
X122173740Y-199085000D01*
X122466260Y-199085000D01*
X122753158Y-199027932D01*
X123023411Y-198915990D01*
X123266632Y-198753475D01*
X123473475Y-198546632D01*
X123590000Y-198372240D01*
X123706525Y-198546632D01*
X123913368Y-198753475D01*
X124156589Y-198915990D01*
X124426842Y-199027932D01*
X124713740Y-199085000D01*
X125006260Y-199085000D01*
X125293158Y-199027932D01*
X125563411Y-198915990D01*
X125806632Y-198753475D01*
X125938487Y-198621620D01*
X125960498Y-198694180D01*
X126019463Y-198804494D01*
X126098815Y-198901185D01*
X126195506Y-198980537D01*
X126305820Y-199039502D01*
X126425518Y-199075812D01*
X126550000Y-199088072D01*
X128250000Y-199088072D01*
X128374482Y-199075812D01*
X128494180Y-199039502D01*
X128604494Y-198980537D01*
X128701185Y-198901185D01*
X128780537Y-198804494D01*
X128839502Y-198694180D01*
X128875812Y-198574482D01*
X128888072Y-198450000D01*
X128888072Y-196750000D01*
X128875812Y-196625518D01*
X128839502Y-196505820D01*
X128780537Y-196395506D01*
X128701185Y-196298815D01*
X128604494Y-196219463D01*
X128494180Y-196160498D01*
X128374482Y-196124188D01*
X128250000Y-196111928D01*
X127877000Y-196111928D01*
X127877000Y-195660000D01*
X140178821Y-195660000D01*
X139686994Y-195807870D01*
X139089470Y-196125361D01*
X139075308Y-196134823D01*
X138763124Y-196583519D01*
X141000000Y-198820395D01*
X143236876Y-196583519D01*
X142924692Y-196134823D01*
X142328741Y-195814388D01*
X141824276Y-195660000D01*
X144340001Y-195660000D01*
X144340001Y-198178824D01*
X144192130Y-197686994D01*
X143874639Y-197089470D01*
X143865177Y-197075308D01*
X143416481Y-196763124D01*
X141179605Y-199000000D01*
X143416481Y-201236876D01*
X143865177Y-200924692D01*
X144185612Y-200328741D01*
X144340001Y-199824273D01*
X144340001Y-202873000D01*
X141764537Y-202873000D01*
X141745472Y-202810150D01*
X141663405Y-202656614D01*
X141552962Y-202522038D01*
X141418386Y-202411595D01*
X141416850Y-202410774D01*
X141665023Y-202386949D01*
X142313006Y-202192130D01*
X142910530Y-201874639D01*
X142924692Y-201865177D01*
X143236876Y-201416481D01*
X141000000Y-199179605D01*
X140985858Y-199193748D01*
X140806253Y-199014143D01*
X140820395Y-199000000D01*
X138583519Y-196763124D01*
X138134823Y-197075308D01*
X137814388Y-197671259D01*
X137616374Y-198318273D01*
X137548390Y-198991484D01*
X137613051Y-199665023D01*
X137807870Y-200313006D01*
X137902728Y-200491531D01*
X136651307Y-199240110D01*
X136680537Y-199204494D01*
X136739502Y-199094180D01*
X136775812Y-198974482D01*
X136788072Y-198850000D01*
X136785000Y-198285750D01*
X136626250Y-198127000D01*
X135427000Y-198127000D01*
X135427000Y-198147000D01*
X135173000Y-198147000D01*
X135173000Y-198127000D01*
X135153000Y-198127000D01*
X135153000Y-197873000D01*
X135173000Y-197873000D01*
X135173000Y-196673750D01*
X135427000Y-196673750D01*
X135427000Y-197873000D01*
X136626250Y-197873000D01*
X136785000Y-197714250D01*
X136788072Y-197150000D01*
X136775812Y-197025518D01*
X136739502Y-196905820D01*
X136680537Y-196795506D01*
X136601185Y-196698815D01*
X136504494Y-196619463D01*
X136394180Y-196560498D01*
X136274482Y-196524188D01*
X136150000Y-196511928D01*
X135585750Y-196515000D01*
X135427000Y-196673750D01*
X135173000Y-196673750D01*
X135014250Y-196515000D01*
X134450000Y-196511928D01*
X134325518Y-196524188D01*
X134205820Y-196560498D01*
X134095506Y-196619463D01*
X133998815Y-196698815D01*
X133919463Y-196795506D01*
X133860498Y-196905820D01*
X133838487Y-196978380D01*
X133706632Y-196846525D01*
X133463411Y-196684010D01*
X133193158Y-196572068D01*
X132906260Y-196515000D01*
X132613740Y-196515000D01*
X132326842Y-196572068D01*
X132056589Y-196684010D01*
X131813368Y-196846525D01*
X131606525Y-197053368D01*
X131444010Y-197296589D01*
X131332068Y-197566842D01*
X131275000Y-197853740D01*
X131275000Y-198146260D01*
X131332068Y-198433158D01*
X131444010Y-198703411D01*
X131566474Y-198886691D01*
X131567509Y-198897201D01*
X131636698Y-199125287D01*
X131749055Y-199335492D01*
X131862373Y-199473570D01*
X132953801Y-200565000D01*
X132819678Y-200565000D01*
X132579484Y-200588657D01*
X132271285Y-200682148D01*
X131987248Y-200833969D01*
X131738286Y-201038286D01*
X131533969Y-201287248D01*
X131382148Y-201571285D01*
X131288657Y-201879484D01*
X131257089Y-202200000D01*
X131288657Y-202520516D01*
X131382148Y-202828715D01*
X131533969Y-203112752D01*
X131738286Y-203361714D01*
X131772753Y-203390000D01*
X126601198Y-203390000D01*
X124197637Y-200986440D01*
X124159739Y-200940261D01*
X123975492Y-200789054D01*
X123765287Y-200676697D01*
X123537201Y-200607508D01*
X123359437Y-200590000D01*
X123359435Y-200590000D01*
X123300000Y-200584146D01*
X123240565Y-200590000D01*
X122938072Y-200590000D01*
X122938072Y-200300000D01*
X122921008Y-200126746D01*
X122870472Y-199960150D01*
X122788405Y-199806614D01*
X122677962Y-199672038D01*
X122543386Y-199561595D01*
X122389850Y-199479528D01*
X122223254Y-199428992D01*
X122050000Y-199411928D01*
X120950000Y-199411928D01*
X120776746Y-199428992D01*
X120610150Y-199479528D01*
X120456614Y-199561595D01*
X120322038Y-199672038D01*
X120211595Y-199806614D01*
X120139467Y-199941556D01*
X120075492Y-199889054D01*
X119865287Y-199776697D01*
X119637201Y-199707508D01*
X119459437Y-199690000D01*
X119459435Y-199690000D01*
X119400000Y-199684146D01*
X119340565Y-199690000D01*
X118450000Y-199690000D01*
X118450000Y-198462036D01*
X118515195Y-198364466D01*
X118584822Y-198481355D01*
X118779731Y-198697588D01*
X119013080Y-198871641D01*
X119275901Y-198996825D01*
X119423110Y-199041476D01*
X119653000Y-198920155D01*
X119653000Y-197727000D01*
X119633000Y-197727000D01*
X119633000Y-197473000D01*
X119653000Y-197473000D01*
X119653000Y-196279845D01*
X119423110Y-196158524D01*
X119275901Y-196203175D01*
X119013080Y-196328359D01*
X118779731Y-196502412D01*
X118584822Y-196718645D01*
X118515195Y-196835534D01*
X118393475Y-196653368D01*
X118186632Y-196446525D01*
X117943411Y-196284010D01*
X117673158Y-196172068D01*
X117386260Y-196115000D01*
X117093740Y-196115000D01*
X116806842Y-196172068D01*
X116536589Y-196284010D01*
X116293368Y-196446525D01*
X116086525Y-196653368D01*
X115970000Y-196827760D01*
X115853475Y-196653368D01*
X115646632Y-196446525D01*
X115403411Y-196284010D01*
X115133158Y-196172068D01*
X114877000Y-196121115D01*
X114877000Y-195660000D01*
X127123000Y-195660000D01*
X127123000Y-196111928D01*
G04 #@! TA.AperFunction,Conductor*
D23*
G36*
X127123000Y-196111928D02*
G01*
X126550000Y-196111928D01*
X126425518Y-196124188D01*
X126305820Y-196160498D01*
X126195506Y-196219463D01*
X126098815Y-196298815D01*
X126019463Y-196395506D01*
X125960498Y-196505820D01*
X125938487Y-196578380D01*
X125806632Y-196446525D01*
X125563411Y-196284010D01*
X125293158Y-196172068D01*
X125006260Y-196115000D01*
X124713740Y-196115000D01*
X124426842Y-196172068D01*
X124156589Y-196284010D01*
X123913368Y-196446525D01*
X123706525Y-196653368D01*
X123590000Y-196827760D01*
X123473475Y-196653368D01*
X123266632Y-196446525D01*
X123023411Y-196284010D01*
X122753158Y-196172068D01*
X122466260Y-196115000D01*
X122173740Y-196115000D01*
X121886842Y-196172068D01*
X121616589Y-196284010D01*
X121373368Y-196446525D01*
X121166525Y-196653368D01*
X121044805Y-196835534D01*
X120975178Y-196718645D01*
X120780269Y-196502412D01*
X120546920Y-196328359D01*
X120284099Y-196203175D01*
X120136890Y-196158524D01*
X119907000Y-196279845D01*
X119907000Y-197473000D01*
X119927000Y-197473000D01*
X119927000Y-197727000D01*
X119907000Y-197727000D01*
X119907000Y-198920155D01*
X120136890Y-199041476D01*
X120284099Y-198996825D01*
X120546920Y-198871641D01*
X120780269Y-198697588D01*
X120975178Y-198481355D01*
X121044805Y-198364466D01*
X121166525Y-198546632D01*
X121373368Y-198753475D01*
X121616589Y-198915990D01*
X121886842Y-199027932D01*
X122173740Y-199085000D01*
X122466260Y-199085000D01*
X122753158Y-199027932D01*
X123023411Y-198915990D01*
X123266632Y-198753475D01*
X123473475Y-198546632D01*
X123590000Y-198372240D01*
X123706525Y-198546632D01*
X123913368Y-198753475D01*
X124156589Y-198915990D01*
X124426842Y-199027932D01*
X124713740Y-199085000D01*
X125006260Y-199085000D01*
X125293158Y-199027932D01*
X125563411Y-198915990D01*
X125806632Y-198753475D01*
X125938487Y-198621620D01*
X125960498Y-198694180D01*
X126019463Y-198804494D01*
X126098815Y-198901185D01*
X126195506Y-198980537D01*
X126305820Y-199039502D01*
X126425518Y-199075812D01*
X126550000Y-199088072D01*
X128250000Y-199088072D01*
X128374482Y-199075812D01*
X128494180Y-199039502D01*
X128604494Y-198980537D01*
X128701185Y-198901185D01*
X128780537Y-198804494D01*
X128839502Y-198694180D01*
X128875812Y-198574482D01*
X128888072Y-198450000D01*
X128888072Y-196750000D01*
X128875812Y-196625518D01*
X128839502Y-196505820D01*
X128780537Y-196395506D01*
X128701185Y-196298815D01*
X128604494Y-196219463D01*
X128494180Y-196160498D01*
X128374482Y-196124188D01*
X128250000Y-196111928D01*
X127877000Y-196111928D01*
X127877000Y-195660000D01*
X140178821Y-195660000D01*
X139686994Y-195807870D01*
X139089470Y-196125361D01*
X139075308Y-196134823D01*
X138763124Y-196583519D01*
X141000000Y-198820395D01*
X143236876Y-196583519D01*
X142924692Y-196134823D01*
X142328741Y-195814388D01*
X141824276Y-195660000D01*
X144340001Y-195660000D01*
X144340001Y-198178824D01*
X144192130Y-197686994D01*
X143874639Y-197089470D01*
X143865177Y-197075308D01*
X143416481Y-196763124D01*
X141179605Y-199000000D01*
X143416481Y-201236876D01*
X143865177Y-200924692D01*
X144185612Y-200328741D01*
X144340001Y-199824273D01*
X144340001Y-202873000D01*
X141764537Y-202873000D01*
X141745472Y-202810150D01*
X141663405Y-202656614D01*
X141552962Y-202522038D01*
X141418386Y-202411595D01*
X141416850Y-202410774D01*
X141665023Y-202386949D01*
X142313006Y-202192130D01*
X142910530Y-201874639D01*
X142924692Y-201865177D01*
X143236876Y-201416481D01*
X141000000Y-199179605D01*
X140985858Y-199193748D01*
X140806253Y-199014143D01*
X140820395Y-199000000D01*
X138583519Y-196763124D01*
X138134823Y-197075308D01*
X137814388Y-197671259D01*
X137616374Y-198318273D01*
X137548390Y-198991484D01*
X137613051Y-199665023D01*
X137807870Y-200313006D01*
X137902728Y-200491531D01*
X136651307Y-199240110D01*
X136680537Y-199204494D01*
X136739502Y-199094180D01*
X136775812Y-198974482D01*
X136788072Y-198850000D01*
X136785000Y-198285750D01*
X136626250Y-198127000D01*
X135427000Y-198127000D01*
X135427000Y-198147000D01*
X135173000Y-198147000D01*
X135173000Y-198127000D01*
X135153000Y-198127000D01*
X135153000Y-197873000D01*
X135173000Y-197873000D01*
X135173000Y-196673750D01*
X135427000Y-196673750D01*
X135427000Y-197873000D01*
X136626250Y-197873000D01*
X136785000Y-197714250D01*
X136788072Y-197150000D01*
X136775812Y-197025518D01*
X136739502Y-196905820D01*
X136680537Y-196795506D01*
X136601185Y-196698815D01*
X136504494Y-196619463D01*
X136394180Y-196560498D01*
X136274482Y-196524188D01*
X136150000Y-196511928D01*
X135585750Y-196515000D01*
X135427000Y-196673750D01*
X135173000Y-196673750D01*
X135014250Y-196515000D01*
X134450000Y-196511928D01*
X134325518Y-196524188D01*
X134205820Y-196560498D01*
X134095506Y-196619463D01*
X133998815Y-196698815D01*
X133919463Y-196795506D01*
X133860498Y-196905820D01*
X133838487Y-196978380D01*
X133706632Y-196846525D01*
X133463411Y-196684010D01*
X133193158Y-196572068D01*
X132906260Y-196515000D01*
X132613740Y-196515000D01*
X132326842Y-196572068D01*
X132056589Y-196684010D01*
X131813368Y-196846525D01*
X131606525Y-197053368D01*
X131444010Y-197296589D01*
X131332068Y-197566842D01*
X131275000Y-197853740D01*
X131275000Y-198146260D01*
X131332068Y-198433158D01*
X131444010Y-198703411D01*
X131566474Y-198886691D01*
X131567509Y-198897201D01*
X131636698Y-199125287D01*
X131749055Y-199335492D01*
X131862373Y-199473570D01*
X132953801Y-200565000D01*
X132819678Y-200565000D01*
X132579484Y-200588657D01*
X132271285Y-200682148D01*
X131987248Y-200833969D01*
X131738286Y-201038286D01*
X131533969Y-201287248D01*
X131382148Y-201571285D01*
X131288657Y-201879484D01*
X131257089Y-202200000D01*
X131288657Y-202520516D01*
X131382148Y-202828715D01*
X131533969Y-203112752D01*
X131738286Y-203361714D01*
X131772753Y-203390000D01*
X126601198Y-203390000D01*
X124197637Y-200986440D01*
X124159739Y-200940261D01*
X123975492Y-200789054D01*
X123765287Y-200676697D01*
X123537201Y-200607508D01*
X123359437Y-200590000D01*
X123359435Y-200590000D01*
X123300000Y-200584146D01*
X123240565Y-200590000D01*
X122938072Y-200590000D01*
X122938072Y-200300000D01*
X122921008Y-200126746D01*
X122870472Y-199960150D01*
X122788405Y-199806614D01*
X122677962Y-199672038D01*
X122543386Y-199561595D01*
X122389850Y-199479528D01*
X122223254Y-199428992D01*
X122050000Y-199411928D01*
X120950000Y-199411928D01*
X120776746Y-199428992D01*
X120610150Y-199479528D01*
X120456614Y-199561595D01*
X120322038Y-199672038D01*
X120211595Y-199806614D01*
X120139467Y-199941556D01*
X120075492Y-199889054D01*
X119865287Y-199776697D01*
X119637201Y-199707508D01*
X119459437Y-199690000D01*
X119459435Y-199690000D01*
X119400000Y-199684146D01*
X119340565Y-199690000D01*
X118450000Y-199690000D01*
X118450000Y-198462036D01*
X118515195Y-198364466D01*
X118584822Y-198481355D01*
X118779731Y-198697588D01*
X119013080Y-198871641D01*
X119275901Y-198996825D01*
X119423110Y-199041476D01*
X119653000Y-198920155D01*
X119653000Y-197727000D01*
X119633000Y-197727000D01*
X119633000Y-197473000D01*
X119653000Y-197473000D01*
X119653000Y-196279845D01*
X119423110Y-196158524D01*
X119275901Y-196203175D01*
X119013080Y-196328359D01*
X118779731Y-196502412D01*
X118584822Y-196718645D01*
X118515195Y-196835534D01*
X118393475Y-196653368D01*
X118186632Y-196446525D01*
X117943411Y-196284010D01*
X117673158Y-196172068D01*
X117386260Y-196115000D01*
X117093740Y-196115000D01*
X116806842Y-196172068D01*
X116536589Y-196284010D01*
X116293368Y-196446525D01*
X116086525Y-196653368D01*
X115970000Y-196827760D01*
X115853475Y-196653368D01*
X115646632Y-196446525D01*
X115403411Y-196284010D01*
X115133158Y-196172068D01*
X114877000Y-196121115D01*
X114877000Y-195660000D01*
X127123000Y-195660000D01*
X127123000Y-196111928D01*
G37*
G04 #@! TD.AperFunction*
M02*
