M48
; DRILL file {KiCad 5.1.9-73d0e3b20d~88~ubuntu18.04.1} date Sun Jan 31 19:10:12 2021
; FORMAT={-:-/ absolute / inch / decimal}
; #@! TF.CreationDate,2021-01-31T19:10:12+01:00
; #@! TF.GenerationSoftware,Kicad,Pcbnew,5.1.9-73d0e3b20d~88~ubuntu18.04.1
; #@! TF.FileFunction,Plated,1,2,PTH
FMAT,2
INCH
T1C0.0157
T2C0.0236
T3C0.0276
T4C0.0315
T5C0.0394
T6C0.0433
T7C0.1260
%
G90
G05
T1
X8.3268Y-4.626
X8.3268Y-5.4134
X8.3366Y-4.8228
X8.3366Y-5.0197
X8.3366Y-5.2165
X8.3465Y-4.2618
X8.563Y-4.8031
X8.5827Y-5.374
X8.6614Y-4.4803
X8.7106Y-4.7343
X8.7356Y-5.2795
X8.7362Y-5.2323
X8.7402Y-4.1535
X8.7638Y-4.9016
X8.7795Y-4.4193
X8.7992Y-4.0354
X8.8465Y-5.3937
X8.8583Y-4.9016
X8.8583Y-5.3248
X8.9173Y-4.9016
X8.9173Y-5.0689
X8.9862Y-4.4094
X9.0354Y-4.9409
X9.0394Y-5.3937
X9.065Y-4.5965
X9.0748Y-5.5394
X9.1063Y-5.5787
X9.1339Y-4.9803
X9.1339Y-5.1181
X9.1732Y-5.2756
X9.2028Y-5.6201
X9.2126Y-4.4193
X9.3012Y-5.7382
X9.3012Y-5.8071
X9.4094Y-5.3937
X9.4488Y-5.2165
X9.498Y-5.689
X9.498Y-5.8071
X9.5177Y-4.0945
X9.5472Y-3.9961
X9.5965Y-5.6102
X9.685Y-5.2165
T2
X9.5276Y-4.685
X9.5276Y-4.9213
X9.7638Y-4.9213
X9.7638Y-5.1181
T3
X9.2913Y-4.9803
T4
X8.3268Y-4.4882
X8.4252Y-5.0492
X8.4252Y-5.5709
X8.5039Y-4.4882
X8.563Y-5.6102
X8.5827Y-4.2323
X8.6024Y-5.748
X8.622Y-4.0354
X8.8976Y-4.9803
X9.0945Y-4.1437
X9.2126Y-5.5315
X9.3504Y-4.0256
X9.5118Y-5.0394
X9.7441Y-4.5669
X9.7441Y-4.7244
X9.7441Y-5.315
X9.7441Y-5.5118
T5
X8.6988Y-5.4646
X8.7433Y-5.6717
X8.7433Y-5.7717
X8.8433Y-5.6717
X8.8433Y-5.7717
X8.8764Y-4.7835
X8.8976Y-4.0157
X8.9075Y-4.498
X8.9272Y-5.1575
X8.9433Y-5.6717
X8.9433Y-5.7717
X8.9764Y-4.7835
X8.9976Y-4.0157
X9.0433Y-5.6717
X9.0433Y-5.7717
X9.065Y-4.498
X9.0764Y-4.7835
X9.0976Y-4.0157
X9.1976Y-4.0157
X9.2382Y-4.498
X9.252Y-5.374
X9.7638Y-4.3094
X9.7638Y-4.4094
T6
X8.4252Y-4.3583
X8.4252Y-4.6142
X8.6024Y-4.3583
X8.6024Y-4.6142
T7
X8.4252Y-4.0945
X8.4252Y-5.748
X9.685Y-4.0945
X9.685Y-5.748
T4
G00X9.3209Y-4.2126
M15
G01X9.372Y-4.2126
M16
G05
G00X9.3209Y-4.3937
M15
G01X9.372Y-4.3937
M16
G05
G00X9.3209Y-4.5748
M15
G01X9.372Y-4.5748
M16
G05
T0
M30
