G04 #@! TF.GenerationSoftware,KiCad,Pcbnew,5.1.9-73d0e3b20d~88~ubuntu18.04.1*
G04 #@! TF.CreationDate,2021-01-31T19:09:56+01:00*
G04 #@! TF.ProjectId,stm32_slave_bat,73746d33-325f-4736-9c61-76655f626174,rev?*
G04 #@! TF.SameCoordinates,Original*
G04 #@! TF.FileFunction,Soldermask,Top*
G04 #@! TF.FilePolarity,Negative*
%FSLAX46Y46*%
G04 Gerber Fmt 4.6, Leading zero omitted, Abs format (unit mm)*
G04 Created by KiCad (PCBNEW 5.1.9-73d0e3b20d~88~ubuntu18.04.1) date 2021-01-31 19:09:56*
%MOMM*%
%LPD*%
G01*
G04 APERTURE LIST*
%ADD10C,2.000000*%
%ADD11R,1.700000X1.700000*%
%ADD12O,1.700000X1.700000*%
%ADD13R,0.900000X0.800000*%
%ADD14O,3.000000X2.000000*%
%ADD15R,2.000000X4.500000*%
%ADD16C,5.600000*%
G04 APERTURE END LIST*
G36*
G01*
X225450000Y-105475000D02*
X225450000Y-104525000D01*
G75*
G02*
X225700000Y-104275000I250000J0D01*
G01*
X226375000Y-104275000D01*
G75*
G02*
X226625000Y-104525000I0J-250000D01*
G01*
X226625000Y-105475000D01*
G75*
G02*
X226375000Y-105725000I-250000J0D01*
G01*
X225700000Y-105725000D01*
G75*
G02*
X225450000Y-105475000I0J250000D01*
G01*
G37*
G36*
G01*
X223375000Y-105475000D02*
X223375000Y-104525000D01*
G75*
G02*
X223625000Y-104275000I250000J0D01*
G01*
X224300000Y-104275000D01*
G75*
G02*
X224550000Y-104525000I0J-250000D01*
G01*
X224550000Y-105475000D01*
G75*
G02*
X224300000Y-105725000I-250000J0D01*
G01*
X223625000Y-105725000D01*
G75*
G02*
X223375000Y-105475000I0J250000D01*
G01*
G37*
D10*
X218500000Y-117200000D03*
X214000000Y-117200000D03*
X218500000Y-110700000D03*
X214000000Y-110700000D03*
G36*
G01*
X218600000Y-126549999D02*
X218600000Y-127450001D01*
G75*
G02*
X218350001Y-127700000I-249999J0D01*
G01*
X217649999Y-127700000D01*
G75*
G02*
X217400000Y-127450001I0J249999D01*
G01*
X217400000Y-126549999D01*
G75*
G02*
X217649999Y-126300000I249999J0D01*
G01*
X218350001Y-126300000D01*
G75*
G02*
X218600000Y-126549999I0J-249999D01*
G01*
G37*
G36*
G01*
X220600000Y-126549999D02*
X220600000Y-127450001D01*
G75*
G02*
X220350001Y-127700000I-249999J0D01*
G01*
X219649999Y-127700000D01*
G75*
G02*
X219400000Y-127450001I0J249999D01*
G01*
X219400000Y-126549999D01*
G75*
G02*
X219649999Y-126300000I249999J0D01*
G01*
X220350001Y-126300000D01*
G75*
G02*
X220600000Y-126549999I0J-249999D01*
G01*
G37*
D11*
X229700000Y-146600000D03*
D12*
X229700000Y-144060000D03*
X227160000Y-146600000D03*
X227160000Y-144060000D03*
X224620000Y-146600000D03*
X224620000Y-144060000D03*
X222080000Y-146600000D03*
X222080000Y-144060000D03*
G36*
G01*
X215250000Y-120475000D02*
X215250000Y-119525000D01*
G75*
G02*
X215500000Y-119275000I250000J0D01*
G01*
X216175000Y-119275000D01*
G75*
G02*
X216425000Y-119525000I0J-250000D01*
G01*
X216425000Y-120475000D01*
G75*
G02*
X216175000Y-120725000I-250000J0D01*
G01*
X215500000Y-120725000D01*
G75*
G02*
X215250000Y-120475000I0J250000D01*
G01*
G37*
G36*
G01*
X213175000Y-120475000D02*
X213175000Y-119525000D01*
G75*
G02*
X213425000Y-119275000I250000J0D01*
G01*
X214100000Y-119275000D01*
G75*
G02*
X214350000Y-119525000I0J-250000D01*
G01*
X214350000Y-120475000D01*
G75*
G02*
X214100000Y-120725000I-250000J0D01*
G01*
X213425000Y-120725000D01*
G75*
G02*
X213175000Y-120475000I0J250000D01*
G01*
G37*
G36*
G01*
X213112500Y-137075000D02*
X213112500Y-136125000D01*
G75*
G02*
X213362500Y-135875000I250000J0D01*
G01*
X214037500Y-135875000D01*
G75*
G02*
X214287500Y-136125000I0J-250000D01*
G01*
X214287500Y-137075000D01*
G75*
G02*
X214037500Y-137325000I-250000J0D01*
G01*
X213362500Y-137325000D01*
G75*
G02*
X213112500Y-137075000I0J250000D01*
G01*
G37*
G36*
G01*
X215187500Y-137075000D02*
X215187500Y-136125000D01*
G75*
G02*
X215437500Y-135875000I250000J0D01*
G01*
X216112500Y-135875000D01*
G75*
G02*
X216362500Y-136125000I0J-250000D01*
G01*
X216362500Y-137075000D01*
G75*
G02*
X216112500Y-137325000I-250000J0D01*
G01*
X215437500Y-137325000D01*
G75*
G02*
X215187500Y-137075000I0J250000D01*
G01*
G37*
G36*
G01*
X217375000Y-125475000D02*
X217375000Y-124525000D01*
G75*
G02*
X217625000Y-124275000I250000J0D01*
G01*
X218300000Y-124275000D01*
G75*
G02*
X218550000Y-124525000I0J-250000D01*
G01*
X218550000Y-125475000D01*
G75*
G02*
X218300000Y-125725000I-250000J0D01*
G01*
X217625000Y-125725000D01*
G75*
G02*
X217375000Y-125475000I0J250000D01*
G01*
G37*
G36*
G01*
X219450000Y-125475000D02*
X219450000Y-124525000D01*
G75*
G02*
X219700000Y-124275000I250000J0D01*
G01*
X220375000Y-124275000D01*
G75*
G02*
X220625000Y-124525000I0J-250000D01*
G01*
X220625000Y-125475000D01*
G75*
G02*
X220375000Y-125725000I-250000J0D01*
G01*
X219700000Y-125725000D01*
G75*
G02*
X219450000Y-125475000I0J250000D01*
G01*
G37*
G36*
G01*
X236375000Y-130525000D02*
X236375000Y-131475000D01*
G75*
G02*
X236125000Y-131725000I-250000J0D01*
G01*
X235450000Y-131725000D01*
G75*
G02*
X235200000Y-131475000I0J250000D01*
G01*
X235200000Y-130525000D01*
G75*
G02*
X235450000Y-130275000I250000J0D01*
G01*
X236125000Y-130275000D01*
G75*
G02*
X236375000Y-130525000I0J-250000D01*
G01*
G37*
G36*
G01*
X234300000Y-130525000D02*
X234300000Y-131475000D01*
G75*
G02*
X234050000Y-131725000I-250000J0D01*
G01*
X233375000Y-131725000D01*
G75*
G02*
X233125000Y-131475000I0J250000D01*
G01*
X233125000Y-130525000D01*
G75*
G02*
X233375000Y-130275000I250000J0D01*
G01*
X234050000Y-130275000D01*
G75*
G02*
X234300000Y-130525000I0J-250000D01*
G01*
G37*
G36*
G01*
X218550000Y-130525000D02*
X218550000Y-131475000D01*
G75*
G02*
X218300000Y-131725000I-250000J0D01*
G01*
X217625000Y-131725000D01*
G75*
G02*
X217375000Y-131475000I0J250000D01*
G01*
X217375000Y-130525000D01*
G75*
G02*
X217625000Y-130275000I250000J0D01*
G01*
X218300000Y-130275000D01*
G75*
G02*
X218550000Y-130525000I0J-250000D01*
G01*
G37*
G36*
G01*
X220625000Y-130525000D02*
X220625000Y-131475000D01*
G75*
G02*
X220375000Y-131725000I-250000J0D01*
G01*
X219700000Y-131725000D01*
G75*
G02*
X219450000Y-131475000I0J250000D01*
G01*
X219450000Y-130525000D01*
G75*
G02*
X219700000Y-130275000I250000J0D01*
G01*
X220375000Y-130275000D01*
G75*
G02*
X220625000Y-130525000I0J-250000D01*
G01*
G37*
G36*
G01*
X233975000Y-148625000D02*
X233025000Y-148625000D01*
G75*
G02*
X232775000Y-148375000I0J250000D01*
G01*
X232775000Y-147700000D01*
G75*
G02*
X233025000Y-147450000I250000J0D01*
G01*
X233975000Y-147450000D01*
G75*
G02*
X234225000Y-147700000I0J-250000D01*
G01*
X234225000Y-148375000D01*
G75*
G02*
X233975000Y-148625000I-250000J0D01*
G01*
G37*
G36*
G01*
X233975000Y-146550000D02*
X233025000Y-146550000D01*
G75*
G02*
X232775000Y-146300000I0J250000D01*
G01*
X232775000Y-145625000D01*
G75*
G02*
X233025000Y-145375000I250000J0D01*
G01*
X233975000Y-145375000D01*
G75*
G02*
X234225000Y-145625000I0J-250000D01*
G01*
X234225000Y-146300000D01*
G75*
G02*
X233975000Y-146550000I-250000J0D01*
G01*
G37*
D11*
X248000000Y-112000000D03*
D12*
X248000000Y-109460000D03*
D13*
X241500000Y-137050000D03*
X241500000Y-138950000D03*
X243500000Y-138000000D03*
G36*
G01*
X220600000Y-128549999D02*
X220600000Y-129450001D01*
G75*
G02*
X220350001Y-129700000I-249999J0D01*
G01*
X219649999Y-129700000D01*
G75*
G02*
X219400000Y-129450001I0J249999D01*
G01*
X219400000Y-128549999D01*
G75*
G02*
X219649999Y-128300000I249999J0D01*
G01*
X220350001Y-128300000D01*
G75*
G02*
X220600000Y-128549999I0J-249999D01*
G01*
G37*
G36*
G01*
X218600000Y-128549999D02*
X218600000Y-129450001D01*
G75*
G02*
X218350001Y-129700000I-249999J0D01*
G01*
X217649999Y-129700000D01*
G75*
G02*
X217400000Y-129450001I0J249999D01*
G01*
X217400000Y-128549999D01*
G75*
G02*
X217649999Y-128300000I249999J0D01*
G01*
X218350001Y-128300000D01*
G75*
G02*
X218600000Y-128549999I0J-249999D01*
G01*
G37*
G36*
G01*
X223450001Y-117800000D02*
X222549999Y-117800000D01*
G75*
G02*
X222300000Y-117550001I0J249999D01*
G01*
X222300000Y-116849999D01*
G75*
G02*
X222549999Y-116600000I249999J0D01*
G01*
X223450001Y-116600000D01*
G75*
G02*
X223700000Y-116849999I0J-249999D01*
G01*
X223700000Y-117550001D01*
G75*
G02*
X223450001Y-117800000I-249999J0D01*
G01*
G37*
G36*
G01*
X223450001Y-115800000D02*
X222549999Y-115800000D01*
G75*
G02*
X222300000Y-115550001I0J249999D01*
G01*
X222300000Y-114849999D01*
G75*
G02*
X222549999Y-114600000I249999J0D01*
G01*
X223450001Y-114600000D01*
G75*
G02*
X223700000Y-114849999I0J-249999D01*
G01*
X223700000Y-115550001D01*
G75*
G02*
X223450001Y-115800000I-249999J0D01*
G01*
G37*
G36*
G01*
X225950001Y-117000000D02*
X225049999Y-117000000D01*
G75*
G02*
X224800000Y-116750001I0J249999D01*
G01*
X224800000Y-116049999D01*
G75*
G02*
X225049999Y-115800000I249999J0D01*
G01*
X225950001Y-115800000D01*
G75*
G02*
X226200000Y-116049999I0J-249999D01*
G01*
X226200000Y-116750001D01*
G75*
G02*
X225950001Y-117000000I-249999J0D01*
G01*
G37*
G36*
G01*
X225950001Y-119000000D02*
X225049999Y-119000000D01*
G75*
G02*
X224800000Y-118750001I0J249999D01*
G01*
X224800000Y-118049999D01*
G75*
G02*
X225049999Y-117800000I249999J0D01*
G01*
X225950001Y-117800000D01*
G75*
G02*
X226200000Y-118049999I0J-249999D01*
G01*
X226200000Y-118750001D01*
G75*
G02*
X225950001Y-119000000I-249999J0D01*
G01*
G37*
G36*
G01*
X239400000Y-134950001D02*
X239400000Y-134049999D01*
G75*
G02*
X239649999Y-133800000I249999J0D01*
G01*
X240350001Y-133800000D01*
G75*
G02*
X240600000Y-134049999I0J-249999D01*
G01*
X240600000Y-134950001D01*
G75*
G02*
X240350001Y-135200000I-249999J0D01*
G01*
X239649999Y-135200000D01*
G75*
G02*
X239400000Y-134950001I0J249999D01*
G01*
G37*
G36*
G01*
X241400000Y-134950001D02*
X241400000Y-134049999D01*
G75*
G02*
X241649999Y-133800000I249999J0D01*
G01*
X242350001Y-133800000D01*
G75*
G02*
X242600000Y-134049999I0J-249999D01*
G01*
X242600000Y-134950001D01*
G75*
G02*
X242350001Y-135200000I-249999J0D01*
G01*
X241649999Y-135200000D01*
G75*
G02*
X241400000Y-134950001I0J249999D01*
G01*
G37*
G36*
G01*
X222900000Y-128425000D02*
X222900000Y-128225000D01*
G75*
G02*
X223000000Y-128125000I100000J0D01*
G01*
X224275000Y-128125000D01*
G75*
G02*
X224375000Y-128225000I0J-100000D01*
G01*
X224375000Y-128425000D01*
G75*
G02*
X224275000Y-128525000I-100000J0D01*
G01*
X223000000Y-128525000D01*
G75*
G02*
X222900000Y-128425000I0J100000D01*
G01*
G37*
G36*
G01*
X222900000Y-129075000D02*
X222900000Y-128875000D01*
G75*
G02*
X223000000Y-128775000I100000J0D01*
G01*
X224275000Y-128775000D01*
G75*
G02*
X224375000Y-128875000I0J-100000D01*
G01*
X224375000Y-129075000D01*
G75*
G02*
X224275000Y-129175000I-100000J0D01*
G01*
X223000000Y-129175000D01*
G75*
G02*
X222900000Y-129075000I0J100000D01*
G01*
G37*
G36*
G01*
X222900000Y-129725000D02*
X222900000Y-129525000D01*
G75*
G02*
X223000000Y-129425000I100000J0D01*
G01*
X224275000Y-129425000D01*
G75*
G02*
X224375000Y-129525000I0J-100000D01*
G01*
X224375000Y-129725000D01*
G75*
G02*
X224275000Y-129825000I-100000J0D01*
G01*
X223000000Y-129825000D01*
G75*
G02*
X222900000Y-129725000I0J100000D01*
G01*
G37*
G36*
G01*
X222900000Y-130375000D02*
X222900000Y-130175000D01*
G75*
G02*
X223000000Y-130075000I100000J0D01*
G01*
X224275000Y-130075000D01*
G75*
G02*
X224375000Y-130175000I0J-100000D01*
G01*
X224375000Y-130375000D01*
G75*
G02*
X224275000Y-130475000I-100000J0D01*
G01*
X223000000Y-130475000D01*
G75*
G02*
X222900000Y-130375000I0J100000D01*
G01*
G37*
G36*
G01*
X222900000Y-131025000D02*
X222900000Y-130825000D01*
G75*
G02*
X223000000Y-130725000I100000J0D01*
G01*
X224275000Y-130725000D01*
G75*
G02*
X224375000Y-130825000I0J-100000D01*
G01*
X224375000Y-131025000D01*
G75*
G02*
X224275000Y-131125000I-100000J0D01*
G01*
X223000000Y-131125000D01*
G75*
G02*
X222900000Y-131025000I0J100000D01*
G01*
G37*
G36*
G01*
X222900000Y-131675000D02*
X222900000Y-131475000D01*
G75*
G02*
X223000000Y-131375000I100000J0D01*
G01*
X224275000Y-131375000D01*
G75*
G02*
X224375000Y-131475000I0J-100000D01*
G01*
X224375000Y-131675000D01*
G75*
G02*
X224275000Y-131775000I-100000J0D01*
G01*
X223000000Y-131775000D01*
G75*
G02*
X222900000Y-131675000I0J100000D01*
G01*
G37*
G36*
G01*
X222900000Y-132325000D02*
X222900000Y-132125000D01*
G75*
G02*
X223000000Y-132025000I100000J0D01*
G01*
X224275000Y-132025000D01*
G75*
G02*
X224375000Y-132125000I0J-100000D01*
G01*
X224375000Y-132325000D01*
G75*
G02*
X224275000Y-132425000I-100000J0D01*
G01*
X223000000Y-132425000D01*
G75*
G02*
X222900000Y-132325000I0J100000D01*
G01*
G37*
G36*
G01*
X222900000Y-132975000D02*
X222900000Y-132775000D01*
G75*
G02*
X223000000Y-132675000I100000J0D01*
G01*
X224275000Y-132675000D01*
G75*
G02*
X224375000Y-132775000I0J-100000D01*
G01*
X224375000Y-132975000D01*
G75*
G02*
X224275000Y-133075000I-100000J0D01*
G01*
X223000000Y-133075000D01*
G75*
G02*
X222900000Y-132975000I0J100000D01*
G01*
G37*
G36*
G01*
X222900000Y-133625000D02*
X222900000Y-133425000D01*
G75*
G02*
X223000000Y-133325000I100000J0D01*
G01*
X224275000Y-133325000D01*
G75*
G02*
X224375000Y-133425000I0J-100000D01*
G01*
X224375000Y-133625000D01*
G75*
G02*
X224275000Y-133725000I-100000J0D01*
G01*
X223000000Y-133725000D01*
G75*
G02*
X222900000Y-133625000I0J100000D01*
G01*
G37*
G36*
G01*
X222900000Y-134275000D02*
X222900000Y-134075000D01*
G75*
G02*
X223000000Y-133975000I100000J0D01*
G01*
X224275000Y-133975000D01*
G75*
G02*
X224375000Y-134075000I0J-100000D01*
G01*
X224375000Y-134275000D01*
G75*
G02*
X224275000Y-134375000I-100000J0D01*
G01*
X223000000Y-134375000D01*
G75*
G02*
X222900000Y-134275000I0J100000D01*
G01*
G37*
G36*
G01*
X228625000Y-134275000D02*
X228625000Y-134075000D01*
G75*
G02*
X228725000Y-133975000I100000J0D01*
G01*
X230000000Y-133975000D01*
G75*
G02*
X230100000Y-134075000I0J-100000D01*
G01*
X230100000Y-134275000D01*
G75*
G02*
X230000000Y-134375000I-100000J0D01*
G01*
X228725000Y-134375000D01*
G75*
G02*
X228625000Y-134275000I0J100000D01*
G01*
G37*
G36*
G01*
X228625000Y-133625000D02*
X228625000Y-133425000D01*
G75*
G02*
X228725000Y-133325000I100000J0D01*
G01*
X230000000Y-133325000D01*
G75*
G02*
X230100000Y-133425000I0J-100000D01*
G01*
X230100000Y-133625000D01*
G75*
G02*
X230000000Y-133725000I-100000J0D01*
G01*
X228725000Y-133725000D01*
G75*
G02*
X228625000Y-133625000I0J100000D01*
G01*
G37*
G36*
G01*
X228625000Y-132975000D02*
X228625000Y-132775000D01*
G75*
G02*
X228725000Y-132675000I100000J0D01*
G01*
X230000000Y-132675000D01*
G75*
G02*
X230100000Y-132775000I0J-100000D01*
G01*
X230100000Y-132975000D01*
G75*
G02*
X230000000Y-133075000I-100000J0D01*
G01*
X228725000Y-133075000D01*
G75*
G02*
X228625000Y-132975000I0J100000D01*
G01*
G37*
G36*
G01*
X228625000Y-132325000D02*
X228625000Y-132125000D01*
G75*
G02*
X228725000Y-132025000I100000J0D01*
G01*
X230000000Y-132025000D01*
G75*
G02*
X230100000Y-132125000I0J-100000D01*
G01*
X230100000Y-132325000D01*
G75*
G02*
X230000000Y-132425000I-100000J0D01*
G01*
X228725000Y-132425000D01*
G75*
G02*
X228625000Y-132325000I0J100000D01*
G01*
G37*
G36*
G01*
X228625000Y-131675000D02*
X228625000Y-131475000D01*
G75*
G02*
X228725000Y-131375000I100000J0D01*
G01*
X230000000Y-131375000D01*
G75*
G02*
X230100000Y-131475000I0J-100000D01*
G01*
X230100000Y-131675000D01*
G75*
G02*
X230000000Y-131775000I-100000J0D01*
G01*
X228725000Y-131775000D01*
G75*
G02*
X228625000Y-131675000I0J100000D01*
G01*
G37*
G36*
G01*
X228625000Y-131025000D02*
X228625000Y-130825000D01*
G75*
G02*
X228725000Y-130725000I100000J0D01*
G01*
X230000000Y-130725000D01*
G75*
G02*
X230100000Y-130825000I0J-100000D01*
G01*
X230100000Y-131025000D01*
G75*
G02*
X230000000Y-131125000I-100000J0D01*
G01*
X228725000Y-131125000D01*
G75*
G02*
X228625000Y-131025000I0J100000D01*
G01*
G37*
G36*
G01*
X228625000Y-130375000D02*
X228625000Y-130175000D01*
G75*
G02*
X228725000Y-130075000I100000J0D01*
G01*
X230000000Y-130075000D01*
G75*
G02*
X230100000Y-130175000I0J-100000D01*
G01*
X230100000Y-130375000D01*
G75*
G02*
X230000000Y-130475000I-100000J0D01*
G01*
X228725000Y-130475000D01*
G75*
G02*
X228625000Y-130375000I0J100000D01*
G01*
G37*
G36*
G01*
X228625000Y-129725000D02*
X228625000Y-129525000D01*
G75*
G02*
X228725000Y-129425000I100000J0D01*
G01*
X230000000Y-129425000D01*
G75*
G02*
X230100000Y-129525000I0J-100000D01*
G01*
X230100000Y-129725000D01*
G75*
G02*
X230000000Y-129825000I-100000J0D01*
G01*
X228725000Y-129825000D01*
G75*
G02*
X228625000Y-129725000I0J100000D01*
G01*
G37*
G36*
G01*
X228625000Y-129075000D02*
X228625000Y-128875000D01*
G75*
G02*
X228725000Y-128775000I100000J0D01*
G01*
X230000000Y-128775000D01*
G75*
G02*
X230100000Y-128875000I0J-100000D01*
G01*
X230100000Y-129075000D01*
G75*
G02*
X230000000Y-129175000I-100000J0D01*
G01*
X228725000Y-129175000D01*
G75*
G02*
X228625000Y-129075000I0J100000D01*
G01*
G37*
G36*
G01*
X228625000Y-128425000D02*
X228625000Y-128225000D01*
G75*
G02*
X228725000Y-128125000I100000J0D01*
G01*
X230000000Y-128125000D01*
G75*
G02*
X230100000Y-128225000I0J-100000D01*
G01*
X230100000Y-128425000D01*
G75*
G02*
X230000000Y-128525000I-100000J0D01*
G01*
X228725000Y-128525000D01*
G75*
G02*
X228625000Y-128425000I0J100000D01*
G01*
G37*
D11*
X226000000Y-102000000D03*
D12*
X228540000Y-102000000D03*
X231080000Y-102000000D03*
X233620000Y-102000000D03*
G36*
G01*
X236387500Y-128325000D02*
X236387500Y-129275000D01*
G75*
G02*
X236137500Y-129525000I-250000J0D01*
G01*
X235462500Y-129525000D01*
G75*
G02*
X235212500Y-129275000I0J250000D01*
G01*
X235212500Y-128325000D01*
G75*
G02*
X235462500Y-128075000I250000J0D01*
G01*
X236137500Y-128075000D01*
G75*
G02*
X236387500Y-128325000I0J-250000D01*
G01*
G37*
G36*
G01*
X234312500Y-128325000D02*
X234312500Y-129275000D01*
G75*
G02*
X234062500Y-129525000I-250000J0D01*
G01*
X233387500Y-129525000D01*
G75*
G02*
X233137500Y-129275000I0J250000D01*
G01*
X233137500Y-128325000D01*
G75*
G02*
X233387500Y-128075000I250000J0D01*
G01*
X234062500Y-128075000D01*
G75*
G02*
X234312500Y-128325000I0J-250000D01*
G01*
G37*
G36*
G01*
X218550000Y-132525000D02*
X218550000Y-133475000D01*
G75*
G02*
X218300000Y-133725000I-250000J0D01*
G01*
X217625000Y-133725000D01*
G75*
G02*
X217375000Y-133475000I0J250000D01*
G01*
X217375000Y-132525000D01*
G75*
G02*
X217625000Y-132275000I250000J0D01*
G01*
X218300000Y-132275000D01*
G75*
G02*
X218550000Y-132525000I0J-250000D01*
G01*
G37*
G36*
G01*
X220625000Y-132525000D02*
X220625000Y-133475000D01*
G75*
G02*
X220375000Y-133725000I-250000J0D01*
G01*
X219700000Y-133725000D01*
G75*
G02*
X219450000Y-133475000I0J250000D01*
G01*
X219450000Y-132525000D01*
G75*
G02*
X219700000Y-132275000I250000J0D01*
G01*
X220375000Y-132275000D01*
G75*
G02*
X220625000Y-132525000I0J-250000D01*
G01*
G37*
G36*
G01*
X233050000Y-122450000D02*
X233050000Y-121350000D01*
G75*
G02*
X233300000Y-121100000I250000J0D01*
G01*
X236300000Y-121100000D01*
G75*
G02*
X236550000Y-121350000I0J-250000D01*
G01*
X236550000Y-122450000D01*
G75*
G02*
X236300000Y-122700000I-250000J0D01*
G01*
X233300000Y-122700000D01*
G75*
G02*
X233050000Y-122450000I0J250000D01*
G01*
G37*
G36*
G01*
X238450000Y-122450000D02*
X238450000Y-121350000D01*
G75*
G02*
X238700000Y-121100000I250000J0D01*
G01*
X241700000Y-121100000D01*
G75*
G02*
X241950000Y-121350000I0J-250000D01*
G01*
X241950000Y-122450000D01*
G75*
G02*
X241700000Y-122700000I-250000J0D01*
G01*
X238700000Y-122700000D01*
G75*
G02*
X238450000Y-122450000I0J250000D01*
G01*
G37*
G36*
G01*
X228950000Y-110250000D02*
X228950000Y-109150000D01*
G75*
G02*
X229200000Y-108900000I250000J0D01*
G01*
X232200000Y-108900000D01*
G75*
G02*
X232450000Y-109150000I0J-250000D01*
G01*
X232450000Y-110250000D01*
G75*
G02*
X232200000Y-110500000I-250000J0D01*
G01*
X229200000Y-110500000D01*
G75*
G02*
X228950000Y-110250000I0J250000D01*
G01*
G37*
G36*
G01*
X223550000Y-110250000D02*
X223550000Y-109150000D01*
G75*
G02*
X223800000Y-108900000I250000J0D01*
G01*
X226800000Y-108900000D01*
G75*
G02*
X227050000Y-109150000I0J-250000D01*
G01*
X227050000Y-110250000D01*
G75*
G02*
X226800000Y-110500000I-250000J0D01*
G01*
X223800000Y-110500000D01*
G75*
G02*
X223550000Y-110250000I0J250000D01*
G01*
G37*
G36*
G01*
X238450000Y-140050000D02*
X239550000Y-140050000D01*
G75*
G02*
X239800000Y-140300000I0J-250000D01*
G01*
X239800000Y-143300000D01*
G75*
G02*
X239550000Y-143550000I-250000J0D01*
G01*
X238450000Y-143550000D01*
G75*
G02*
X238200000Y-143300000I0J250000D01*
G01*
X238200000Y-140300000D01*
G75*
G02*
X238450000Y-140050000I250000J0D01*
G01*
G37*
G36*
G01*
X238450000Y-145450000D02*
X239550000Y-145450000D01*
G75*
G02*
X239800000Y-145700000I0J-250000D01*
G01*
X239800000Y-148700000D01*
G75*
G02*
X239550000Y-148950000I-250000J0D01*
G01*
X238450000Y-148950000D01*
G75*
G02*
X238200000Y-148700000I0J250000D01*
G01*
X238200000Y-145700000D01*
G75*
G02*
X238450000Y-145450000I250000J0D01*
G01*
G37*
G36*
G01*
X242675000Y-107500000D02*
X245325000Y-107500000D01*
G75*
G02*
X245575000Y-107750000I0J-250000D01*
G01*
X245575000Y-109250000D01*
G75*
G02*
X245325000Y-109500000I-250000J0D01*
G01*
X242675000Y-109500000D01*
G75*
G02*
X242425000Y-109250000I0J250000D01*
G01*
X242425000Y-107750000D01*
G75*
G02*
X242675000Y-107500000I250000J0D01*
G01*
G37*
G36*
G01*
X242675000Y-112400000D02*
X245325000Y-112400000D01*
G75*
G02*
X245575000Y-112650000I0J-250000D01*
G01*
X245575000Y-114150000D01*
G75*
G02*
X245325000Y-114400000I-250000J0D01*
G01*
X242675000Y-114400000D01*
G75*
G02*
X242425000Y-114150000I0J250000D01*
G01*
X242425000Y-112650000D01*
G75*
G02*
X242675000Y-112400000I250000J0D01*
G01*
G37*
D14*
X237400000Y-107000000D03*
X237400000Y-111600000D03*
X237400000Y-116200000D03*
D15*
X213750000Y-124000000D03*
X213750000Y-132500000D03*
G36*
G01*
X245549999Y-123375000D02*
X246450001Y-123375000D01*
G75*
G02*
X246700000Y-123624999I0J-249999D01*
G01*
X246700000Y-124275001D01*
G75*
G02*
X246450001Y-124525000I-249999J0D01*
G01*
X245549999Y-124525000D01*
G75*
G02*
X245300000Y-124275001I0J249999D01*
G01*
X245300000Y-123624999D01*
G75*
G02*
X245549999Y-123375000I249999J0D01*
G01*
G37*
G36*
G01*
X245549999Y-125425000D02*
X246450001Y-125425000D01*
G75*
G02*
X246700000Y-125674999I0J-249999D01*
G01*
X246700000Y-126325001D01*
G75*
G02*
X246450001Y-126575000I-249999J0D01*
G01*
X245549999Y-126575000D01*
G75*
G02*
X245300000Y-126325001I0J249999D01*
G01*
X245300000Y-125674999D01*
G75*
G02*
X245549999Y-125425000I249999J0D01*
G01*
G37*
G36*
G01*
X245549999Y-127900000D02*
X246450001Y-127900000D01*
G75*
G02*
X246700000Y-128149999I0J-249999D01*
G01*
X246700000Y-128850001D01*
G75*
G02*
X246450001Y-129100000I-249999J0D01*
G01*
X245549999Y-129100000D01*
G75*
G02*
X245300000Y-128850001I0J249999D01*
G01*
X245300000Y-128149999D01*
G75*
G02*
X245549999Y-127900000I249999J0D01*
G01*
G37*
G36*
G01*
X245549999Y-129900000D02*
X246450001Y-129900000D01*
G75*
G02*
X246700000Y-130149999I0J-249999D01*
G01*
X246700000Y-130850001D01*
G75*
G02*
X246450001Y-131100000I-249999J0D01*
G01*
X245549999Y-131100000D01*
G75*
G02*
X245300000Y-130850001I0J249999D01*
G01*
X245300000Y-130149999D01*
G75*
G02*
X245549999Y-129900000I249999J0D01*
G01*
G37*
D11*
X230540000Y-121500000D03*
D12*
X228000000Y-121500000D03*
X225460000Y-121500000D03*
D16*
X214000000Y-146000000D03*
X214000000Y-104000000D03*
X246000000Y-104000000D03*
X246000000Y-146000000D03*
M02*
